<?xml version="1.0" encoding="utf-8" standalone="no"?>
<!DOCTYPE svg PUBLIC "-//W3C//DTD SVG 1.1//EN"
  "http://www.w3.org/Graphics/SVG/1.1/DTD/svg11.dtd">
<svg xmlns:xlink="http://www.w3.org/1999/xlink" width="420.098125pt" height="325.986375pt" viewBox="0 0 420.098125 325.986375" xmlns="http://www.w3.org/2000/svg" version="1.1">
 <metadata>
  <rdf:RDF xmlns:dc="http://purl.org/dc/elements/1.1/" xmlns:cc="http://creativecommons.org/ns#" xmlns:rdf="http://www.w3.org/1999/02/22-rdf-syntax-ns#">
   <cc:Work>
    <dc:type rdf:resource="http://purl.org/dc/dcmitype/StillImage"/>
    <dc:date>2025-04-16T13:03:37.590632</dc:date>
    <dc:format>image/svg+xml</dc:format>
    <dc:creator>
     <cc:Agent>
      <dc:title>Matplotlib v3.10.1, https://matplotlib.org/</dc:title>
     </cc:Agent>
    </dc:creator>
   </cc:Work>
  </rdf:RDF>
 </metadata>
 <defs>
  <style type="text/css">*{stroke-linejoin: round; stroke-linecap: butt}</style>
 </defs>
 <g id="figure_1">
  <g id="patch_1">
   <path d="M 0 325.986375 
L 420.098125 325.986375 
L 420.098125 0 
L 0 0 
z
" style="fill: #ffffff"/>
  </g>
  <g id="axes_1">
   <g id="patch_2">
    <path d="M 55.778125 288.430125 
L 412.898125 288.430125 
L 412.898125 22.318125 
L 55.778125 22.318125 
z
" style="fill: #ffffff"/>
   </g>
   <g id="matplotlib.axis_1">
    <g id="xtick_1">
     <g id="line2d_1">
      <defs>
       <path id="m56e95271f1" d="M 0 0 
L 0 3.5 
" style="stroke: #000000; stroke-width: 0.8"/>
      </defs>
      <g>
       <use xlink:href="#m56e95271f1" x="55.778125" y="288.430125" style="stroke: #000000; stroke-width: 0.8"/>
      </g>
     </g>
     <g id="text_1">
      <!-- 0 -->
      <g transform="translate(52.596875 303.028562) scale(0.1 -0.1)">
       <defs>
        <path id="DejaVuSans-30" d="M 2034 4250 
Q 1547 4250 1301 3770 
Q 1056 3291 1056 2328 
Q 1056 1369 1301 889 
Q 1547 409 2034 409 
Q 2525 409 2770 889 
Q 3016 1369 3016 2328 
Q 3016 3291 2770 3770 
Q 2525 4250 2034 4250 
z
M 2034 4750 
Q 2819 4750 3233 4129 
Q 3647 3509 3647 2328 
Q 3647 1150 3233 529 
Q 2819 -91 2034 -91 
Q 1250 -91 836 529 
Q 422 1150 422 2328 
Q 422 3509 836 4129 
Q 1250 4750 2034 4750 
z
" transform="scale(0.015625)"/>
       </defs>
       <use xlink:href="#DejaVuSans-30"/>
      </g>
     </g>
    </g>
    <g id="xtick_2">
     <g id="line2d_2">
      <g>
       <use xlink:href="#m56e95271f1" x="130.961283" y="288.430125" style="stroke: #000000; stroke-width: 0.8"/>
      </g>
     </g>
     <g id="text_2">
      <!-- 20 -->
      <g transform="translate(124.598783 303.028562) scale(0.1 -0.1)">
       <defs>
        <path id="DejaVuSans-32" d="M 1228 531 
L 3431 531 
L 3431 0 
L 469 0 
L 469 531 
Q 828 903 1448 1529 
Q 2069 2156 2228 2338 
Q 2531 2678 2651 2914 
Q 2772 3150 2772 3378 
Q 2772 3750 2511 3984 
Q 2250 4219 1831 4219 
Q 1534 4219 1204 4116 
Q 875 4013 500 3803 
L 500 4441 
Q 881 4594 1212 4672 
Q 1544 4750 1819 4750 
Q 2544 4750 2975 4387 
Q 3406 4025 3406 3419 
Q 3406 3131 3298 2873 
Q 3191 2616 2906 2266 
Q 2828 2175 2409 1742 
Q 1991 1309 1228 531 
z
" transform="scale(0.015625)"/>
       </defs>
       <use xlink:href="#DejaVuSans-32"/>
       <use xlink:href="#DejaVuSans-30" transform="translate(63.623047 0)"/>
      </g>
     </g>
    </g>
    <g id="xtick_3">
     <g id="line2d_3">
      <g>
       <use xlink:href="#m56e95271f1" x="206.144441" y="288.430125" style="stroke: #000000; stroke-width: 0.8"/>
      </g>
     </g>
     <g id="text_3">
      <!-- 40 -->
      <g transform="translate(199.781941 303.028562) scale(0.1 -0.1)">
       <defs>
        <path id="DejaVuSans-34" d="M 2419 4116 
L 825 1625 
L 2419 1625 
L 2419 4116 
z
M 2253 4666 
L 3047 4666 
L 3047 1625 
L 3713 1625 
L 3713 1100 
L 3047 1100 
L 3047 0 
L 2419 0 
L 2419 1100 
L 313 1100 
L 313 1709 
L 2253 4666 
z
" transform="scale(0.015625)"/>
       </defs>
       <use xlink:href="#DejaVuSans-34"/>
       <use xlink:href="#DejaVuSans-30" transform="translate(63.623047 0)"/>
      </g>
     </g>
    </g>
    <g id="xtick_4">
     <g id="line2d_4">
      <g>
       <use xlink:href="#m56e95271f1" x="281.327599" y="288.430125" style="stroke: #000000; stroke-width: 0.8"/>
      </g>
     </g>
     <g id="text_4">
      <!-- 60 -->
      <g transform="translate(274.965099 303.028562) scale(0.1 -0.1)">
       <defs>
        <path id="DejaVuSans-36" d="M 2113 2584 
Q 1688 2584 1439 2293 
Q 1191 2003 1191 1497 
Q 1191 994 1439 701 
Q 1688 409 2113 409 
Q 2538 409 2786 701 
Q 3034 994 3034 1497 
Q 3034 2003 2786 2293 
Q 2538 2584 2113 2584 
z
M 3366 4563 
L 3366 3988 
Q 3128 4100 2886 4159 
Q 2644 4219 2406 4219 
Q 1781 4219 1451 3797 
Q 1122 3375 1075 2522 
Q 1259 2794 1537 2939 
Q 1816 3084 2150 3084 
Q 2853 3084 3261 2657 
Q 3669 2231 3669 1497 
Q 3669 778 3244 343 
Q 2819 -91 2113 -91 
Q 1303 -91 875 529 
Q 447 1150 447 2328 
Q 447 3434 972 4092 
Q 1497 4750 2381 4750 
Q 2619 4750 2861 4703 
Q 3103 4656 3366 4563 
z
" transform="scale(0.015625)"/>
       </defs>
       <use xlink:href="#DejaVuSans-36"/>
       <use xlink:href="#DejaVuSans-30" transform="translate(63.623047 0)"/>
      </g>
     </g>
    </g>
    <g id="xtick_5">
     <g id="line2d_5">
      <g>
       <use xlink:href="#m56e95271f1" x="356.510757" y="288.430125" style="stroke: #000000; stroke-width: 0.8"/>
      </g>
     </g>
     <g id="text_5">
      <!-- 80 -->
      <g transform="translate(350.148257 303.028562) scale(0.1 -0.1)">
       <defs>
        <path id="DejaVuSans-38" d="M 2034 2216 
Q 1584 2216 1326 1975 
Q 1069 1734 1069 1313 
Q 1069 891 1326 650 
Q 1584 409 2034 409 
Q 2484 409 2743 651 
Q 3003 894 3003 1313 
Q 3003 1734 2745 1975 
Q 2488 2216 2034 2216 
z
M 1403 2484 
Q 997 2584 770 2862 
Q 544 3141 544 3541 
Q 544 4100 942 4425 
Q 1341 4750 2034 4750 
Q 2731 4750 3128 4425 
Q 3525 4100 3525 3541 
Q 3525 3141 3298 2862 
Q 3072 2584 2669 2484 
Q 3125 2378 3379 2068 
Q 3634 1759 3634 1313 
Q 3634 634 3220 271 
Q 2806 -91 2034 -91 
Q 1263 -91 848 271 
Q 434 634 434 1313 
Q 434 1759 690 2068 
Q 947 2378 1403 2484 
z
M 1172 3481 
Q 1172 3119 1398 2916 
Q 1625 2713 2034 2713 
Q 2441 2713 2670 2916 
Q 2900 3119 2900 3481 
Q 2900 3844 2670 4047 
Q 2441 4250 2034 4250 
Q 1625 4250 1398 4047 
Q 1172 3844 1172 3481 
z
" transform="scale(0.015625)"/>
       </defs>
       <use xlink:href="#DejaVuSans-38"/>
       <use xlink:href="#DejaVuSans-30" transform="translate(63.623047 0)"/>
      </g>
     </g>
    </g>
    <g id="text_6">
     <!-- j -->
     <g transform="translate(232.949063 316.706687) scale(0.1 -0.1)">
      <defs>
       <path id="DejaVuSans-6a" d="M 603 3500 
L 1178 3500 
L 1178 -63 
Q 1178 -731 923 -1031 
Q 669 -1331 103 -1331 
L -116 -1331 
L -116 -844 
L 38 -844 
Q 366 -844 484 -692 
Q 603 -541 603 -63 
L 603 3500 
z
M 603 4863 
L 1178 4863 
L 1178 4134 
L 603 4134 
L 603 4863 
z
" transform="scale(0.015625)"/>
      </defs>
      <use xlink:href="#DejaVuSans-6a"/>
     </g>
    </g>
   </g>
   <g id="matplotlib.axis_2">
    <g id="ytick_1">
     <g id="line2d_6">
      <defs>
       <path id="m025546f78e" d="M 0 0 
L -3.5 0 
" style="stroke: #000000; stroke-width: 0.8"/>
      </defs>
      <g>
       <use xlink:href="#m025546f78e" x="55.778125" y="265.323232" style="stroke: #000000; stroke-width: 0.8"/>
      </g>
     </g>
     <g id="text_7">
      <!-- $\mathdefault{10^{-23}}$ -->
      <g transform="translate(20.878125 269.12245) scale(0.1 -0.1)">
       <defs>
        <path id="DejaVuSans-31" d="M 794 531 
L 1825 531 
L 1825 4091 
L 703 3866 
L 703 4441 
L 1819 4666 
L 2450 4666 
L 2450 531 
L 3481 531 
L 3481 0 
L 794 0 
L 794 531 
z
" transform="scale(0.015625)"/>
        <path id="DejaVuSans-2212" d="M 678 2272 
L 4684 2272 
L 4684 1741 
L 678 1741 
L 678 2272 
z
" transform="scale(0.015625)"/>
        <path id="DejaVuSans-33" d="M 2597 2516 
Q 3050 2419 3304 2112 
Q 3559 1806 3559 1356 
Q 3559 666 3084 287 
Q 2609 -91 1734 -91 
Q 1441 -91 1130 -33 
Q 819 25 488 141 
L 488 750 
Q 750 597 1062 519 
Q 1375 441 1716 441 
Q 2309 441 2620 675 
Q 2931 909 2931 1356 
Q 2931 1769 2642 2001 
Q 2353 2234 1838 2234 
L 1294 2234 
L 1294 2753 
L 1863 2753 
Q 2328 2753 2575 2939 
Q 2822 3125 2822 3475 
Q 2822 3834 2567 4026 
Q 2313 4219 1838 4219 
Q 1578 4219 1281 4162 
Q 984 4106 628 3988 
L 628 4550 
Q 988 4650 1302 4700 
Q 1616 4750 1894 4750 
Q 2613 4750 3031 4423 
Q 3450 4097 3450 3541 
Q 3450 3153 3228 2886 
Q 3006 2619 2597 2516 
z
" transform="scale(0.015625)"/>
       </defs>
       <use xlink:href="#DejaVuSans-31" transform="translate(0 0.765625)"/>
       <use xlink:href="#DejaVuSans-30" transform="translate(63.623047 0.765625)"/>
       <use xlink:href="#DejaVuSans-2212" transform="translate(128.203125 39.046875) scale(0.7)"/>
       <use xlink:href="#DejaVuSans-32" transform="translate(186.855469 39.046875) scale(0.7)"/>
       <use xlink:href="#DejaVuSans-33" transform="translate(231.391602 39.046875) scale(0.7)"/>
      </g>
     </g>
    </g>
    <g id="ytick_2">
     <g id="line2d_7">
      <g>
       <use xlink:href="#m025546f78e" x="55.778125" y="234.805225" style="stroke: #000000; stroke-width: 0.8"/>
      </g>
     </g>
     <g id="text_8">
      <!-- $\mathdefault{10^{-20}}$ -->
      <g transform="translate(20.878125 238.604444) scale(0.1 -0.1)">
       <use xlink:href="#DejaVuSans-31" transform="translate(0 0.765625)"/>
       <use xlink:href="#DejaVuSans-30" transform="translate(63.623047 0.765625)"/>
       <use xlink:href="#DejaVuSans-2212" transform="translate(128.203125 39.046875) scale(0.7)"/>
       <use xlink:href="#DejaVuSans-32" transform="translate(186.855469 39.046875) scale(0.7)"/>
       <use xlink:href="#DejaVuSans-30" transform="translate(231.391602 39.046875) scale(0.7)"/>
      </g>
     </g>
    </g>
    <g id="ytick_3">
     <g id="line2d_8">
      <g>
       <use xlink:href="#m025546f78e" x="55.778125" y="204.287218" style="stroke: #000000; stroke-width: 0.8"/>
      </g>
     </g>
     <g id="text_9">
      <!-- $\mathdefault{10^{-17}}$ -->
      <g transform="translate(20.878125 208.086437) scale(0.1 -0.1)">
       <defs>
        <path id="DejaVuSans-37" d="M 525 4666 
L 3525 4666 
L 3525 4397 
L 1831 0 
L 1172 0 
L 2766 4134 
L 525 4134 
L 525 4666 
z
" transform="scale(0.015625)"/>
       </defs>
       <use xlink:href="#DejaVuSans-31" transform="translate(0 0.684375)"/>
       <use xlink:href="#DejaVuSans-30" transform="translate(63.623047 0.684375)"/>
       <use xlink:href="#DejaVuSans-2212" transform="translate(128.203125 38.965625) scale(0.7)"/>
       <use xlink:href="#DejaVuSans-31" transform="translate(186.855469 38.965625) scale(0.7)"/>
       <use xlink:href="#DejaVuSans-37" transform="translate(231.391602 38.965625) scale(0.7)"/>
      </g>
     </g>
    </g>
    <g id="ytick_4">
     <g id="line2d_9">
      <g>
       <use xlink:href="#m025546f78e" x="55.778125" y="173.769211" style="stroke: #000000; stroke-width: 0.8"/>
      </g>
     </g>
     <g id="text_10">
      <!-- $\mathdefault{10^{-14}}$ -->
      <g transform="translate(20.878125 177.56843) scale(0.1 -0.1)">
       <use xlink:href="#DejaVuSans-31" transform="translate(0 0.684375)"/>
       <use xlink:href="#DejaVuSans-30" transform="translate(63.623047 0.684375)"/>
       <use xlink:href="#DejaVuSans-2212" transform="translate(128.203125 38.965625) scale(0.7)"/>
       <use xlink:href="#DejaVuSans-31" transform="translate(186.855469 38.965625) scale(0.7)"/>
       <use xlink:href="#DejaVuSans-34" transform="translate(231.391602 38.965625) scale(0.7)"/>
      </g>
     </g>
    </g>
    <g id="ytick_5">
     <g id="line2d_10">
      <g>
       <use xlink:href="#m025546f78e" x="55.778125" y="143.251205" style="stroke: #000000; stroke-width: 0.8"/>
      </g>
     </g>
     <g id="text_11">
      <!-- $\mathdefault{10^{-11}}$ -->
      <g transform="translate(20.878125 147.050423) scale(0.1 -0.1)">
       <use xlink:href="#DejaVuSans-31" transform="translate(0 0.684375)"/>
       <use xlink:href="#DejaVuSans-30" transform="translate(63.623047 0.684375)"/>
       <use xlink:href="#DejaVuSans-2212" transform="translate(128.203125 38.965625) scale(0.7)"/>
       <use xlink:href="#DejaVuSans-31" transform="translate(186.855469 38.965625) scale(0.7)"/>
       <use xlink:href="#DejaVuSans-31" transform="translate(231.391602 38.965625) scale(0.7)"/>
      </g>
     </g>
    </g>
    <g id="ytick_6">
     <g id="line2d_11">
      <g>
       <use xlink:href="#m025546f78e" x="55.778125" y="112.733198" style="stroke: #000000; stroke-width: 0.8"/>
      </g>
     </g>
     <g id="text_12">
      <!-- $\mathdefault{10^{-8}}$ -->
      <g transform="translate(25.278125 116.532417) scale(0.1 -0.1)">
       <use xlink:href="#DejaVuSans-31" transform="translate(0 0.765625)"/>
       <use xlink:href="#DejaVuSans-30" transform="translate(63.623047 0.765625)"/>
       <use xlink:href="#DejaVuSans-2212" transform="translate(128.203125 39.046875) scale(0.7)"/>
       <use xlink:href="#DejaVuSans-38" transform="translate(186.855469 39.046875) scale(0.7)"/>
      </g>
     </g>
    </g>
    <g id="ytick_7">
     <g id="line2d_12">
      <g>
       <use xlink:href="#m025546f78e" x="55.778125" y="82.215191" style="stroke: #000000; stroke-width: 0.8"/>
      </g>
     </g>
     <g id="text_13">
      <!-- $\mathdefault{10^{-5}}$ -->
      <g transform="translate(25.278125 86.01441) scale(0.1 -0.1)">
       <defs>
        <path id="DejaVuSans-35" d="M 691 4666 
L 3169 4666 
L 3169 4134 
L 1269 4134 
L 1269 2991 
Q 1406 3038 1543 3061 
Q 1681 3084 1819 3084 
Q 2600 3084 3056 2656 
Q 3513 2228 3513 1497 
Q 3513 744 3044 326 
Q 2575 -91 1722 -91 
Q 1428 -91 1123 -41 
Q 819 9 494 109 
L 494 744 
Q 775 591 1075 516 
Q 1375 441 1709 441 
Q 2250 441 2565 725 
Q 2881 1009 2881 1497 
Q 2881 1984 2565 2268 
Q 2250 2553 1709 2553 
Q 1456 2553 1204 2497 
Q 953 2441 691 2322 
L 691 4666 
z
" transform="scale(0.015625)"/>
       </defs>
       <use xlink:href="#DejaVuSans-31" transform="translate(0 0.684375)"/>
       <use xlink:href="#DejaVuSans-30" transform="translate(63.623047 0.684375)"/>
       <use xlink:href="#DejaVuSans-2212" transform="translate(128.203125 38.965625) scale(0.7)"/>
       <use xlink:href="#DejaVuSans-35" transform="translate(186.855469 38.965625) scale(0.7)"/>
      </g>
     </g>
    </g>
    <g id="ytick_8">
     <g id="line2d_13">
      <g>
       <use xlink:href="#m025546f78e" x="55.778125" y="51.697184" style="stroke: #000000; stroke-width: 0.8"/>
      </g>
     </g>
     <g id="text_14">
      <!-- $\mathdefault{10^{-2}}$ -->
      <g transform="translate(25.278125 55.496403) scale(0.1 -0.1)">
       <use xlink:href="#DejaVuSans-31" transform="translate(0 0.765625)"/>
       <use xlink:href="#DejaVuSans-30" transform="translate(63.623047 0.765625)"/>
       <use xlink:href="#DejaVuSans-2212" transform="translate(128.203125 39.046875) scale(0.7)"/>
       <use xlink:href="#DejaVuSans-32" transform="translate(186.855469 39.046875) scale(0.7)"/>
      </g>
     </g>
    </g>
    <g id="text_15">
     <!-- $r_{jj}$ -->
     <g transform="translate(13.778125 159.524125) rotate(-90) scale(0.1 -0.1)">
      <defs>
       <path id="DejaVuSans-Oblique-72" d="M 2853 2969 
Q 2766 3016 2653 3041 
Q 2541 3066 2413 3066 
Q 1953 3066 1609 2717 
Q 1266 2369 1153 1784 
L 800 0 
L 225 0 
L 909 3500 
L 1484 3500 
L 1375 2956 
Q 1603 3259 1920 3421 
Q 2238 3584 2597 3584 
Q 2691 3584 2781 3573 
Q 2872 3563 2963 3538 
L 2853 2969 
z
" transform="scale(0.015625)"/>
       <path id="DejaVuSans-Oblique-6a" d="M 928 3500 
L 1503 3500 
L 813 -63 
L 809 -78 
Q 694 -675 544 -897 
Q 403 -1106 132 -1218 
Q -138 -1331 -506 -1331 
L -722 -1331 
L -628 -844 
L -481 -844 
Q -144 -844 -1 -703 
Q 141 -563 238 -63 
L 928 3500 
z
M 1197 4863 
L 1772 4863 
L 1631 4134 
L 1056 4134 
L 1197 4863 
z
" transform="scale(0.015625)"/>
      </defs>
      <use xlink:href="#DejaVuSans-Oblique-72"/>
      <use xlink:href="#DejaVuSans-Oblique-6a" transform="translate(41.113281 -16.40625) scale(0.7)"/>
      <use xlink:href="#DejaVuSans-Oblique-6a" transform="translate(60.561523 -16.40625) scale(0.7)"/>
     </g>
    </g>
   </g>
   <g id="line2d_14">
    <defs>
     <path id="mdbb2af76d3" d="M 0 3 
C 0.795609 3 1.55874 2.683901 2.12132 2.12132 
C 2.683901 1.55874 3 0.795609 3 0 
C 3 -0.795609 2.683901 -1.55874 2.12132 -2.12132 
C 1.55874 -2.683901 0.795609 -3 0 -3 
C -0.795609 -3 -1.55874 -2.683901 -2.12132 -2.12132 
C -2.683901 -1.55874 -3 -0.795609 -3 0 
C -3 0.795609 -2.683901 1.55874 -2.12132 2.12132 
C -1.55874 2.683901 -0.795609 3 0 3 
z
" style="stroke: #1f77b4"/>
    </defs>
    <g clip-path="url(#p2c18bdf5a4)">
     <use xlink:href="#mdbb2af76d3" x="55.778125" y="43.643721" style="fill: #1f77b4; stroke: #1f77b4"/>
     <use xlink:href="#mdbb2af76d3" x="59.537283" y="47.541042" style="fill: #1f77b4; stroke: #1f77b4"/>
     <use xlink:href="#mdbb2af76d3" x="63.296441" y="46.292281" style="fill: #1f77b4; stroke: #1f77b4"/>
     <use xlink:href="#mdbb2af76d3" x="67.055599" y="53.202725" style="fill: #1f77b4; stroke: #1f77b4"/>
     <use xlink:href="#mdbb2af76d3" x="70.814757" y="52.666645" style="fill: #1f77b4; stroke: #1f77b4"/>
     <use xlink:href="#mdbb2af76d3" x="74.573914" y="52.042699" style="fill: #1f77b4; stroke: #1f77b4"/>
     <use xlink:href="#mdbb2af76d3" x="78.333072" y="61.075915" style="fill: #1f77b4; stroke: #1f77b4"/>
     <use xlink:href="#mdbb2af76d3" x="82.09223" y="59.397988" style="fill: #1f77b4; stroke: #1f77b4"/>
     <use xlink:href="#mdbb2af76d3" x="85.851388" y="63.385741" style="fill: #1f77b4; stroke: #1f77b4"/>
     <use xlink:href="#mdbb2af76d3" x="89.610546" y="65.374354" style="fill: #1f77b4; stroke: #1f77b4"/>
     <use xlink:href="#mdbb2af76d3" x="93.369704" y="68.884124" style="fill: #1f77b4; stroke: #1f77b4"/>
     <use xlink:href="#mdbb2af76d3" x="97.128862" y="74.031446" style="fill: #1f77b4; stroke: #1f77b4"/>
     <use xlink:href="#mdbb2af76d3" x="100.88802" y="71.108423" style="fill: #1f77b4; stroke: #1f77b4"/>
     <use xlink:href="#mdbb2af76d3" x="104.647178" y="72.904003" style="fill: #1f77b4; stroke: #1f77b4"/>
     <use xlink:href="#mdbb2af76d3" x="108.406336" y="76.958243" style="fill: #1f77b4; stroke: #1f77b4"/>
     <use xlink:href="#mdbb2af76d3" x="112.165493" y="90.939113" style="fill: #1f77b4; stroke: #1f77b4"/>
     <use xlink:href="#mdbb2af76d3" x="115.924651" y="85.661491" style="fill: #1f77b4; stroke: #1f77b4"/>
     <use xlink:href="#mdbb2af76d3" x="119.683809" y="86.398191" style="fill: #1f77b4; stroke: #1f77b4"/>
     <use xlink:href="#mdbb2af76d3" x="123.442967" y="91.884248" style="fill: #1f77b4; stroke: #1f77b4"/>
     <use xlink:href="#mdbb2af76d3" x="127.202125" y="94.979227" style="fill: #1f77b4; stroke: #1f77b4"/>
     <use xlink:href="#mdbb2af76d3" x="130.961283" y="101.974217" style="fill: #1f77b4; stroke: #1f77b4"/>
     <use xlink:href="#mdbb2af76d3" x="134.720441" y="99.148025" style="fill: #1f77b4; stroke: #1f77b4"/>
     <use xlink:href="#mdbb2af76d3" x="138.479599" y="105.144869" style="fill: #1f77b4; stroke: #1f77b4"/>
     <use xlink:href="#mdbb2af76d3" x="142.238757" y="102.347749" style="fill: #1f77b4; stroke: #1f77b4"/>
     <use xlink:href="#mdbb2af76d3" x="145.997914" y="111.640411" style="fill: #1f77b4; stroke: #1f77b4"/>
     <use xlink:href="#mdbb2af76d3" x="149.757072" y="112.675498" style="fill: #1f77b4; stroke: #1f77b4"/>
     <use xlink:href="#mdbb2af76d3" x="153.51623" y="110.729762" style="fill: #1f77b4; stroke: #1f77b4"/>
     <use xlink:href="#mdbb2af76d3" x="157.275388" y="106.968941" style="fill: #1f77b4; stroke: #1f77b4"/>
     <use xlink:href="#mdbb2af76d3" x="161.034546" y="111.248439" style="fill: #1f77b4; stroke: #1f77b4"/>
     <use xlink:href="#mdbb2af76d3" x="164.793704" y="114.23074" style="fill: #1f77b4; stroke: #1f77b4"/>
     <use xlink:href="#mdbb2af76d3" x="168.552862" y="108.724049" style="fill: #1f77b4; stroke: #1f77b4"/>
     <use xlink:href="#mdbb2af76d3" x="172.31202" y="108.900488" style="fill: #1f77b4; stroke: #1f77b4"/>
     <use xlink:href="#mdbb2af76d3" x="176.071178" y="106.671381" style="fill: #1f77b4; stroke: #1f77b4"/>
     <use xlink:href="#mdbb2af76d3" x="179.830336" y="106.360982" style="fill: #1f77b4; stroke: #1f77b4"/>
     <use xlink:href="#mdbb2af76d3" x="183.589493" y="106.501265" style="fill: #1f77b4; stroke: #1f77b4"/>
     <use xlink:href="#mdbb2af76d3" x="187.348651" y="103.686399" style="fill: #1f77b4; stroke: #1f77b4"/>
     <use xlink:href="#mdbb2af76d3" x="191.107809" y="105.253223" style="fill: #1f77b4; stroke: #1f77b4"/>
     <use xlink:href="#mdbb2af76d3" x="194.866967" y="99.868417" style="fill: #1f77b4; stroke: #1f77b4"/>
     <use xlink:href="#mdbb2af76d3" x="198.626125" y="99.480711" style="fill: #1f77b4; stroke: #1f77b4"/>
     <use xlink:href="#mdbb2af76d3" x="202.385283" y="98.741304" style="fill: #1f77b4; stroke: #1f77b4"/>
     <use xlink:href="#mdbb2af76d3" x="206.144441" y="98.101533" style="fill: #1f77b4; stroke: #1f77b4"/>
     <use xlink:href="#mdbb2af76d3" x="209.903599" y="102.539801" style="fill: #1f77b4; stroke: #1f77b4"/>
     <use xlink:href="#mdbb2af76d3" x="213.662757" y="106.286783" style="fill: #1f77b4; stroke: #1f77b4"/>
     <use xlink:href="#mdbb2af76d3" x="217.421914" y="105.663011" style="fill: #1f77b4; stroke: #1f77b4"/>
     <use xlink:href="#mdbb2af76d3" x="221.181072" y="97.450838" style="fill: #1f77b4; stroke: #1f77b4"/>
     <use xlink:href="#mdbb2af76d3" x="224.94023" y="103.378176" style="fill: #1f77b4; stroke: #1f77b4"/>
     <use xlink:href="#mdbb2af76d3" x="228.699388" y="100.813517" style="fill: #1f77b4; stroke: #1f77b4"/>
     <use xlink:href="#mdbb2af76d3" x="232.458546" y="98.691345" style="fill: #1f77b4; stroke: #1f77b4"/>
     <use xlink:href="#mdbb2af76d3" x="236.217704" y="102.243087" style="fill: #1f77b4; stroke: #1f77b4"/>
     <use xlink:href="#mdbb2af76d3" x="239.976862" y="95.884304" style="fill: #1f77b4; stroke: #1f77b4"/>
     <use xlink:href="#mdbb2af76d3" x="243.73602" y="98.917636" style="fill: #1f77b4; stroke: #1f77b4"/>
     <use xlink:href="#mdbb2af76d3" x="247.495178" y="95.262759" style="fill: #1f77b4; stroke: #1f77b4"/>
     <use xlink:href="#mdbb2af76d3" x="251.254336" y="98.130693" style="fill: #1f77b4; stroke: #1f77b4"/>
     <use xlink:href="#mdbb2af76d3" x="255.013493" y="96.823375" style="fill: #1f77b4; stroke: #1f77b4"/>
     <use xlink:href="#mdbb2af76d3" x="258.772651" y="97.728832" style="fill: #1f77b4; stroke: #1f77b4"/>
     <use xlink:href="#mdbb2af76d3" x="262.531809" y="94.627051" style="fill: #1f77b4; stroke: #1f77b4"/>
     <use xlink:href="#mdbb2af76d3" x="266.290967" y="102.46104" style="fill: #1f77b4; stroke: #1f77b4"/>
     <use xlink:href="#mdbb2af76d3" x="270.050125" y="102.661012" style="fill: #1f77b4; stroke: #1f77b4"/>
     <use xlink:href="#mdbb2af76d3" x="273.809283" y="98.901953" style="fill: #1f77b4; stroke: #1f77b4"/>
     <use xlink:href="#mdbb2af76d3" x="277.568441" y="96.318073" style="fill: #1f77b4; stroke: #1f77b4"/>
     <use xlink:href="#mdbb2af76d3" x="281.327599" y="93.740904" style="fill: #1f77b4; stroke: #1f77b4"/>
     <use xlink:href="#mdbb2af76d3" x="285.086757" y="98.839856" style="fill: #1f77b4; stroke: #1f77b4"/>
     <use xlink:href="#mdbb2af76d3" x="288.845914" y="101.194465" style="fill: #1f77b4; stroke: #1f77b4"/>
     <use xlink:href="#mdbb2af76d3" x="292.605072" y="99.3386" style="fill: #1f77b4; stroke: #1f77b4"/>
     <use xlink:href="#mdbb2af76d3" x="296.36423" y="99.241584" style="fill: #1f77b4; stroke: #1f77b4"/>
     <use xlink:href="#mdbb2af76d3" x="300.123388" y="98.398375" style="fill: #1f77b4; stroke: #1f77b4"/>
     <use xlink:href="#mdbb2af76d3" x="303.882546" y="98.228146" style="fill: #1f77b4; stroke: #1f77b4"/>
     <use xlink:href="#mdbb2af76d3" x="307.641704" y="96.112802" style="fill: #1f77b4; stroke: #1f77b4"/>
     <use xlink:href="#mdbb2af76d3" x="311.400862" y="96.524816" style="fill: #1f77b4; stroke: #1f77b4"/>
     <use xlink:href="#mdbb2af76d3" x="315.16002" y="99.109367" style="fill: #1f77b4; stroke: #1f77b4"/>
     <use xlink:href="#mdbb2af76d3" x="318.919178" y="99.236541" style="fill: #1f77b4; stroke: #1f77b4"/>
     <use xlink:href="#mdbb2af76d3" x="322.678336" y="90.840107" style="fill: #1f77b4; stroke: #1f77b4"/>
     <use xlink:href="#mdbb2af76d3" x="326.437493" y="90.962405" style="fill: #1f77b4; stroke: #1f77b4"/>
     <use xlink:href="#mdbb2af76d3" x="330.196651" y="100.798735" style="fill: #1f77b4; stroke: #1f77b4"/>
     <use xlink:href="#mdbb2af76d3" x="333.955809" y="100.087759" style="fill: #1f77b4; stroke: #1f77b4"/>
     <use xlink:href="#mdbb2af76d3" x="337.714967" y="91.800389" style="fill: #1f77b4; stroke: #1f77b4"/>
     <use xlink:href="#mdbb2af76d3" x="341.474125" y="96.071181" style="fill: #1f77b4; stroke: #1f77b4"/>
     <use xlink:href="#mdbb2af76d3" x="345.233283" y="93.637917" style="fill: #1f77b4; stroke: #1f77b4"/>
     <use xlink:href="#mdbb2af76d3" x="348.992441" y="101.159341" style="fill: #1f77b4; stroke: #1f77b4"/>
     <use xlink:href="#mdbb2af76d3" x="352.751599" y="98.862174" style="fill: #1f77b4; stroke: #1f77b4"/>
    </g>
   </g>
   <g id="line2d_15">
    <defs>
     <path id="m12dbcb9eb0" d="M 0 -3 
L -0.673542 -0.927051 
L -2.85317 -0.927051 
L -1.089814 0.354102 
L -1.763356 2.427051 
L -0 1.145898 
L 1.763356 2.427051 
L 1.089814 0.354102 
L 2.85317 -0.927051 
L 0.673542 -0.927051 
z
" style="stroke: #ff7f0e; stroke-linejoin: bevel"/>
    </defs>
    <g clip-path="url(#p2c18bdf5a4)">
     <use xlink:href="#m12dbcb9eb0" x="55.778125" y="43.643721" style="fill: #ff7f0e; stroke: #ff7f0e; stroke-linejoin: bevel"/>
     <use xlink:href="#m12dbcb9eb0" x="59.537283" y="47.541042" style="fill: #ff7f0e; stroke: #ff7f0e; stroke-linejoin: bevel"/>
     <use xlink:href="#m12dbcb9eb0" x="63.296441" y="46.292281" style="fill: #ff7f0e; stroke: #ff7f0e; stroke-linejoin: bevel"/>
     <use xlink:href="#m12dbcb9eb0" x="67.055599" y="53.202725" style="fill: #ff7f0e; stroke: #ff7f0e; stroke-linejoin: bevel"/>
     <use xlink:href="#m12dbcb9eb0" x="70.814757" y="52.666645" style="fill: #ff7f0e; stroke: #ff7f0e; stroke-linejoin: bevel"/>
     <use xlink:href="#m12dbcb9eb0" x="74.573914" y="52.042699" style="fill: #ff7f0e; stroke: #ff7f0e; stroke-linejoin: bevel"/>
     <use xlink:href="#m12dbcb9eb0" x="78.333072" y="61.075915" style="fill: #ff7f0e; stroke: #ff7f0e; stroke-linejoin: bevel"/>
     <use xlink:href="#m12dbcb9eb0" x="82.09223" y="59.397988" style="fill: #ff7f0e; stroke: #ff7f0e; stroke-linejoin: bevel"/>
     <use xlink:href="#m12dbcb9eb0" x="85.851388" y="63.385741" style="fill: #ff7f0e; stroke: #ff7f0e; stroke-linejoin: bevel"/>
     <use xlink:href="#m12dbcb9eb0" x="89.610546" y="65.374354" style="fill: #ff7f0e; stroke: #ff7f0e; stroke-linejoin: bevel"/>
     <use xlink:href="#m12dbcb9eb0" x="93.369704" y="68.884124" style="fill: #ff7f0e; stroke: #ff7f0e; stroke-linejoin: bevel"/>
     <use xlink:href="#m12dbcb9eb0" x="97.128862" y="74.031446" style="fill: #ff7f0e; stroke: #ff7f0e; stroke-linejoin: bevel"/>
     <use xlink:href="#m12dbcb9eb0" x="100.88802" y="71.108423" style="fill: #ff7f0e; stroke: #ff7f0e; stroke-linejoin: bevel"/>
     <use xlink:href="#m12dbcb9eb0" x="104.647178" y="72.904003" style="fill: #ff7f0e; stroke: #ff7f0e; stroke-linejoin: bevel"/>
     <use xlink:href="#m12dbcb9eb0" x="108.406336" y="76.958243" style="fill: #ff7f0e; stroke: #ff7f0e; stroke-linejoin: bevel"/>
     <use xlink:href="#m12dbcb9eb0" x="112.165493" y="90.939113" style="fill: #ff7f0e; stroke: #ff7f0e; stroke-linejoin: bevel"/>
     <use xlink:href="#m12dbcb9eb0" x="115.924651" y="85.661491" style="fill: #ff7f0e; stroke: #ff7f0e; stroke-linejoin: bevel"/>
     <use xlink:href="#m12dbcb9eb0" x="119.683809" y="86.398191" style="fill: #ff7f0e; stroke: #ff7f0e; stroke-linejoin: bevel"/>
     <use xlink:href="#m12dbcb9eb0" x="123.442967" y="91.884248" style="fill: #ff7f0e; stroke: #ff7f0e; stroke-linejoin: bevel"/>
     <use xlink:href="#m12dbcb9eb0" x="127.202125" y="94.979227" style="fill: #ff7f0e; stroke: #ff7f0e; stroke-linejoin: bevel"/>
     <use xlink:href="#m12dbcb9eb0" x="130.961283" y="101.974237" style="fill: #ff7f0e; stroke: #ff7f0e; stroke-linejoin: bevel"/>
     <use xlink:href="#m12dbcb9eb0" x="134.720441" y="99.148086" style="fill: #ff7f0e; stroke: #ff7f0e; stroke-linejoin: bevel"/>
     <use xlink:href="#m12dbcb9eb0" x="138.479599" y="105.14557" style="fill: #ff7f0e; stroke: #ff7f0e; stroke-linejoin: bevel"/>
     <use xlink:href="#m12dbcb9eb0" x="142.238757" y="102.349506" style="fill: #ff7f0e; stroke: #ff7f0e; stroke-linejoin: bevel"/>
     <use xlink:href="#m12dbcb9eb0" x="145.997914" y="111.753367" style="fill: #ff7f0e; stroke: #ff7f0e; stroke-linejoin: bevel"/>
     <use xlink:href="#m12dbcb9eb0" x="149.757072" y="113.61078" style="fill: #ff7f0e; stroke: #ff7f0e; stroke-linejoin: bevel"/>
     <use xlink:href="#m12dbcb9eb0" x="153.51623" y="118.853419" style="fill: #ff7f0e; stroke: #ff7f0e; stroke-linejoin: bevel"/>
     <use xlink:href="#m12dbcb9eb0" x="157.275388" y="114.051005" style="fill: #ff7f0e; stroke: #ff7f0e; stroke-linejoin: bevel"/>
     <use xlink:href="#m12dbcb9eb0" x="161.034546" y="129.345194" style="fill: #ff7f0e; stroke: #ff7f0e; stroke-linejoin: bevel"/>
     <use xlink:href="#m12dbcb9eb0" x="164.793704" y="128.271098" style="fill: #ff7f0e; stroke: #ff7f0e; stroke-linejoin: bevel"/>
     <use xlink:href="#m12dbcb9eb0" x="168.552862" y="133.488074" style="fill: #ff7f0e; stroke: #ff7f0e; stroke-linejoin: bevel"/>
     <use xlink:href="#m12dbcb9eb0" x="172.31202" y="126.406397" style="fill: #ff7f0e; stroke: #ff7f0e; stroke-linejoin: bevel"/>
     <use xlink:href="#m12dbcb9eb0" x="176.071178" y="131.117508" style="fill: #ff7f0e; stroke: #ff7f0e; stroke-linejoin: bevel"/>
     <use xlink:href="#m12dbcb9eb0" x="179.830336" y="136.012799" style="fill: #ff7f0e; stroke: #ff7f0e; stroke-linejoin: bevel"/>
     <use xlink:href="#m12dbcb9eb0" x="183.589493" y="141.226375" style="fill: #ff7f0e; stroke: #ff7f0e; stroke-linejoin: bevel"/>
     <use xlink:href="#m12dbcb9eb0" x="187.348651" y="140.691009" style="fill: #ff7f0e; stroke: #ff7f0e; stroke-linejoin: bevel"/>
     <use xlink:href="#m12dbcb9eb0" x="191.107809" y="147.255705" style="fill: #ff7f0e; stroke: #ff7f0e; stroke-linejoin: bevel"/>
     <use xlink:href="#m12dbcb9eb0" x="194.866967" y="143.054515" style="fill: #ff7f0e; stroke: #ff7f0e; stroke-linejoin: bevel"/>
     <use xlink:href="#m12dbcb9eb0" x="198.626125" y="152.127514" style="fill: #ff7f0e; stroke: #ff7f0e; stroke-linejoin: bevel"/>
     <use xlink:href="#m12dbcb9eb0" x="202.385283" y="151.180119" style="fill: #ff7f0e; stroke: #ff7f0e; stroke-linejoin: bevel"/>
     <use xlink:href="#m12dbcb9eb0" x="206.144441" y="155.95438" style="fill: #ff7f0e; stroke: #ff7f0e; stroke-linejoin: bevel"/>
     <use xlink:href="#m12dbcb9eb0" x="209.903599" y="157.847089" style="fill: #ff7f0e; stroke: #ff7f0e; stroke-linejoin: bevel"/>
     <use xlink:href="#m12dbcb9eb0" x="213.662757" y="164.114396" style="fill: #ff7f0e; stroke: #ff7f0e; stroke-linejoin: bevel"/>
     <use xlink:href="#m12dbcb9eb0" x="217.421914" y="167.488752" style="fill: #ff7f0e; stroke: #ff7f0e; stroke-linejoin: bevel"/>
     <use xlink:href="#m12dbcb9eb0" x="221.181072" y="170.551211" style="fill: #ff7f0e; stroke: #ff7f0e; stroke-linejoin: bevel"/>
     <use xlink:href="#m12dbcb9eb0" x="224.94023" y="169.918079" style="fill: #ff7f0e; stroke: #ff7f0e; stroke-linejoin: bevel"/>
     <use xlink:href="#m12dbcb9eb0" x="228.699388" y="177.554954" style="fill: #ff7f0e; stroke: #ff7f0e; stroke-linejoin: bevel"/>
     <use xlink:href="#m12dbcb9eb0" x="232.458546" y="176.896793" style="fill: #ff7f0e; stroke: #ff7f0e; stroke-linejoin: bevel"/>
     <use xlink:href="#m12dbcb9eb0" x="236.217704" y="182.556512" style="fill: #ff7f0e; stroke: #ff7f0e; stroke-linejoin: bevel"/>
     <use xlink:href="#m12dbcb9eb0" x="239.976862" y="183.410709" style="fill: #ff7f0e; stroke: #ff7f0e; stroke-linejoin: bevel"/>
     <use xlink:href="#m12dbcb9eb0" x="243.73602" y="190.576864" style="fill: #ff7f0e; stroke: #ff7f0e; stroke-linejoin: bevel"/>
     <use xlink:href="#m12dbcb9eb0" x="247.495178" y="185.852948" style="fill: #ff7f0e; stroke: #ff7f0e; stroke-linejoin: bevel"/>
     <use xlink:href="#m12dbcb9eb0" x="251.254336" y="187.30425" style="fill: #ff7f0e; stroke: #ff7f0e; stroke-linejoin: bevel"/>
     <use xlink:href="#m12dbcb9eb0" x="255.013493" y="192.483305" style="fill: #ff7f0e; stroke: #ff7f0e; stroke-linejoin: bevel"/>
     <use xlink:href="#m12dbcb9eb0" x="258.772651" y="190.309357" style="fill: #ff7f0e; stroke: #ff7f0e; stroke-linejoin: bevel"/>
     <use xlink:href="#m12dbcb9eb0" x="262.531809" y="196.582932" style="fill: #ff7f0e; stroke: #ff7f0e; stroke-linejoin: bevel"/>
     <use xlink:href="#m12dbcb9eb0" x="266.290967" y="196.797617" style="fill: #ff7f0e; stroke: #ff7f0e; stroke-linejoin: bevel"/>
     <use xlink:href="#m12dbcb9eb0" x="270.050125" y="194.368306" style="fill: #ff7f0e; stroke: #ff7f0e; stroke-linejoin: bevel"/>
     <use xlink:href="#m12dbcb9eb0" x="273.809283" y="197.834581" style="fill: #ff7f0e; stroke: #ff7f0e; stroke-linejoin: bevel"/>
     <use xlink:href="#m12dbcb9eb0" x="277.568441" y="196.349844" style="fill: #ff7f0e; stroke: #ff7f0e; stroke-linejoin: bevel"/>
     <use xlink:href="#m12dbcb9eb0" x="281.327599" y="201.424167" style="fill: #ff7f0e; stroke: #ff7f0e; stroke-linejoin: bevel"/>
     <use xlink:href="#m12dbcb9eb0" x="285.086757" y="197.270414" style="fill: #ff7f0e; stroke: #ff7f0e; stroke-linejoin: bevel"/>
     <use xlink:href="#m12dbcb9eb0" x="288.845914" y="197.180612" style="fill: #ff7f0e; stroke: #ff7f0e; stroke-linejoin: bevel"/>
     <use xlink:href="#m12dbcb9eb0" x="292.605072" y="197.940272" style="fill: #ff7f0e; stroke: #ff7f0e; stroke-linejoin: bevel"/>
     <use xlink:href="#m12dbcb9eb0" x="296.36423" y="199.377367" style="fill: #ff7f0e; stroke: #ff7f0e; stroke-linejoin: bevel"/>
     <use xlink:href="#m12dbcb9eb0" x="300.123388" y="197.644487" style="fill: #ff7f0e; stroke: #ff7f0e; stroke-linejoin: bevel"/>
     <use xlink:href="#m12dbcb9eb0" x="303.882546" y="200.321258" style="fill: #ff7f0e; stroke: #ff7f0e; stroke-linejoin: bevel"/>
     <use xlink:href="#m12dbcb9eb0" x="307.641704" y="200.764864" style="fill: #ff7f0e; stroke: #ff7f0e; stroke-linejoin: bevel"/>
     <use xlink:href="#m12dbcb9eb0" x="311.400862" y="200.557933" style="fill: #ff7f0e; stroke: #ff7f0e; stroke-linejoin: bevel"/>
     <use xlink:href="#m12dbcb9eb0" x="315.16002" y="201.430671" style="fill: #ff7f0e; stroke: #ff7f0e; stroke-linejoin: bevel"/>
     <use xlink:href="#m12dbcb9eb0" x="318.919178" y="202.752874" style="fill: #ff7f0e; stroke: #ff7f0e; stroke-linejoin: bevel"/>
     <use xlink:href="#m12dbcb9eb0" x="322.678336" y="200.362813" style="fill: #ff7f0e; stroke: #ff7f0e; stroke-linejoin: bevel"/>
     <use xlink:href="#m12dbcb9eb0" x="326.437493" y="199.831553" style="fill: #ff7f0e; stroke: #ff7f0e; stroke-linejoin: bevel"/>
     <use xlink:href="#m12dbcb9eb0" x="330.196651" y="203.325154" style="fill: #ff7f0e; stroke: #ff7f0e; stroke-linejoin: bevel"/>
     <use xlink:href="#m12dbcb9eb0" x="333.955809" y="204.435411" style="fill: #ff7f0e; stroke: #ff7f0e; stroke-linejoin: bevel"/>
     <use xlink:href="#m12dbcb9eb0" x="337.714967" y="203.734052" style="fill: #ff7f0e; stroke: #ff7f0e; stroke-linejoin: bevel"/>
     <use xlink:href="#m12dbcb9eb0" x="341.474125" y="202.910301" style="fill: #ff7f0e; stroke: #ff7f0e; stroke-linejoin: bevel"/>
     <use xlink:href="#m12dbcb9eb0" x="345.233283" y="207.819189" style="fill: #ff7f0e; stroke: #ff7f0e; stroke-linejoin: bevel"/>
     <use xlink:href="#m12dbcb9eb0" x="348.992441" y="203.710478" style="fill: #ff7f0e; stroke: #ff7f0e; stroke-linejoin: bevel"/>
     <use xlink:href="#m12dbcb9eb0" x="352.751599" y="205.189651" style="fill: #ff7f0e; stroke: #ff7f0e; stroke-linejoin: bevel"/>
    </g>
   </g>
   <g id="line2d_16">
    <path d="M 55.778125 34.414125 
L 59.537283 37.476403 
L 63.296441 40.538682 
L 67.055599 43.60096 
L 70.814757 46.663239 
L 74.573914 49.725517 
L 78.333072 52.787796 
L 82.09223 55.850074 
L 85.851388 58.912353 
L 89.610546 61.974631 
L 93.369704 65.03691 
L 97.128862 68.099188 
L 100.88802 71.161467 
L 104.647178 74.223745 
L 108.406336 77.286024 
L 112.165493 80.348302 
L 115.924651 83.410581 
L 119.683809 86.472859 
L 123.442967 89.535138 
L 127.202125 92.597416 
L 130.961283 95.659695 
L 134.720441 98.721973 
L 138.479599 101.784252 
L 142.238757 104.84653 
L 145.997914 107.908809 
L 149.757072 110.971087 
L 153.51623 114.033366 
L 157.275388 117.095644 
L 161.034546 120.157922 
L 164.793704 123.220201 
L 168.552862 126.282479 
L 172.31202 129.344758 
L 176.071178 132.407036 
L 179.830336 135.469315 
L 183.589493 138.531593 
L 187.348651 141.593872 
L 191.107809 144.65615 
L 194.866967 147.718429 
L 198.626125 150.780707 
L 202.385283 153.842986 
L 206.144441 156.905264 
L 209.903599 159.967543 
L 213.662757 163.029821 
L 217.421914 166.0921 
L 221.181072 169.154378 
L 224.94023 172.216657 
L 228.699388 175.278935 
L 232.458546 178.341214 
L 236.217704 181.403492 
L 239.976862 184.465771 
L 243.73602 187.528049 
L 247.495178 190.590328 
L 251.254336 193.652606 
L 255.013493 196.714884 
L 258.772651 199.777163 
L 262.531809 202.839441 
L 266.290967 205.90172 
L 270.050125 208.963998 
L 273.809283 212.026277 
L 277.568441 215.088555 
L 281.327599 218.150834 
L 285.086757 221.213112 
L 288.845914 224.275391 
L 292.605072 227.337669 
L 296.36423 230.399948 
L 300.123388 233.462226 
L 303.882546 236.524505 
L 307.641704 239.586783 
L 311.400862 242.649062 
L 315.16002 245.71134 
L 318.919178 248.773619 
L 322.678336 251.835897 
L 326.437493 254.898176 
L 330.196651 257.960454 
L 333.955809 261.022733 
L 337.714967 264.085011 
L 341.474125 267.14729 
L 345.233283 270.209568 
L 348.992441 273.271847 
L 352.751599 276.334125 
" clip-path="url(#p2c18bdf5a4)" style="fill: none; stroke-dasharray: 5.55,2.4; stroke-dashoffset: 0; stroke: #2ca02c; stroke-width: 1.5"/>
   </g>
   <g id="line2d_17">
    <path d="M 55.778125 112.502226 
L 356.510757 112.502226 
" clip-path="url(#p2c18bdf5a4)" style="fill: none; stroke-dasharray: 5.55,2.4; stroke-dashoffset: 0; stroke: #d62728; stroke-width: 1.5"/>
   </g>
   <g id="line2d_18">
    <path d="M 55.778125 193.652606 
L 356.510757 193.652606 
" clip-path="url(#p2c18bdf5a4)" style="fill: none; stroke-dasharray: 5.55,2.4; stroke-dashoffset: 0; stroke: #9467bd; stroke-width: 1.5"/>
   </g>
   <g id="patch_3">
    <path d="M 55.778125 288.430125 
L 55.778125 22.318125 
" style="fill: none; stroke: #000000; stroke-width: 0.8; stroke-linejoin: miter; stroke-linecap: square"/>
   </g>
   <g id="patch_4">
    <path d="M 412.898125 288.430125 
L 412.898125 22.318125 
" style="fill: none; stroke: #000000; stroke-width: 0.8; stroke-linejoin: miter; stroke-linecap: square"/>
   </g>
   <g id="patch_5">
    <path d="M 55.778125 288.430125 
L 412.898125 288.430125 
" style="fill: none; stroke: #000000; stroke-width: 0.8; stroke-linejoin: miter; stroke-linecap: square"/>
   </g>
   <g id="patch_6">
    <path d="M 55.778125 22.318125 
L 412.898125 22.318125 
" style="fill: none; stroke: #000000; stroke-width: 0.8; stroke-linejoin: miter; stroke-linecap: square"/>
   </g>
   <g id="text_16">
    <!-- $\sqrt{\varepsilon_{mach}}$ -->
    <g transform="translate(364.029072 115.564505) scale(0.12 -0.12)">
     <defs>
      <path id="STIXSizeOneSym-Regular-221a" d="M 6970 9933 
L 3373 -1888 
L 3104 -1888 
L 1626 2918 
Q 1555 3149 1465 3251 
Q 1376 3354 1229 3354 
Q 1011 3354 794 3181 
L 717 3309 
L 1766 4115 
L 1926 4115 
L 3379 -602 
L 3405 -602 
L 6605 9933 
L 6970 9933 
z
" transform="scale(0.015625)"/>
      <path id="DejaVuSans-Oblique-3b5" d="M 1263 1888 
Q 925 1963 778 2166 
Q 669 2309 669 2503 
Q 669 3034 1175 3344 
Q 1575 3588 2188 3588 
Q 2425 3588 2684 3550 
Q 2944 3513 3234 3438 
L 3134 2916 
Q 2847 3006 2606 3047 
Q 2359 3088 2138 3088 
Q 1766 3088 1522 2944 
Q 1228 2772 1228 2522 
Q 1228 2356 1381 2241 
Q 1563 2103 1925 2103 
L 2409 2103 
L 2319 1628 
L 1856 1628 
Q 1425 1628 1172 1469 
Q 828 1253 828 916 
Q 828 703 1013 563 
Q 1244 388 1716 388 
Q 2006 388 2284 444 
Q 2563 503 2806 619 
L 2700 84 
Q 2403 -3 2131 -47 
Q 1859 -91 1609 -91 
Q 866 -91 516 194 
Q 250 413 250 781 
Q 250 1278 600 1584 
Q 859 1813 1263 1888 
z
" transform="scale(0.015625)"/>
      <path id="DejaVuSans-Oblique-6d" d="M 5747 2113 
L 5338 0 
L 4763 0 
L 5166 2094 
Q 5191 2228 5203 2325 
Q 5216 2422 5216 2491 
Q 5216 2772 5059 2928 
Q 4903 3084 4622 3084 
Q 4203 3084 3875 2770 
Q 3547 2456 3450 1953 
L 3066 0 
L 2491 0 
L 2900 2094 
Q 2925 2209 2937 2307 
Q 2950 2406 2950 2484 
Q 2950 2769 2794 2926 
Q 2638 3084 2363 3084 
Q 1938 3084 1609 2770 
Q 1281 2456 1184 1953 
L 800 0 
L 225 0 
L 909 3500 
L 1484 3500 
L 1375 2956 
Q 1609 3263 1923 3423 
Q 2238 3584 2597 3584 
Q 2978 3584 3223 3384 
Q 3469 3184 3519 2828 
Q 3781 3197 4126 3390 
Q 4472 3584 4856 3584 
Q 5306 3584 5551 3325 
Q 5797 3066 5797 2591 
Q 5797 2488 5784 2364 
Q 5772 2241 5747 2113 
z
" transform="scale(0.015625)"/>
      <path id="DejaVuSans-Oblique-61" d="M 3438 1997 
L 3047 0 
L 2472 0 
L 2578 531 
Q 2325 219 2001 64 
Q 1678 -91 1281 -91 
Q 834 -91 548 182 
Q 263 456 263 884 
Q 263 1497 752 1853 
Q 1241 2209 2100 2209 
L 2900 2209 
L 2931 2363 
Q 2938 2388 2941 2417 
Q 2944 2447 2944 2509 
Q 2944 2788 2717 2942 
Q 2491 3097 2081 3097 
Q 1800 3097 1504 3025 
Q 1209 2953 897 2809 
L 997 3341 
Q 1322 3463 1633 3523 
Q 1944 3584 2234 3584 
Q 2853 3584 3176 3315 
Q 3500 3047 3500 2534 
Q 3500 2431 3484 2292 
Q 3469 2153 3438 1997 
z
M 2816 1759 
L 2241 1759 
Q 1534 1759 1195 1570 
Q 856 1381 856 984 
Q 856 709 1029 553 
Q 1203 397 1509 397 
Q 1978 397 2328 733 
Q 2678 1069 2791 1631 
L 2816 1759 
z
" transform="scale(0.015625)"/>
      <path id="DejaVuSans-Oblique-63" d="M 3431 3366 
L 3316 2797 
Q 3109 2947 2876 3022 
Q 2644 3097 2394 3097 
Q 2119 3097 1870 3000 
Q 1622 2903 1453 2725 
Q 1184 2453 1037 2087 
Q 891 1722 891 1331 
Q 891 859 1127 628 
Q 1363 397 1844 397 
Q 2081 397 2348 469 
Q 2616 541 2906 684 
L 2797 116 
Q 2547 13 2283 -39 
Q 2019 -91 1741 -91 
Q 1044 -91 669 257 
Q 294 606 294 1253 
Q 294 1797 489 2255 
Q 684 2713 1069 3078 
Q 1331 3328 1684 3456 
Q 2038 3584 2456 3584 
Q 2700 3584 2940 3529 
Q 3181 3475 3431 3366 
z
" transform="scale(0.015625)"/>
      <path id="DejaVuSans-Oblique-68" d="M 3566 2113 
L 3156 0 
L 2578 0 
L 2988 2091 
Q 3016 2238 3031 2350 
Q 3047 2463 3047 2528 
Q 3047 2791 2881 2937 
Q 2716 3084 2419 3084 
Q 1956 3084 1617 2771 
Q 1278 2459 1178 1941 
L 800 0 
L 225 0 
L 1172 4863 
L 1747 4863 
L 1375 2950 
Q 1594 3244 1934 3414 
Q 2275 3584 2650 3584 
Q 3113 3584 3367 3334 
Q 3622 3084 3622 2631 
Q 3622 2519 3608 2391 
Q 3594 2263 3566 2113 
z
" transform="scale(0.015625)"/>
     </defs>
     <use xlink:href="#STIXSizeOneSym-Regular-221a" transform="translate(0 0.015625) scale(0.566932)"/>
     <use xlink:href="#DejaVuSans-Oblique-3b5" transform="translate(72.418686 0.6875)"/>
     <use xlink:href="#DejaVuSans-Oblique-6d" transform="translate(126.47142 -15.71875) scale(0.7)"/>
     <use xlink:href="#DejaVuSans-Oblique-61" transform="translate(194.659897 -15.71875) scale(0.7)"/>
     <use xlink:href="#DejaVuSans-Oblique-63" transform="translate(237.555405 -15.71875) scale(0.7)"/>
     <use xlink:href="#DejaVuSans-Oblique-68" transform="translate(276.041733 -15.71875) scale(0.7)"/>
     <path d="M 59.918686 81.5 
L 59.918686 87.75 
L 335.641342 87.75 
L 335.641342 81.5 
L 59.918686 81.5 
z
"/>
    </g>
   </g>
   <g id="text_17">
    <!-- $\varepsilon_{mach}$ -->
    <g transform="translate(364.029072 196.714884) scale(0.12 -0.12)">
     <use xlink:href="#DejaVuSans-Oblique-3b5" transform="translate(0 0.9375)"/>
     <use xlink:href="#DejaVuSans-Oblique-6d" transform="translate(54.052734 -15.46875) scale(0.7)"/>
     <use xlink:href="#DejaVuSans-Oblique-61" transform="translate(122.241211 -15.46875) scale(0.7)"/>
     <use xlink:href="#DejaVuSans-Oblique-63" transform="translate(165.136719 -15.46875) scale(0.7)"/>
     <use xlink:href="#DejaVuSans-Oblique-68" transform="translate(203.623047 -15.46875) scale(0.7)"/>
    </g>
   </g>
   <g id="text_18">
    <!-- Diagonal entries of R -->
    <g transform="translate(171.277188 16.318125) scale(0.12 -0.12)">
     <defs>
      <path id="DejaVuSans-44" d="M 1259 4147 
L 1259 519 
L 2022 519 
Q 2988 519 3436 956 
Q 3884 1394 3884 2338 
Q 3884 3275 3436 3711 
Q 2988 4147 2022 4147 
L 1259 4147 
z
M 628 4666 
L 1925 4666 
Q 3281 4666 3915 4102 
Q 4550 3538 4550 2338 
Q 4550 1131 3912 565 
Q 3275 0 1925 0 
L 628 0 
L 628 4666 
z
" transform="scale(0.015625)"/>
      <path id="DejaVuSans-69" d="M 603 3500 
L 1178 3500 
L 1178 0 
L 603 0 
L 603 3500 
z
M 603 4863 
L 1178 4863 
L 1178 4134 
L 603 4134 
L 603 4863 
z
" transform="scale(0.015625)"/>
      <path id="DejaVuSans-61" d="M 2194 1759 
Q 1497 1759 1228 1600 
Q 959 1441 959 1056 
Q 959 750 1161 570 
Q 1363 391 1709 391 
Q 2188 391 2477 730 
Q 2766 1069 2766 1631 
L 2766 1759 
L 2194 1759 
z
M 3341 1997 
L 3341 0 
L 2766 0 
L 2766 531 
Q 2569 213 2275 61 
Q 1981 -91 1556 -91 
Q 1019 -91 701 211 
Q 384 513 384 1019 
Q 384 1609 779 1909 
Q 1175 2209 1959 2209 
L 2766 2209 
L 2766 2266 
Q 2766 2663 2505 2880 
Q 2244 3097 1772 3097 
Q 1472 3097 1187 3025 
Q 903 2953 641 2809 
L 641 3341 
Q 956 3463 1253 3523 
Q 1550 3584 1831 3584 
Q 2591 3584 2966 3190 
Q 3341 2797 3341 1997 
z
" transform="scale(0.015625)"/>
      <path id="DejaVuSans-67" d="M 2906 1791 
Q 2906 2416 2648 2759 
Q 2391 3103 1925 3103 
Q 1463 3103 1205 2759 
Q 947 2416 947 1791 
Q 947 1169 1205 825 
Q 1463 481 1925 481 
Q 2391 481 2648 825 
Q 2906 1169 2906 1791 
z
M 3481 434 
Q 3481 -459 3084 -895 
Q 2688 -1331 1869 -1331 
Q 1566 -1331 1297 -1286 
Q 1028 -1241 775 -1147 
L 775 -588 
Q 1028 -725 1275 -790 
Q 1522 -856 1778 -856 
Q 2344 -856 2625 -561 
Q 2906 -266 2906 331 
L 2906 616 
Q 2728 306 2450 153 
Q 2172 0 1784 0 
Q 1141 0 747 490 
Q 353 981 353 1791 
Q 353 2603 747 3093 
Q 1141 3584 1784 3584 
Q 2172 3584 2450 3431 
Q 2728 3278 2906 2969 
L 2906 3500 
L 3481 3500 
L 3481 434 
z
" transform="scale(0.015625)"/>
      <path id="DejaVuSans-6f" d="M 1959 3097 
Q 1497 3097 1228 2736 
Q 959 2375 959 1747 
Q 959 1119 1226 758 
Q 1494 397 1959 397 
Q 2419 397 2687 759 
Q 2956 1122 2956 1747 
Q 2956 2369 2687 2733 
Q 2419 3097 1959 3097 
z
M 1959 3584 
Q 2709 3584 3137 3096 
Q 3566 2609 3566 1747 
Q 3566 888 3137 398 
Q 2709 -91 1959 -91 
Q 1206 -91 779 398 
Q 353 888 353 1747 
Q 353 2609 779 3096 
Q 1206 3584 1959 3584 
z
" transform="scale(0.015625)"/>
      <path id="DejaVuSans-6e" d="M 3513 2113 
L 3513 0 
L 2938 0 
L 2938 2094 
Q 2938 2591 2744 2837 
Q 2550 3084 2163 3084 
Q 1697 3084 1428 2787 
Q 1159 2491 1159 1978 
L 1159 0 
L 581 0 
L 581 3500 
L 1159 3500 
L 1159 2956 
Q 1366 3272 1645 3428 
Q 1925 3584 2291 3584 
Q 2894 3584 3203 3211 
Q 3513 2838 3513 2113 
z
" transform="scale(0.015625)"/>
      <path id="DejaVuSans-6c" d="M 603 4863 
L 1178 4863 
L 1178 0 
L 603 0 
L 603 4863 
z
" transform="scale(0.015625)"/>
      <path id="DejaVuSans-20" transform="scale(0.015625)"/>
      <path id="DejaVuSans-65" d="M 3597 1894 
L 3597 1613 
L 953 1613 
Q 991 1019 1311 708 
Q 1631 397 2203 397 
Q 2534 397 2845 478 
Q 3156 559 3463 722 
L 3463 178 
Q 3153 47 2828 -22 
Q 2503 -91 2169 -91 
Q 1331 -91 842 396 
Q 353 884 353 1716 
Q 353 2575 817 3079 
Q 1281 3584 2069 3584 
Q 2775 3584 3186 3129 
Q 3597 2675 3597 1894 
z
M 3022 2063 
Q 3016 2534 2758 2815 
Q 2500 3097 2075 3097 
Q 1594 3097 1305 2825 
Q 1016 2553 972 2059 
L 3022 2063 
z
" transform="scale(0.015625)"/>
      <path id="DejaVuSans-74" d="M 1172 4494 
L 1172 3500 
L 2356 3500 
L 2356 3053 
L 1172 3053 
L 1172 1153 
Q 1172 725 1289 603 
Q 1406 481 1766 481 
L 2356 481 
L 2356 0 
L 1766 0 
Q 1100 0 847 248 
Q 594 497 594 1153 
L 594 3053 
L 172 3053 
L 172 3500 
L 594 3500 
L 594 4494 
L 1172 4494 
z
" transform="scale(0.015625)"/>
      <path id="DejaVuSans-72" d="M 2631 2963 
Q 2534 3019 2420 3045 
Q 2306 3072 2169 3072 
Q 1681 3072 1420 2755 
Q 1159 2438 1159 1844 
L 1159 0 
L 581 0 
L 581 3500 
L 1159 3500 
L 1159 2956 
Q 1341 3275 1631 3429 
Q 1922 3584 2338 3584 
Q 2397 3584 2469 3576 
Q 2541 3569 2628 3553 
L 2631 2963 
z
" transform="scale(0.015625)"/>
      <path id="DejaVuSans-73" d="M 2834 3397 
L 2834 2853 
Q 2591 2978 2328 3040 
Q 2066 3103 1784 3103 
Q 1356 3103 1142 2972 
Q 928 2841 928 2578 
Q 928 2378 1081 2264 
Q 1234 2150 1697 2047 
L 1894 2003 
Q 2506 1872 2764 1633 
Q 3022 1394 3022 966 
Q 3022 478 2636 193 
Q 2250 -91 1575 -91 
Q 1294 -91 989 -36 
Q 684 19 347 128 
L 347 722 
Q 666 556 975 473 
Q 1284 391 1588 391 
Q 1994 391 2212 530 
Q 2431 669 2431 922 
Q 2431 1156 2273 1281 
Q 2116 1406 1581 1522 
L 1381 1569 
Q 847 1681 609 1914 
Q 372 2147 372 2553 
Q 372 3047 722 3315 
Q 1072 3584 1716 3584 
Q 2034 3584 2315 3537 
Q 2597 3491 2834 3397 
z
" transform="scale(0.015625)"/>
      <path id="DejaVuSans-66" d="M 2375 4863 
L 2375 4384 
L 1825 4384 
Q 1516 4384 1395 4259 
Q 1275 4134 1275 3809 
L 1275 3500 
L 2222 3500 
L 2222 3053 
L 1275 3053 
L 1275 0 
L 697 0 
L 697 3053 
L 147 3053 
L 147 3500 
L 697 3500 
L 697 3744 
Q 697 4328 969 4595 
Q 1241 4863 1831 4863 
L 2375 4863 
z
" transform="scale(0.015625)"/>
      <path id="DejaVuSans-52" d="M 2841 2188 
Q 3044 2119 3236 1894 
Q 3428 1669 3622 1275 
L 4263 0 
L 3584 0 
L 2988 1197 
Q 2756 1666 2539 1819 
Q 2322 1972 1947 1972 
L 1259 1972 
L 1259 0 
L 628 0 
L 628 4666 
L 2053 4666 
Q 2853 4666 3247 4331 
Q 3641 3997 3641 3322 
Q 3641 2881 3436 2590 
Q 3231 2300 2841 2188 
z
M 1259 4147 
L 1259 2491 
L 2053 2491 
Q 2509 2491 2742 2702 
Q 2975 2913 2975 3322 
Q 2975 3731 2742 3939 
Q 2509 4147 2053 4147 
L 1259 4147 
z
" transform="scale(0.015625)"/>
     </defs>
     <use xlink:href="#DejaVuSans-44"/>
     <use xlink:href="#DejaVuSans-69" transform="translate(77.001953 0)"/>
     <use xlink:href="#DejaVuSans-61" transform="translate(104.785156 0)"/>
     <use xlink:href="#DejaVuSans-67" transform="translate(166.064453 0)"/>
     <use xlink:href="#DejaVuSans-6f" transform="translate(229.541016 0)"/>
     <use xlink:href="#DejaVuSans-6e" transform="translate(290.722656 0)"/>
     <use xlink:href="#DejaVuSans-61" transform="translate(354.101562 0)"/>
     <use xlink:href="#DejaVuSans-6c" transform="translate(415.380859 0)"/>
     <use xlink:href="#DejaVuSans-20" transform="translate(443.164062 0)"/>
     <use xlink:href="#DejaVuSans-65" transform="translate(474.951172 0)"/>
     <use xlink:href="#DejaVuSans-6e" transform="translate(536.474609 0)"/>
     <use xlink:href="#DejaVuSans-74" transform="translate(599.853516 0)"/>
     <use xlink:href="#DejaVuSans-72" transform="translate(639.0625 0)"/>
     <use xlink:href="#DejaVuSans-69" transform="translate(680.175781 0)"/>
     <use xlink:href="#DejaVuSans-65" transform="translate(707.958984 0)"/>
     <use xlink:href="#DejaVuSans-73" transform="translate(769.482422 0)"/>
     <use xlink:href="#DejaVuSans-20" transform="translate(821.582031 0)"/>
     <use xlink:href="#DejaVuSans-6f" transform="translate(853.369141 0)"/>
     <use xlink:href="#DejaVuSans-66" transform="translate(914.550781 0)"/>
     <use xlink:href="#DejaVuSans-20" transform="translate(949.755859 0)"/>
     <use xlink:href="#DejaVuSans-52" transform="translate(981.542969 0)"/>
    </g>
   </g>
   <g id="legend_1">
    <g id="patch_7">
     <path d="M 313.1325 74.3525 
L 405.898125 74.3525 
Q 407.898125 74.3525 407.898125 72.3525 
L 407.898125 29.318125 
Q 407.898125 27.318125 405.898125 27.318125 
L 313.1325 27.318125 
Q 311.1325 27.318125 311.1325 29.318125 
L 311.1325 72.3525 
Q 311.1325 74.3525 313.1325 74.3525 
z
" style="fill: #ffffff; opacity: 0.8; stroke: #cccccc; stroke-linejoin: miter"/>
    </g>
    <g id="line2d_19">
     <g>
      <use xlink:href="#mdbb2af76d3" x="325.1325" y="35.416562" style="fill: #1f77b4; stroke: #1f77b4"/>
     </g>
    </g>
    <g id="text_19">
     <!-- Classical GS -->
     <g transform="translate(343.1325 38.916562) scale(0.1 -0.1)">
      <defs>
       <path id="DejaVuSans-43" d="M 4122 4306 
L 4122 3641 
Q 3803 3938 3442 4084 
Q 3081 4231 2675 4231 
Q 1875 4231 1450 3742 
Q 1025 3253 1025 2328 
Q 1025 1406 1450 917 
Q 1875 428 2675 428 
Q 3081 428 3442 575 
Q 3803 722 4122 1019 
L 4122 359 
Q 3791 134 3420 21 
Q 3050 -91 2638 -91 
Q 1578 -91 968 557 
Q 359 1206 359 2328 
Q 359 3453 968 4101 
Q 1578 4750 2638 4750 
Q 3056 4750 3426 4639 
Q 3797 4528 4122 4306 
z
" transform="scale(0.015625)"/>
       <path id="DejaVuSans-63" d="M 3122 3366 
L 3122 2828 
Q 2878 2963 2633 3030 
Q 2388 3097 2138 3097 
Q 1578 3097 1268 2742 
Q 959 2388 959 1747 
Q 959 1106 1268 751 
Q 1578 397 2138 397 
Q 2388 397 2633 464 
Q 2878 531 3122 666 
L 3122 134 
Q 2881 22 2623 -34 
Q 2366 -91 2075 -91 
Q 1284 -91 818 406 
Q 353 903 353 1747 
Q 353 2603 823 3093 
Q 1294 3584 2113 3584 
Q 2378 3584 2631 3529 
Q 2884 3475 3122 3366 
z
" transform="scale(0.015625)"/>
       <path id="DejaVuSans-47" d="M 3809 666 
L 3809 1919 
L 2778 1919 
L 2778 2438 
L 4434 2438 
L 4434 434 
Q 4069 175 3628 42 
Q 3188 -91 2688 -91 
Q 1594 -91 976 548 
Q 359 1188 359 2328 
Q 359 3472 976 4111 
Q 1594 4750 2688 4750 
Q 3144 4750 3555 4637 
Q 3966 4525 4313 4306 
L 4313 3634 
Q 3963 3931 3569 4081 
Q 3175 4231 2741 4231 
Q 1884 4231 1454 3753 
Q 1025 3275 1025 2328 
Q 1025 1384 1454 906 
Q 1884 428 2741 428 
Q 3075 428 3337 486 
Q 3600 544 3809 666 
z
" transform="scale(0.015625)"/>
       <path id="DejaVuSans-53" d="M 3425 4513 
L 3425 3897 
Q 3066 4069 2747 4153 
Q 2428 4238 2131 4238 
Q 1616 4238 1336 4038 
Q 1056 3838 1056 3469 
Q 1056 3159 1242 3001 
Q 1428 2844 1947 2747 
L 2328 2669 
Q 3034 2534 3370 2195 
Q 3706 1856 3706 1288 
Q 3706 609 3251 259 
Q 2797 -91 1919 -91 
Q 1588 -91 1214 -16 
Q 841 59 441 206 
L 441 856 
Q 825 641 1194 531 
Q 1563 422 1919 422 
Q 2459 422 2753 634 
Q 3047 847 3047 1241 
Q 3047 1584 2836 1778 
Q 2625 1972 2144 2069 
L 1759 2144 
Q 1053 2284 737 2584 
Q 422 2884 422 3419 
Q 422 4038 858 4394 
Q 1294 4750 2059 4750 
Q 2388 4750 2728 4690 
Q 3069 4631 3425 4513 
z
" transform="scale(0.015625)"/>
      </defs>
      <use xlink:href="#DejaVuSans-43"/>
      <use xlink:href="#DejaVuSans-6c" transform="translate(69.824219 0)"/>
      <use xlink:href="#DejaVuSans-61" transform="translate(97.607422 0)"/>
      <use xlink:href="#DejaVuSans-73" transform="translate(158.886719 0)"/>
      <use xlink:href="#DejaVuSans-73" transform="translate(210.986328 0)"/>
      <use xlink:href="#DejaVuSans-69" transform="translate(263.085938 0)"/>
      <use xlink:href="#DejaVuSans-63" transform="translate(290.869141 0)"/>
      <use xlink:href="#DejaVuSans-61" transform="translate(345.849609 0)"/>
      <use xlink:href="#DejaVuSans-6c" transform="translate(407.128906 0)"/>
      <use xlink:href="#DejaVuSans-20" transform="translate(434.912109 0)"/>
      <use xlink:href="#DejaVuSans-47" transform="translate(466.699219 0)"/>
      <use xlink:href="#DejaVuSans-53" transform="translate(544.189453 0)"/>
     </g>
    </g>
    <g id="line2d_20">
     <g>
      <use xlink:href="#m12dbcb9eb0" x="325.1325" y="50.094688" style="fill: #ff7f0e; stroke: #ff7f0e; stroke-linejoin: bevel"/>
     </g>
    </g>
    <g id="text_20">
     <!-- Modified GS -->
     <g transform="translate(343.1325 53.594688) scale(0.1 -0.1)">
      <defs>
       <path id="DejaVuSans-4d" d="M 628 4666 
L 1569 4666 
L 2759 1491 
L 3956 4666 
L 4897 4666 
L 4897 0 
L 4281 0 
L 4281 4097 
L 3078 897 
L 2444 897 
L 1241 4097 
L 1241 0 
L 628 0 
L 628 4666 
z
" transform="scale(0.015625)"/>
       <path id="DejaVuSans-64" d="M 2906 2969 
L 2906 4863 
L 3481 4863 
L 3481 0 
L 2906 0 
L 2906 525 
Q 2725 213 2448 61 
Q 2172 -91 1784 -91 
Q 1150 -91 751 415 
Q 353 922 353 1747 
Q 353 2572 751 3078 
Q 1150 3584 1784 3584 
Q 2172 3584 2448 3432 
Q 2725 3281 2906 2969 
z
M 947 1747 
Q 947 1113 1208 752 
Q 1469 391 1925 391 
Q 2381 391 2643 752 
Q 2906 1113 2906 1747 
Q 2906 2381 2643 2742 
Q 2381 3103 1925 3103 
Q 1469 3103 1208 2742 
Q 947 2381 947 1747 
z
" transform="scale(0.015625)"/>
      </defs>
      <use xlink:href="#DejaVuSans-4d"/>
      <use xlink:href="#DejaVuSans-6f" transform="translate(86.279297 0)"/>
      <use xlink:href="#DejaVuSans-64" transform="translate(147.460938 0)"/>
      <use xlink:href="#DejaVuSans-69" transform="translate(210.9375 0)"/>
      <use xlink:href="#DejaVuSans-66" transform="translate(238.720703 0)"/>
      <use xlink:href="#DejaVuSans-69" transform="translate(273.925781 0)"/>
      <use xlink:href="#DejaVuSans-65" transform="translate(301.708984 0)"/>
      <use xlink:href="#DejaVuSans-64" transform="translate(363.232422 0)"/>
      <use xlink:href="#DejaVuSans-20" transform="translate(426.708984 0)"/>
      <use xlink:href="#DejaVuSans-47" transform="translate(458.496094 0)"/>
      <use xlink:href="#DejaVuSans-53" transform="translate(535.986328 0)"/>
     </g>
    </g>
    <g id="line2d_21">
     <path d="M 315.1325 64.772812 
L 325.1325 64.772812 
L 335.1325 64.772812 
" style="fill: none; stroke-dasharray: 5.55,2.4; stroke-dashoffset: 0; stroke: #2ca02c; stroke-width: 1.5"/>
    </g>
    <g id="text_21">
     <!-- $2^{-j}$ -->
     <g transform="translate(343.1325 68.272812) scale(0.1 -0.1)">
      <use xlink:href="#DejaVuSans-32" transform="translate(0 0.529687)"/>
      <use xlink:href="#DejaVuSans-2212" transform="translate(64.580078 38.810937) scale(0.7)"/>
      <use xlink:href="#DejaVuSans-Oblique-6a" transform="translate(123.232422 38.810937) scale(0.7)"/>
     </g>
    </g>
   </g>
  </g>
 </g>
 <defs>
  <clipPath id="p2c18bdf5a4">
   <rect x="55.778125" y="22.318125" width="357.12" height="266.112"/>
  </clipPath>
 </defs>
</svg>