<?xml version="1.0" encoding="utf-8" standalone="no"?>
<!DOCTYPE svg PUBLIC "-//W3C//DTD SVG 1.1//EN"
  "http://www.w3.org/Graphics/SVG/1.1/DTD/svg11.dtd">
<svg xmlns:xlink="http://www.w3.org/1999/xlink" width="449.28pt" height="334.08pt" viewBox="0 0 449.28 334.08" xmlns="http://www.w3.org/2000/svg" version="1.1">
 <metadata>
  <rdf:RDF xmlns:dc="http://purl.org/dc/elements/1.1/" xmlns:cc="http://creativecommons.org/ns#" xmlns:rdf="http://www.w3.org/1999/02/22-rdf-syntax-ns#">
   <cc:Work>
    <dc:type rdf:resource="http://purl.org/dc/dcmitype/StillImage"/>
    <dc:date>2025-01-02T14:25:08.832973</dc:date>
    <dc:format>image/svg+xml</dc:format>
    <dc:creator>
     <cc:Agent>
      <dc:title>Matplotlib v3.10.0, https://matplotlib.org/</dc:title>
     </cc:Agent>
    </dc:creator>
   </cc:Work>
  </rdf:RDF>
 </metadata>
 <defs>
  <style type="text/css">*{stroke-linejoin: round; stroke-linecap: butt}</style>
 </defs>
 <g id="figure_1">
  <g id="patch_1">
   <path d="M 0 334.08 
L 449.28 334.08 
L 449.28 0 
L 0 0 
z
" style="fill: #ffffff"/>
  </g>
  <g id="axes_1">
   <g id="patch_2">
    <path d="M 21.835 292.6525 
L 212.435625 292.6525 
L 212.435625 23.712 
L 21.835 23.712 
z
" style="fill: #ffffff"/>
   </g>
   <g id="matplotlib.axis_1">
    <g id="xtick_1">
     <g id="line2d_1">
      <defs>
       <path id="m22992da037" d="M 0 0 
L 0 3.5 
" style="stroke: #000000; stroke-width: 0.8"/>
      </defs>
      <g>
       <use xlink:href="#m22992da037" x="30.498665" y="292.6525" style="fill-opacity: 0; stroke: #000000; stroke-width: 0.8"/>
      </g>
     </g>
     <g id="text_1">
      <!-- 0 -->
      <g transform="translate(26.681165 308.770625) scale(0.12 -0.12)">
       <defs>
        <path id="DejaVuSerif-30" d="M 2034 219 
Q 2513 219 2750 744 
Q 2988 1269 2988 2328 
Q 2988 3391 2750 3916 
Q 2513 4441 2034 4441 
Q 1556 4441 1318 3916 
Q 1081 3391 1081 2328 
Q 1081 1269 1318 744 
Q 1556 219 2034 219 
z
M 2034 -91 
Q 1275 -91 848 546 
Q 422 1184 422 2328 
Q 422 3475 848 4112 
Q 1275 4750 2034 4750 
Q 2797 4750 3222 4112 
Q 3647 3475 3647 2328 
Q 3647 1184 3222 546 
Q 2797 -91 2034 -91 
z
" transform="scale(0.015625)"/>
       </defs>
       <use xlink:href="#DejaVuSerif-30"/>
      </g>
     </g>
    </g>
    <g id="xtick_2">
     <g id="line2d_2">
      <g>
       <use xlink:href="#m22992da037" x="101.222459" y="292.6525" style="fill-opacity: 0; stroke: #000000; stroke-width: 0.8"/>
      </g>
     </g>
     <g id="text_2">
      <!-- 20 -->
      <g transform="translate(93.587459 308.770625) scale(0.12 -0.12)">
       <defs>
        <path id="DejaVuSerif-32" d="M 819 3553 
L 469 3553 
L 469 4384 
Q 803 4563 1142 4656 
Q 1481 4750 1806 4750 
Q 2534 4750 2956 4397 
Q 3378 4044 3378 3438 
Q 3378 2753 2422 1800 
Q 2347 1728 2309 1691 
L 1131 513 
L 3078 513 
L 3078 1088 
L 3444 1088 
L 3444 0 
L 434 0 
L 434 341 
L 1850 1753 
Q 2319 2222 2519 2614 
Q 2719 3006 2719 3438 
Q 2719 3909 2473 4175 
Q 2228 4441 1797 4441 
Q 1350 4441 1106 4219 
Q 863 3997 819 3553 
z
" transform="scale(0.015625)"/>
       </defs>
       <use xlink:href="#DejaVuSerif-32"/>
       <use xlink:href="#DejaVuSerif-30" transform="translate(63.623047 0)"/>
      </g>
     </g>
    </g>
    <g id="xtick_3">
     <g id="line2d_3">
      <g>
       <use xlink:href="#m22992da037" x="171.946253" y="292.6525" style="fill-opacity: 0; stroke: #000000; stroke-width: 0.8"/>
      </g>
     </g>
     <g id="text_3">
      <!-- 40 -->
      <g transform="translate(164.311253 308.770625) scale(0.12 -0.12)">
       <defs>
        <path id="DejaVuSerif-34" d="M 2234 1581 
L 2234 4063 
L 641 1581 
L 2234 1581 
z
M 3609 0 
L 1484 0 
L 1484 331 
L 2234 331 
L 2234 1247 
L 197 1247 
L 197 1588 
L 2241 4750 
L 2859 4750 
L 2859 1581 
L 3750 1581 
L 3750 1247 
L 2859 1247 
L 2859 331 
L 3609 331 
L 3609 0 
z
" transform="scale(0.015625)"/>
       </defs>
       <use xlink:href="#DejaVuSerif-34"/>
       <use xlink:href="#DejaVuSerif-30" transform="translate(63.623047 0)"/>
      </g>
     </g>
    </g>
    <g id="text_4">
     <!-- j -->
     <g transform="translate(115.275312 324.21375) scale(0.12 -0.12)">
      <defs>
       <path id="DejaVuSerif-6a" d="M 641 4353 
Q 641 4497 745 4603 
Q 850 4709 997 4709 
Q 1141 4709 1245 4603 
Q 1350 4497 1350 4353 
Q 1350 4206 1248 4103 
Q 1147 4000 997 4000 
Q 850 4000 745 4103 
Q 641 4206 641 4353 
z
M 781 2988 
L 238 2988 
L 238 3322 
L 1356 3322 
L 1356 -325 
Q 1356 -838 1051 -1130 
Q 747 -1422 213 -1422 
Q -13 -1422 -217 -1370 
Q -422 -1319 -616 -1216 
L -616 -531 
L -319 -531 
Q -297 -831 -164 -972 
Q -31 -1113 225 -1113 
Q 509 -1113 645 -920 
Q 781 -728 781 -325 
L 781 2988 
z
" transform="scale(0.015625)"/>
      </defs>
      <use xlink:href="#DejaVuSerif-6a"/>
     </g>
    </g>
   </g>
   <g id="matplotlib.axis_2">
    <g id="ytick_1">
     <g id="line2d_4">
      <defs>
       <path id="m6d1a6dbfd1" d="M 0 0 
L -3.5 0 
" style="stroke: #000000; stroke-width: 0.8"/>
      </defs>
      <g>
       <use xlink:href="#m6d1a6dbfd1" x="21.835" y="279.530031" style="fill-opacity: 0; stroke: #000000; stroke-width: 0.8"/>
      </g>
     </g>
     <g id="text_5">
      <!-- 2 -->
      <g transform="translate(7.2 284.089094) scale(0.12 -0.12)">
       <use xlink:href="#DejaVuSerif-32"/>
      </g>
     </g>
    </g>
    <g id="ytick_2">
     <g id="line2d_5">
      <g>
       <use xlink:href="#m6d1a6dbfd1" x="21.835" y="245.010797" style="fill-opacity: 0; stroke: #000000; stroke-width: 0.8"/>
      </g>
     </g>
     <g id="text_6">
      <!-- 3 -->
      <g transform="translate(7.2 249.569859) scale(0.12 -0.12)">
       <defs>
        <path id="DejaVuSerif-33" d="M 622 4469 
Q 988 4606 1323 4678 
Q 1659 4750 1953 4750 
Q 2638 4750 3022 4454 
Q 3406 4159 3406 3634 
Q 3406 3213 3140 2930 
Q 2875 2647 2388 2547 
Q 2963 2466 3280 2130 
Q 3597 1794 3597 1259 
Q 3597 606 3158 257 
Q 2719 -91 1894 -91 
Q 1528 -91 1179 -12 
Q 831 66 488 225 
L 488 1131 
L 838 1131 
Q 869 681 1141 450 
Q 1413 219 1906 219 
Q 2384 219 2661 495 
Q 2938 772 2938 1253 
Q 2938 1803 2653 2086 
Q 2369 2369 1819 2369 
L 1522 2369 
L 1522 2688 
L 1678 2688 
Q 2225 2688 2498 2914 
Q 2772 3141 2772 3597 
Q 2772 4006 2547 4223 
Q 2322 4441 1900 4441 
Q 1478 4441 1245 4241 
Q 1013 4041 972 3647 
L 622 3647 
L 622 4469 
z
" transform="scale(0.015625)"/>
       </defs>
       <use xlink:href="#DejaVuSerif-33"/>
      </g>
     </g>
    </g>
    <g id="ytick_3">
     <g id="line2d_6">
      <g>
       <use xlink:href="#m6d1a6dbfd1" x="21.835" y="210.491563" style="fill-opacity: 0; stroke: #000000; stroke-width: 0.8"/>
      </g>
     </g>
     <g id="text_7">
      <!-- 4 -->
      <g transform="translate(7.2 215.050625) scale(0.12 -0.12)">
       <use xlink:href="#DejaVuSerif-34"/>
      </g>
     </g>
    </g>
    <g id="ytick_4">
     <g id="line2d_7">
      <g>
       <use xlink:href="#m6d1a6dbfd1" x="21.835" y="175.972328" style="fill-opacity: 0; stroke: #000000; stroke-width: 0.8"/>
      </g>
     </g>
     <g id="text_8">
      <!-- 5 -->
      <g transform="translate(7.2 180.531391) scale(0.12 -0.12)">
       <defs>
        <path id="DejaVuSerif-35" d="M 3219 4666 
L 3219 4153 
L 1081 4153 
L 1081 2816 
Q 1244 2928 1461 2984 
Q 1678 3041 1947 3041 
Q 2703 3041 3140 2622 
Q 3578 2203 3578 1478 
Q 3578 738 3136 323 
Q 2694 -91 1894 -91 
Q 1572 -91 1234 -12 
Q 897 66 544 225 
L 544 1131 
L 897 1131 
Q 925 688 1179 453 
Q 1434 219 1894 219 
Q 2388 219 2653 544 
Q 2919 869 2919 1478 
Q 2919 2084 2655 2407 
Q 2391 2731 1894 2731 
Q 1613 2731 1398 2631 
Q 1184 2531 1019 2322 
L 750 2322 
L 750 4666 
L 3219 4666 
z
" transform="scale(0.015625)"/>
       </defs>
       <use xlink:href="#DejaVuSerif-35"/>
      </g>
     </g>
    </g>
    <g id="ytick_5">
     <g id="line2d_8">
      <g>
       <use xlink:href="#m6d1a6dbfd1" x="21.835" y="141.453094" style="fill-opacity: 0; stroke: #000000; stroke-width: 0.8"/>
      </g>
     </g>
     <g id="text_9">
      <!-- 6 -->
      <g transform="translate(7.2 146.012156) scale(0.12 -0.12)">
       <defs>
        <path id="DejaVuSerif-36" d="M 2094 219 
Q 2534 219 2771 542 
Q 3009 866 3009 1472 
Q 3009 2078 2771 2401 
Q 2534 2725 2094 2725 
Q 1647 2725 1412 2412 
Q 1178 2100 1178 1509 
Q 1178 888 1415 553 
Q 1653 219 2094 219 
z
M 1075 2569 
Q 1288 2803 1556 2918 
Q 1825 3034 2163 3034 
Q 2859 3034 3264 2615 
Q 3669 2197 3669 1472 
Q 3669 763 3233 336 
Q 2797 -91 2069 -91 
Q 1278 -91 853 498 
Q 428 1088 428 2181 
Q 428 3406 931 4078 
Q 1434 4750 2350 4750 
Q 2597 4750 2869 4703 
Q 3141 4656 3425 4563 
L 3425 3794 
L 3072 3794 
Q 3034 4109 2831 4275 
Q 2628 4441 2284 4441 
Q 1678 4441 1381 3981 
Q 1084 3522 1075 2569 
z
" transform="scale(0.015625)"/>
       </defs>
       <use xlink:href="#DejaVuSerif-36"/>
      </g>
     </g>
    </g>
    <g id="ytick_6">
     <g id="line2d_9">
      <g>
       <use xlink:href="#m6d1a6dbfd1" x="21.835" y="106.933859" style="fill-opacity: 0; stroke: #000000; stroke-width: 0.8"/>
      </g>
     </g>
     <g id="text_10">
      <!-- 7 -->
      <g transform="translate(7.2 111.492922) scale(0.12 -0.12)">
       <defs>
        <path id="DejaVuSerif-37" d="M 3609 4347 
L 1784 0 
L 1319 0 
L 3059 4153 
L 903 4153 
L 903 3578 
L 538 3578 
L 538 4666 
L 3609 4666 
L 3609 4347 
z
" transform="scale(0.015625)"/>
       </defs>
       <use xlink:href="#DejaVuSerif-37"/>
      </g>
     </g>
    </g>
    <g id="ytick_7">
     <g id="line2d_10">
      <g>
       <use xlink:href="#m6d1a6dbfd1" x="21.835" y="72.414625" style="fill-opacity: 0; stroke: #000000; stroke-width: 0.8"/>
      </g>
     </g>
     <g id="text_11">
      <!-- 8 -->
      <g transform="translate(7.2 76.973687) scale(0.12 -0.12)">
       <defs>
        <path id="DejaVuSerif-38" d="M 2981 1275 
Q 2981 1775 2732 2051 
Q 2484 2328 2034 2328 
Q 1584 2328 1336 2051 
Q 1088 1775 1088 1275 
Q 1088 772 1336 495 
Q 1584 219 2034 219 
Q 2484 219 2732 495 
Q 2981 772 2981 1275 
z
M 2853 3541 
Q 2853 3966 2637 4203 
Q 2422 4441 2034 4441 
Q 1650 4441 1433 4203 
Q 1216 3966 1216 3541 
Q 1216 3113 1433 2875 
Q 1650 2638 2034 2638 
Q 2422 2638 2637 2875 
Q 2853 3113 2853 3541 
z
M 2516 2484 
Q 3047 2413 3344 2092 
Q 3641 1772 3641 1275 
Q 3641 619 3225 264 
Q 2809 -91 2034 -91 
Q 1263 -91 845 264 
Q 428 619 428 1275 
Q 428 1772 725 2092 
Q 1022 2413 1556 2484 
Q 1084 2569 832 2842 
Q 581 3116 581 3541 
Q 581 4103 968 4426 
Q 1356 4750 2034 4750 
Q 2713 4750 3100 4426 
Q 3488 4103 3488 3541 
Q 3488 3116 3236 2842 
Q 2984 2569 2516 2484 
z
" transform="scale(0.015625)"/>
       </defs>
       <use xlink:href="#DejaVuSerif-38"/>
      </g>
     </g>
    </g>
    <g id="ytick_8">
     <g id="line2d_11">
      <g>
       <use xlink:href="#m6d1a6dbfd1" x="21.835" y="37.89539" style="fill-opacity: 0; stroke: #000000; stroke-width: 0.8"/>
      </g>
     </g>
     <g id="text_12">
      <!-- 9 -->
      <g transform="translate(7.2 42.454453) scale(0.12 -0.12)">
       <defs>
        <path id="DejaVuSerif-39" d="M 2994 2091 
Q 2784 1856 2512 1740 
Q 2241 1625 1900 1625 
Q 1206 1625 804 2044 
Q 403 2463 403 3188 
Q 403 3897 839 4323 
Q 1275 4750 2003 4750 
Q 2794 4750 3217 4161 
Q 3641 3572 3641 2478 
Q 3641 1253 3137 581 
Q 2634 -91 1722 -91 
Q 1475 -91 1203 -44 
Q 931 3 647 97 
L 647 872 
L 997 872 
Q 1038 556 1241 387 
Q 1444 219 1784 219 
Q 2391 219 2687 676 
Q 2984 1134 2994 2091 
z
M 1978 4441 
Q 1534 4441 1298 4117 
Q 1063 3794 1063 3188 
Q 1063 2581 1298 2256 
Q 1534 1931 1978 1931 
Q 2422 1931 2658 2245 
Q 2894 2559 2894 3150 
Q 2894 3772 2656 4106 
Q 2419 4441 1978 4441 
z
" transform="scale(0.015625)"/>
       </defs>
       <use xlink:href="#DejaVuSerif-39"/>
      </g>
     </g>
    </g>
   </g>
   <g id="line2d_12">
    <defs>
     <path id="m65b19e5fe1" d="M 0 3 
C 0.795609 3 1.55874 2.683901 2.12132 2.12132 
C 2.683901 1.55874 3 0.795609 3 0 
C 3 -0.795609 2.683901 -1.55874 2.12132 -2.12132 
C 1.55874 -2.683901 0.795609 -3 0 -3 
C -0.795609 -3 -1.55874 -2.683901 -2.12132 -2.12132 
C -2.683901 -1.55874 -3 -0.795609 -3 0 
C -3 0.795609 -2.683901 1.55874 -2.12132 2.12132 
C -1.55874 2.683901 -0.795609 3 0 3 
z
" style="stroke: #1f77b4"/>
    </defs>
    <g clip-path="url(#p1a09b59484)">
     <use xlink:href="#m65b19e5fe1" x="30.498665" y="35.936568" style="fill-opacity: 0; stroke: #1f77b4"/>
     <use xlink:href="#m65b19e5fe1" x="34.034854" y="42.662759" style="fill-opacity: 0; stroke: #1f77b4"/>
     <use xlink:href="#m65b19e5fe1" x="37.571044" y="48.814223" style="fill-opacity: 0; stroke: #1f77b4"/>
     <use xlink:href="#m65b19e5fe1" x="41.107234" y="51.439465" style="fill-opacity: 0; stroke: #1f77b4"/>
     <use xlink:href="#m65b19e5fe1" x="44.643424" y="63.511681" style="fill-opacity: 0; stroke: #1f77b4"/>
     <use xlink:href="#m65b19e5fe1" x="48.179613" y="68.809351" style="fill-opacity: 0; stroke: #1f77b4"/>
     <use xlink:href="#m65b19e5fe1" x="51.715803" y="72.125568" style="fill-opacity: 0; stroke: #1f77b4"/>
     <use xlink:href="#m65b19e5fe1" x="55.251993" y="75.849603" style="fill-opacity: 0; stroke: #1f77b4"/>
     <use xlink:href="#m65b19e5fe1" x="58.788182" y="81.441634" style="fill-opacity: 0; stroke: #1f77b4"/>
     <use xlink:href="#m65b19e5fe1" x="62.324372" y="94.636978" style="fill-opacity: 0; stroke: #1f77b4"/>
     <use xlink:href="#m65b19e5fe1" x="65.860562" y="95.968316" style="fill-opacity: 0; stroke: #1f77b4"/>
     <use xlink:href="#m65b19e5fe1" x="69.396752" y="100.579361" style="fill-opacity: 0; stroke: #1f77b4"/>
     <use xlink:href="#m65b19e5fe1" x="72.932941" y="106.729256" style="fill-opacity: 0; stroke: #1f77b4"/>
     <use xlink:href="#m65b19e5fe1" x="76.469131" y="113.990903" style="fill-opacity: 0; stroke: #1f77b4"/>
     <use xlink:href="#m65b19e5fe1" x="80.005321" y="119.264838" style="fill-opacity: 0; stroke: #1f77b4"/>
     <use xlink:href="#m65b19e5fe1" x="83.54151" y="121.732708" style="fill-opacity: 0; stroke: #1f77b4"/>
     <use xlink:href="#m65b19e5fe1" x="87.0777" y="126.355693" style="fill-opacity: 0; stroke: #1f77b4"/>
     <use xlink:href="#m65b19e5fe1" x="90.61389" y="131.699201" style="fill-opacity: 0; stroke: #1f77b4"/>
     <use xlink:href="#m65b19e5fe1" x="94.150079" y="136.42049" style="fill-opacity: 0; stroke: #1f77b4"/>
     <use xlink:href="#m65b19e5fe1" x="97.686269" y="141.445727" style="fill-opacity: 0; stroke: #1f77b4"/>
     <use xlink:href="#m65b19e5fe1" x="101.222459" y="144.960333" style="fill-opacity: 0; stroke: #1f77b4"/>
     <use xlink:href="#m65b19e5fe1" x="104.758649" y="153.667943" style="fill-opacity: 0; stroke: #1f77b4"/>
     <use xlink:href="#m65b19e5fe1" x="108.294838" y="157.271298" style="fill-opacity: 0; stroke: #1f77b4"/>
     <use xlink:href="#m65b19e5fe1" x="111.831028" y="158.327643" style="fill-opacity: 0; stroke: #1f77b4"/>
     <use xlink:href="#m65b19e5fe1" x="115.367218" y="163.82917" style="fill-opacity: 0; stroke: #1f77b4"/>
     <use xlink:href="#m65b19e5fe1" x="118.903407" y="168.072963" style="fill-opacity: 0; stroke: #1f77b4"/>
     <use xlink:href="#m65b19e5fe1" x="122.439597" y="172.149346" style="fill-opacity: 0; stroke: #1f77b4"/>
     <use xlink:href="#m65b19e5fe1" x="125.975787" y="177.783922" style="fill-opacity: 0; stroke: #1f77b4"/>
     <use xlink:href="#m65b19e5fe1" x="129.511976" y="180.872239" style="fill-opacity: 0; stroke: #1f77b4"/>
     <use xlink:href="#m65b19e5fe1" x="133.048166" y="184.147401" style="fill-opacity: 0; stroke: #1f77b4"/>
     <use xlink:href="#m65b19e5fe1" x="136.584356" y="189.583127" style="fill-opacity: 0; stroke: #1f77b4"/>
     <use xlink:href="#m65b19e5fe1" x="140.120546" y="191.841824" style="fill-opacity: 0; stroke: #1f77b4"/>
     <use xlink:href="#m65b19e5fe1" x="143.656735" y="198.869213" style="fill-opacity: 0; stroke: #1f77b4"/>
     <use xlink:href="#m65b19e5fe1" x="147.192925" y="199.800878" style="fill-opacity: 0; stroke: #1f77b4"/>
     <use xlink:href="#m65b19e5fe1" x="150.729115" y="203.379511" style="fill-opacity: 0; stroke: #1f77b4"/>
     <use xlink:href="#m65b19e5fe1" x="154.265304" y="204.117011" style="fill-opacity: 0; stroke: #1f77b4"/>
     <use xlink:href="#m65b19e5fe1" x="157.801494" y="213.219285" style="fill-opacity: 0; stroke: #1f77b4"/>
     <use xlink:href="#m65b19e5fe1" x="161.337684" y="218.42697" style="fill-opacity: 0; stroke: #1f77b4"/>
     <use xlink:href="#m65b19e5fe1" x="164.873873" y="223.897047" style="fill-opacity: 0; stroke: #1f77b4"/>
     <use xlink:href="#m65b19e5fe1" x="168.410063" y="227.992724" style="fill-opacity: 0; stroke: #1f77b4"/>
     <use xlink:href="#m65b19e5fe1" x="171.946253" y="232.410973" style="fill-opacity: 0; stroke: #1f77b4"/>
     <use xlink:href="#m65b19e5fe1" x="175.482443" y="234.968606" style="fill-opacity: 0; stroke: #1f77b4"/>
     <use xlink:href="#m65b19e5fe1" x="179.018632" y="235.649966" style="fill-opacity: 0; stroke: #1f77b4"/>
     <use xlink:href="#m65b19e5fe1" x="182.554822" y="244.611756" style="fill-opacity: 0; stroke: #1f77b4"/>
     <use xlink:href="#m65b19e5fe1" x="186.091012" y="250.737371" style="fill-opacity: 0; stroke: #1f77b4"/>
     <use xlink:href="#m65b19e5fe1" x="189.627201" y="256.432536" style="fill-opacity: 0; stroke: #1f77b4"/>
     <use xlink:href="#m65b19e5fe1" x="193.163391" y="260.708647" style="fill-opacity: 0; stroke: #1f77b4"/>
     <use xlink:href="#m65b19e5fe1" x="196.699581" y="266.512252" style="fill-opacity: 0; stroke: #1f77b4"/>
     <use xlink:href="#m65b19e5fe1" x="200.235771" y="269.287734" style="fill-opacity: 0; stroke: #1f77b4"/>
     <use xlink:href="#m65b19e5fe1" x="203.77196" y="280.427932" style="fill-opacity: 0; stroke: #1f77b4"/>
    </g>
   </g>
   <g id="patch_3">
    <path d="M 21.835 292.6525 
L 21.835 23.712 
" style="fill: none; stroke: #000000; stroke-width: 0.8; stroke-linejoin: miter; stroke-linecap: square"/>
   </g>
   <g id="patch_4">
    <path d="M 212.435625 292.6525 
L 212.435625 23.712 
" style="fill: none; stroke: #000000; stroke-width: 0.8; stroke-linejoin: miter; stroke-linecap: square"/>
   </g>
   <g id="patch_5">
    <path d="M 21.835 292.6525 
L 212.435625 292.6525 
" style="fill: none; stroke: #000000; stroke-width: 0.8; stroke-linejoin: miter; stroke-linecap: square"/>
   </g>
   <g id="patch_6">
    <path d="M 21.835 23.712 
L 212.435625 23.712 
" style="fill: none; stroke: #000000; stroke-width: 0.8; stroke-linejoin: miter; stroke-linecap: square"/>
   </g>
   <g id="text_13">
    <!-- $\sigma_j$ -->
    <g transform="translate(110.943313 17.712) scale(0.144 -0.144)">
     <defs>
      <path id="DejaVuSans-Oblique-3c3" d="M 2219 3044 
Q 1744 3044 1422 2700 
Q 1081 2341 969 1747 
Q 844 1119 1044 756 
Q 1241 397 1706 397 
Q 2166 397 2503 759 
Q 2844 1122 2966 1747 
Q 3075 2319 2881 2700 
Q 2700 3044 2219 3044 
z
M 2309 3503 
L 4219 3500 
L 4106 2925 
L 3463 2925 
Q 3706 2438 3575 1747 
Q 3406 888 2884 400 
Q 2359 -91 1609 -91 
Q 856 -91 525 400 
Q 194 888 363 1747 
Q 528 2609 1050 3097 
Q 1484 3503 2309 3503 
z
" transform="scale(0.015625)"/>
      <path id="DejaVuSans-Oblique-6a" d="M 928 3500 
L 1503 3500 
L 813 -63 
L 809 -78 
Q 694 -675 544 -897 
Q 403 -1106 132 -1218 
Q -138 -1331 -506 -1331 
L -722 -1331 
L -628 -844 
L -481 -844 
Q -144 -844 -1 -703 
Q 141 -563 238 -63 
L 928 3500 
z
M 1197 4863 
L 1772 4863 
L 1631 4134 
L 1056 4134 
L 1197 4863 
z
" transform="scale(0.015625)"/>
     </defs>
     <use xlink:href="#DejaVuSans-Oblique-3c3" transform="translate(0 0.265625)"/>
     <use xlink:href="#DejaVuSans-Oblique-6a" transform="translate(63.378906 -16.140625) scale(0.7)"/>
    </g>
   </g>
  </g>
  <g id="axes_2">
   <g id="patch_7">
    <path d="M 251.479375 292.6525 
L 442.08 292.6525 
L 442.08 23.712 
L 251.479375 23.712 
z
" style="fill: #ffffff"/>
   </g>
   <g id="matplotlib.axis_3">
    <g id="xtick_4">
     <g id="line2d_13">
      <g>
       <use xlink:href="#m22992da037" x="260.14304" y="292.6525" style="fill-opacity: 0; stroke: #000000; stroke-width: 0.8"/>
      </g>
     </g>
     <g id="text_14">
      <!-- 0 -->
      <g transform="translate(256.32554 308.770625) scale(0.12 -0.12)">
       <use xlink:href="#DejaVuSerif-30"/>
      </g>
     </g>
    </g>
    <g id="xtick_5">
     <g id="line2d_14">
      <g>
       <use xlink:href="#m22992da037" x="330.866834" y="292.6525" style="fill-opacity: 0; stroke: #000000; stroke-width: 0.8"/>
      </g>
     </g>
     <g id="text_15">
      <!-- 20 -->
      <g transform="translate(323.231834 308.770625) scale(0.12 -0.12)">
       <use xlink:href="#DejaVuSerif-32"/>
       <use xlink:href="#DejaVuSerif-30" transform="translate(63.623047 0)"/>
      </g>
     </g>
    </g>
    <g id="xtick_6">
     <g id="line2d_15">
      <g>
       <use xlink:href="#m22992da037" x="401.590628" y="292.6525" style="fill-opacity: 0; stroke: #000000; stroke-width: 0.8"/>
      </g>
     </g>
     <g id="text_16">
      <!-- 40 -->
      <g transform="translate(393.955628 308.770625) scale(0.12 -0.12)">
       <use xlink:href="#DejaVuSerif-34"/>
       <use xlink:href="#DejaVuSerif-30" transform="translate(63.623047 0)"/>
      </g>
     </g>
    </g>
    <g id="text_17">
     <!-- j -->
     <g transform="translate(344.919687 324.21375) scale(0.12 -0.12)">
      <use xlink:href="#DejaVuSerif-6a"/>
     </g>
    </g>
   </g>
   <g id="matplotlib.axis_4">
    <g id="ytick_9">
     <g id="line2d_16">
      <g>
       <use xlink:href="#m6d1a6dbfd1" x="251.479375" y="286.042114" style="fill-opacity: 0; stroke: #000000; stroke-width: 0.8"/>
      </g>
     </g>
     <g id="text_18">
      <!-- 0.2 -->
      <g transform="translate(225.395625 290.601176) scale(0.12 -0.12)">
       <defs>
        <path id="DejaVuSerif-2e" d="M 603 325 
Q 603 500 722 622 
Q 841 744 1019 744 
Q 1191 744 1312 622 
Q 1434 500 1434 325 
Q 1434 153 1312 31 
Q 1191 -91 1019 -91 
Q 841 -91 722 29 
Q 603 150 603 325 
z
" transform="scale(0.015625)"/>
       </defs>
       <use xlink:href="#DejaVuSerif-30"/>
       <use xlink:href="#DejaVuSerif-2e" transform="translate(63.623047 0)"/>
       <use xlink:href="#DejaVuSerif-32" transform="translate(95.410156 0)"/>
      </g>
     </g>
    </g>
    <g id="ytick_10">
     <g id="line2d_17">
      <g>
       <use xlink:href="#m6d1a6dbfd1" x="251.479375" y="254.778921" style="fill-opacity: 0; stroke: #000000; stroke-width: 0.8"/>
      </g>
     </g>
     <g id="text_19">
      <!-- 0.3 -->
      <g transform="translate(225.395625 259.337983) scale(0.12 -0.12)">
       <use xlink:href="#DejaVuSerif-30"/>
       <use xlink:href="#DejaVuSerif-2e" transform="translate(63.623047 0)"/>
       <use xlink:href="#DejaVuSerif-33" transform="translate(95.410156 0)"/>
      </g>
     </g>
    </g>
    <g id="ytick_11">
     <g id="line2d_18">
      <g>
       <use xlink:href="#m6d1a6dbfd1" x="251.479375" y="223.515727" style="fill-opacity: 0; stroke: #000000; stroke-width: 0.8"/>
      </g>
     </g>
     <g id="text_20">
      <!-- 0.4 -->
      <g transform="translate(225.395625 228.07479) scale(0.12 -0.12)">
       <use xlink:href="#DejaVuSerif-30"/>
       <use xlink:href="#DejaVuSerif-2e" transform="translate(63.623047 0)"/>
       <use xlink:href="#DejaVuSerif-34" transform="translate(95.410156 0)"/>
      </g>
     </g>
    </g>
    <g id="ytick_12">
     <g id="line2d_19">
      <g>
       <use xlink:href="#m6d1a6dbfd1" x="251.479375" y="192.252534" style="fill-opacity: 0; stroke: #000000; stroke-width: 0.8"/>
      </g>
     </g>
     <g id="text_21">
      <!-- 0.5 -->
      <g transform="translate(225.395625 196.811597) scale(0.12 -0.12)">
       <use xlink:href="#DejaVuSerif-30"/>
       <use xlink:href="#DejaVuSerif-2e" transform="translate(63.623047 0)"/>
       <use xlink:href="#DejaVuSerif-35" transform="translate(95.410156 0)"/>
      </g>
     </g>
    </g>
    <g id="ytick_13">
     <g id="line2d_20">
      <g>
       <use xlink:href="#m6d1a6dbfd1" x="251.479375" y="160.989341" style="fill-opacity: 0; stroke: #000000; stroke-width: 0.8"/>
      </g>
     </g>
     <g id="text_22">
      <!-- 0.6 -->
      <g transform="translate(225.395625 165.548404) scale(0.12 -0.12)">
       <use xlink:href="#DejaVuSerif-30"/>
       <use xlink:href="#DejaVuSerif-2e" transform="translate(63.623047 0)"/>
       <use xlink:href="#DejaVuSerif-36" transform="translate(95.410156 0)"/>
      </g>
     </g>
    </g>
    <g id="ytick_14">
     <g id="line2d_21">
      <g>
       <use xlink:href="#m6d1a6dbfd1" x="251.479375" y="129.726148" style="fill-opacity: 0; stroke: #000000; stroke-width: 0.8"/>
      </g>
     </g>
     <g id="text_23">
      <!-- 0.7 -->
      <g transform="translate(225.395625 134.28521) scale(0.12 -0.12)">
       <use xlink:href="#DejaVuSerif-30"/>
       <use xlink:href="#DejaVuSerif-2e" transform="translate(63.623047 0)"/>
       <use xlink:href="#DejaVuSerif-37" transform="translate(95.410156 0)"/>
      </g>
     </g>
    </g>
    <g id="ytick_15">
     <g id="line2d_22">
      <g>
       <use xlink:href="#m6d1a6dbfd1" x="251.479375" y="98.462955" style="fill-opacity: 0; stroke: #000000; stroke-width: 0.8"/>
      </g>
     </g>
     <g id="text_24">
      <!-- 0.8 -->
      <g transform="translate(225.395625 103.022017) scale(0.12 -0.12)">
       <use xlink:href="#DejaVuSerif-30"/>
       <use xlink:href="#DejaVuSerif-2e" transform="translate(63.623047 0)"/>
       <use xlink:href="#DejaVuSerif-38" transform="translate(95.410156 0)"/>
      </g>
     </g>
    </g>
    <g id="ytick_16">
     <g id="line2d_23">
      <g>
       <use xlink:href="#m6d1a6dbfd1" x="251.479375" y="67.199761" style="fill-opacity: 0; stroke: #000000; stroke-width: 0.8"/>
      </g>
     </g>
     <g id="text_25">
      <!-- 0.9 -->
      <g transform="translate(225.395625 71.758824) scale(0.12 -0.12)">
       <use xlink:href="#DejaVuSerif-30"/>
       <use xlink:href="#DejaVuSerif-2e" transform="translate(63.623047 0)"/>
       <use xlink:href="#DejaVuSerif-39" transform="translate(95.410156 0)"/>
      </g>
     </g>
    </g>
    <g id="ytick_17">
     <g id="line2d_24">
      <g>
       <use xlink:href="#m6d1a6dbfd1" x="251.479375" y="35.936568" style="fill-opacity: 0; stroke: #000000; stroke-width: 0.8"/>
      </g>
     </g>
     <g id="text_26">
      <!-- 1.0 -->
      <g transform="translate(225.395625 40.495631) scale(0.12 -0.12)">
       <defs>
        <path id="DejaVuSerif-31" d="M 909 0 
L 909 331 
L 1722 331 
L 1722 4213 
L 781 3603 
L 781 4013 
L 1919 4750 
L 2350 4750 
L 2350 331 
L 3163 331 
L 3163 0 
L 909 0 
z
" transform="scale(0.015625)"/>
       </defs>
       <use xlink:href="#DejaVuSerif-31"/>
       <use xlink:href="#DejaVuSerif-2e" transform="translate(63.623047 0)"/>
       <use xlink:href="#DejaVuSerif-30" transform="translate(95.410156 0)"/>
      </g>
     </g>
    </g>
   </g>
   <g id="line2d_25">
    <g clip-path="url(#p2326411ae3)">
     <use xlink:href="#m65b19e5fe1" x="260.14304" y="35.936568" style="fill-opacity: 0; stroke: #1f77b4"/>
     <use xlink:href="#m65b19e5fe1" x="263.679229" y="42.662759" style="fill-opacity: 0; stroke: #1f77b4"/>
     <use xlink:href="#m65b19e5fe1" x="267.215419" y="48.814223" style="fill-opacity: 0; stroke: #1f77b4"/>
     <use xlink:href="#m65b19e5fe1" x="270.751609" y="51.439465" style="fill-opacity: 0; stroke: #1f77b4"/>
     <use xlink:href="#m65b19e5fe1" x="274.287799" y="63.511681" style="fill-opacity: 0; stroke: #1f77b4"/>
     <use xlink:href="#m65b19e5fe1" x="277.823988" y="68.809351" style="fill-opacity: 0; stroke: #1f77b4"/>
     <use xlink:href="#m65b19e5fe1" x="281.360178" y="72.125568" style="fill-opacity: 0; stroke: #1f77b4"/>
     <use xlink:href="#m65b19e5fe1" x="284.896368" y="75.849603" style="fill-opacity: 0; stroke: #1f77b4"/>
     <use xlink:href="#m65b19e5fe1" x="288.432557" y="81.441634" style="fill-opacity: 0; stroke: #1f77b4"/>
     <use xlink:href="#m65b19e5fe1" x="291.968747" y="94.636978" style="fill-opacity: 0; stroke: #1f77b4"/>
     <use xlink:href="#m65b19e5fe1" x="295.504937" y="95.968316" style="fill-opacity: 0; stroke: #1f77b4"/>
     <use xlink:href="#m65b19e5fe1" x="299.041127" y="100.579361" style="fill-opacity: 0; stroke: #1f77b4"/>
     <use xlink:href="#m65b19e5fe1" x="302.577316" y="106.729256" style="fill-opacity: 0; stroke: #1f77b4"/>
     <use xlink:href="#m65b19e5fe1" x="306.113506" y="113.990903" style="fill-opacity: 0; stroke: #1f77b4"/>
     <use xlink:href="#m65b19e5fe1" x="309.649696" y="119.264838" style="fill-opacity: 0; stroke: #1f77b4"/>
     <use xlink:href="#m65b19e5fe1" x="313.185885" y="121.732708" style="fill-opacity: 0; stroke: #1f77b4"/>
     <use xlink:href="#m65b19e5fe1" x="316.722075" y="126.355693" style="fill-opacity: 0; stroke: #1f77b4"/>
     <use xlink:href="#m65b19e5fe1" x="320.258265" y="131.699201" style="fill-opacity: 0; stroke: #1f77b4"/>
     <use xlink:href="#m65b19e5fe1" x="323.794454" y="136.42049" style="fill-opacity: 0; stroke: #1f77b4"/>
     <use xlink:href="#m65b19e5fe1" x="327.330644" y="141.445727" style="fill-opacity: 0; stroke: #1f77b4"/>
     <use xlink:href="#m65b19e5fe1" x="330.866834" y="144.960333" style="fill-opacity: 0; stroke: #1f77b4"/>
     <use xlink:href="#m65b19e5fe1" x="334.403024" y="153.667943" style="fill-opacity: 0; stroke: #1f77b4"/>
     <use xlink:href="#m65b19e5fe1" x="337.939213" y="157.271298" style="fill-opacity: 0; stroke: #1f77b4"/>
     <use xlink:href="#m65b19e5fe1" x="341.475403" y="158.327643" style="fill-opacity: 0; stroke: #1f77b4"/>
     <use xlink:href="#m65b19e5fe1" x="345.011593" y="163.82917" style="fill-opacity: 0; stroke: #1f77b4"/>
     <use xlink:href="#m65b19e5fe1" x="348.547782" y="168.072963" style="fill-opacity: 0; stroke: #1f77b4"/>
     <use xlink:href="#m65b19e5fe1" x="352.083972" y="172.149346" style="fill-opacity: 0; stroke: #1f77b4"/>
     <use xlink:href="#m65b19e5fe1" x="355.620162" y="177.783922" style="fill-opacity: 0; stroke: #1f77b4"/>
     <use xlink:href="#m65b19e5fe1" x="359.156351" y="180.872239" style="fill-opacity: 0; stroke: #1f77b4"/>
     <use xlink:href="#m65b19e5fe1" x="362.692541" y="184.147401" style="fill-opacity: 0; stroke: #1f77b4"/>
     <use xlink:href="#m65b19e5fe1" x="366.228731" y="189.583127" style="fill-opacity: 0; stroke: #1f77b4"/>
     <use xlink:href="#m65b19e5fe1" x="369.764921" y="191.841824" style="fill-opacity: 0; stroke: #1f77b4"/>
     <use xlink:href="#m65b19e5fe1" x="373.30111" y="198.869213" style="fill-opacity: 0; stroke: #1f77b4"/>
     <use xlink:href="#m65b19e5fe1" x="376.8373" y="199.800878" style="fill-opacity: 0; stroke: #1f77b4"/>
     <use xlink:href="#m65b19e5fe1" x="380.37349" y="203.379511" style="fill-opacity: 0; stroke: #1f77b4"/>
     <use xlink:href="#m65b19e5fe1" x="383.909679" y="204.117011" style="fill-opacity: 0; stroke: #1f77b4"/>
     <use xlink:href="#m65b19e5fe1" x="387.445869" y="213.219285" style="fill-opacity: 0; stroke: #1f77b4"/>
     <use xlink:href="#m65b19e5fe1" x="390.982059" y="218.42697" style="fill-opacity: 0; stroke: #1f77b4"/>
     <use xlink:href="#m65b19e5fe1" x="394.518248" y="223.897047" style="fill-opacity: 0; stroke: #1f77b4"/>
     <use xlink:href="#m65b19e5fe1" x="398.054438" y="227.992724" style="fill-opacity: 0; stroke: #1f77b4"/>
     <use xlink:href="#m65b19e5fe1" x="401.590628" y="232.410973" style="fill-opacity: 0; stroke: #1f77b4"/>
     <use xlink:href="#m65b19e5fe1" x="405.126818" y="234.968606" style="fill-opacity: 0; stroke: #1f77b4"/>
     <use xlink:href="#m65b19e5fe1" x="408.663007" y="235.649966" style="fill-opacity: 0; stroke: #1f77b4"/>
     <use xlink:href="#m65b19e5fe1" x="412.199197" y="244.611756" style="fill-opacity: 0; stroke: #1f77b4"/>
     <use xlink:href="#m65b19e5fe1" x="415.735387" y="250.737371" style="fill-opacity: 0; stroke: #1f77b4"/>
     <use xlink:href="#m65b19e5fe1" x="419.271576" y="256.432536" style="fill-opacity: 0; stroke: #1f77b4"/>
     <use xlink:href="#m65b19e5fe1" x="422.807766" y="260.708647" style="fill-opacity: 0; stroke: #1f77b4"/>
     <use xlink:href="#m65b19e5fe1" x="426.343956" y="266.512252" style="fill-opacity: 0; stroke: #1f77b4"/>
     <use xlink:href="#m65b19e5fe1" x="429.880146" y="269.287734" style="fill-opacity: 0; stroke: #1f77b4"/>
     <use xlink:href="#m65b19e5fe1" x="433.416335" y="280.427932" style="fill-opacity: 0; stroke: #1f77b4"/>
    </g>
   </g>
   <g id="patch_8">
    <path d="M 251.479375 292.6525 
L 251.479375 23.712 
" style="fill: none; stroke: #000000; stroke-width: 0.8; stroke-linejoin: miter; stroke-linecap: square"/>
   </g>
   <g id="patch_9">
    <path d="M 442.08 292.6525 
L 442.08 23.712 
" style="fill: none; stroke: #000000; stroke-width: 0.8; stroke-linejoin: miter; stroke-linecap: square"/>
   </g>
   <g id="patch_10">
    <path d="M 251.479375 292.6525 
L 442.08 292.6525 
" style="fill: none; stroke: #000000; stroke-width: 0.8; stroke-linejoin: miter; stroke-linecap: square"/>
   </g>
   <g id="patch_11">
    <path d="M 251.479375 23.712 
L 442.08 23.712 
" style="fill: none; stroke: #000000; stroke-width: 0.8; stroke-linejoin: miter; stroke-linecap: square"/>
   </g>
   <g id="text_27">
    <!-- $\sigma_j/\sigma_1$ -->
    <g transform="translate(330.219687 17.712) scale(0.144 -0.144)">
     <defs>
      <path id="DejaVuSans-2f" d="M 1625 4666 
L 2156 4666 
L 531 -594 
L 0 -594 
L 1625 4666 
z
" transform="scale(0.015625)"/>
      <path id="DejaVuSans-31" d="M 794 531 
L 1825 531 
L 1825 4091 
L 703 3866 
L 703 4441 
L 1819 4666 
L 2450 4666 
L 2450 531 
L 3481 531 
L 3481 0 
L 794 0 
L 794 531 
z
" transform="scale(0.015625)"/>
     </defs>
     <use xlink:href="#DejaVuSans-Oblique-3c3" transform="translate(0 0.09375)"/>
     <use xlink:href="#DejaVuSans-Oblique-6a" transform="translate(63.378906 -16.3125) scale(0.7)"/>
     <use xlink:href="#DejaVuSans-2f" transform="translate(85.561523 0.09375)"/>
     <use xlink:href="#DejaVuSans-Oblique-3c3" transform="translate(119.25293 0.09375)"/>
     <use xlink:href="#DejaVuSans-31" transform="translate(182.631836 -16.3125) scale(0.7)"/>
    </g>
   </g>
  </g>
 </g>
 <defs>
  <clipPath id="p1a09b59484">
   <rect x="21.835" y="23.712" width="190.600625" height="268.9405"/>
  </clipPath>
  <clipPath id="p2326411ae3">
   <rect x="251.479375" y="23.712" width="190.600625" height="268.9405"/>
  </clipPath>
 </defs>
</svg>