<?xml version="1.0" encoding="utf-8" standalone="no"?>
<!DOCTYPE svg PUBLIC "-//W3C//DTD SVG 1.1//EN"
  "http://www.w3.org/Graphics/SVG/1.1/DTD/svg11.dtd">
<svg xmlns:xlink="http://www.w3.org/1999/xlink" width="384.8825pt" height="325.62825pt" viewBox="0 0 384.8825 325.62825" xmlns="http://www.w3.org/2000/svg" version="1.1">
 <metadata>
  <rdf:RDF xmlns:dc="http://purl.org/dc/elements/1.1/" xmlns:cc="http://creativecommons.org/ns#" xmlns:rdf="http://www.w3.org/1999/02/22-rdf-syntax-ns#">
   <cc:Work>
    <dc:type rdf:resource="http://purl.org/dc/dcmitype/StillImage"/>
    <dc:date>2025-04-07T10:47:28.350040</dc:date>
    <dc:format>image/svg+xml</dc:format>
    <dc:creator>
     <cc:Agent>
      <dc:title>Matplotlib v3.10.1, https://matplotlib.org/</dc:title>
     </cc:Agent>
    </dc:creator>
   </cc:Work>
  </rdf:RDF>
 </metadata>
 <defs>
  <style type="text/css">*{stroke-linejoin: round; stroke-linecap: butt}</style>
 </defs>
 <g id="figure_1">
  <g id="patch_1">
   <path d="M 0 325.62825 
L 384.8825 325.62825 
L 384.8825 0 
L 0 0 
z
" style="fill: #ffffff"/>
  </g>
  <g id="axes_1">
   <g id="patch_2">
    <path d="M 20.5625 288.072 
L 182.889773 288.072 
L 182.889773 21.96 
L 20.5625 21.96 
z
" style="fill: #ffffff"/>
   </g>
   <g id="matplotlib.axis_1">
    <g id="xtick_1">
     <g id="line2d_1">
      <defs>
       <path id="me73e964f9d" d="M 0 0 
L 0 3.5 
" style="stroke: #000000; stroke-width: 0.8"/>
      </defs>
      <g>
       <use xlink:href="#me73e964f9d" x="27.941012" y="288.072" style="stroke: #000000; stroke-width: 0.8"/>
      </g>
     </g>
     <g id="text_1">
      <!-- 0 -->
      <g transform="translate(24.759762 302.670437) scale(0.1 -0.1)">
       <defs>
        <path id="DejaVuSans-30" d="M 2034 4250 
Q 1547 4250 1301 3770 
Q 1056 3291 1056 2328 
Q 1056 1369 1301 889 
Q 1547 409 2034 409 
Q 2525 409 2770 889 
Q 3016 1369 3016 2328 
Q 3016 3291 2770 3770 
Q 2525 4250 2034 4250 
z
M 2034 4750 
Q 2819 4750 3233 4129 
Q 3647 3509 3647 2328 
Q 3647 1150 3233 529 
Q 2819 -91 2034 -91 
Q 1250 -91 836 529 
Q 422 1150 422 2328 
Q 422 3509 836 4129 
Q 1250 4750 2034 4750 
z
" transform="scale(0.015625)"/>
       </defs>
       <use xlink:href="#DejaVuSans-30"/>
      </g>
     </g>
    </g>
    <g id="xtick_2">
     <g id="line2d_2">
      <g>
       <use xlink:href="#me73e964f9d" x="88.173767" y="288.072" style="stroke: #000000; stroke-width: 0.8"/>
      </g>
     </g>
     <g id="text_2">
      <!-- 20 -->
      <g transform="translate(81.811267 302.670437) scale(0.1 -0.1)">
       <defs>
        <path id="DejaVuSans-32" d="M 1228 531 
L 3431 531 
L 3431 0 
L 469 0 
L 469 531 
Q 828 903 1448 1529 
Q 2069 2156 2228 2338 
Q 2531 2678 2651 2914 
Q 2772 3150 2772 3378 
Q 2772 3750 2511 3984 
Q 2250 4219 1831 4219 
Q 1534 4219 1204 4116 
Q 875 4013 500 3803 
L 500 4441 
Q 881 4594 1212 4672 
Q 1544 4750 1819 4750 
Q 2544 4750 2975 4387 
Q 3406 4025 3406 3419 
Q 3406 3131 3298 2873 
Q 3191 2616 2906 2266 
Q 2828 2175 2409 1742 
Q 1991 1309 1228 531 
z
" transform="scale(0.015625)"/>
       </defs>
       <use xlink:href="#DejaVuSans-32"/>
       <use xlink:href="#DejaVuSans-30" transform="translate(63.623047 0)"/>
      </g>
     </g>
    </g>
    <g id="xtick_3">
     <g id="line2d_3">
      <g>
       <use xlink:href="#me73e964f9d" x="148.406521" y="288.072" style="stroke: #000000; stroke-width: 0.8"/>
      </g>
     </g>
     <g id="text_3">
      <!-- 40 -->
      <g transform="translate(142.044021 302.670437) scale(0.1 -0.1)">
       <defs>
        <path id="DejaVuSans-34" d="M 2419 4116 
L 825 1625 
L 2419 1625 
L 2419 4116 
z
M 2253 4666 
L 3047 4666 
L 3047 1625 
L 3713 1625 
L 3713 1100 
L 3047 1100 
L 3047 0 
L 2419 0 
L 2419 1100 
L 313 1100 
L 313 1709 
L 2253 4666 
z
" transform="scale(0.015625)"/>
       </defs>
       <use xlink:href="#DejaVuSans-34"/>
       <use xlink:href="#DejaVuSans-30" transform="translate(63.623047 0)"/>
      </g>
     </g>
    </g>
    <g id="text_4">
     <!-- j -->
     <g transform="translate(100.337074 316.348562) scale(0.1 -0.1)">
      <defs>
       <path id="DejaVuSans-6a" d="M 603 3500 
L 1178 3500 
L 1178 -63 
Q 1178 -731 923 -1031 
Q 669 -1331 103 -1331 
L -116 -1331 
L -116 -844 
L 38 -844 
Q 366 -844 484 -692 
Q 603 -541 603 -63 
L 603 3500 
z
M 603 4863 
L 1178 4863 
L 1178 4134 
L 603 4134 
L 603 4863 
z
" transform="scale(0.015625)"/>
      </defs>
      <use xlink:href="#DejaVuSans-6a"/>
     </g>
    </g>
   </g>
   <g id="matplotlib.axis_2">
    <g id="ytick_1">
     <g id="line2d_4">
      <defs>
       <path id="mbc113fc3c6" d="M 0 0 
L -3.5 0 
" style="stroke: #000000; stroke-width: 0.8"/>
      </defs>
      <g>
       <use xlink:href="#mbc113fc3c6" x="20.5625" y="276.408359" style="stroke: #000000; stroke-width: 0.8"/>
      </g>
     </g>
     <g id="text_5">
      <!-- 2 -->
      <g transform="translate(7.2 280.207578) scale(0.1 -0.1)">
       <use xlink:href="#DejaVuSans-32"/>
      </g>
     </g>
    </g>
    <g id="ytick_2">
     <g id="line2d_5">
      <g>
       <use xlink:href="#mbc113fc3c6" x="20.5625" y="244.317857" style="stroke: #000000; stroke-width: 0.8"/>
      </g>
     </g>
     <g id="text_6">
      <!-- 3 -->
      <g transform="translate(7.2 248.117076) scale(0.1 -0.1)">
       <defs>
        <path id="DejaVuSans-33" d="M 2597 2516 
Q 3050 2419 3304 2112 
Q 3559 1806 3559 1356 
Q 3559 666 3084 287 
Q 2609 -91 1734 -91 
Q 1441 -91 1130 -33 
Q 819 25 488 141 
L 488 750 
Q 750 597 1062 519 
Q 1375 441 1716 441 
Q 2309 441 2620 675 
Q 2931 909 2931 1356 
Q 2931 1769 2642 2001 
Q 2353 2234 1838 2234 
L 1294 2234 
L 1294 2753 
L 1863 2753 
Q 2328 2753 2575 2939 
Q 2822 3125 2822 3475 
Q 2822 3834 2567 4026 
Q 2313 4219 1838 4219 
Q 1578 4219 1281 4162 
Q 984 4106 628 3988 
L 628 4550 
Q 988 4650 1302 4700 
Q 1616 4750 1894 4750 
Q 2613 4750 3031 4423 
Q 3450 4097 3450 3541 
Q 3450 3153 3228 2886 
Q 3006 2619 2597 2516 
z
" transform="scale(0.015625)"/>
       </defs>
       <use xlink:href="#DejaVuSans-33"/>
      </g>
     </g>
    </g>
    <g id="ytick_3">
     <g id="line2d_6">
      <g>
       <use xlink:href="#mbc113fc3c6" x="20.5625" y="212.227356" style="stroke: #000000; stroke-width: 0.8"/>
      </g>
     </g>
     <g id="text_7">
      <!-- 4 -->
      <g transform="translate(7.2 216.026574) scale(0.1 -0.1)">
       <use xlink:href="#DejaVuSans-34"/>
      </g>
     </g>
    </g>
    <g id="ytick_4">
     <g id="line2d_7">
      <g>
       <use xlink:href="#mbc113fc3c6" x="20.5625" y="180.136854" style="stroke: #000000; stroke-width: 0.8"/>
      </g>
     </g>
     <g id="text_8">
      <!-- 5 -->
      <g transform="translate(7.2 183.936073) scale(0.1 -0.1)">
       <defs>
        <path id="DejaVuSans-35" d="M 691 4666 
L 3169 4666 
L 3169 4134 
L 1269 4134 
L 1269 2991 
Q 1406 3038 1543 3061 
Q 1681 3084 1819 3084 
Q 2600 3084 3056 2656 
Q 3513 2228 3513 1497 
Q 3513 744 3044 326 
Q 2575 -91 1722 -91 
Q 1428 -91 1123 -41 
Q 819 9 494 109 
L 494 744 
Q 775 591 1075 516 
Q 1375 441 1709 441 
Q 2250 441 2565 725 
Q 2881 1009 2881 1497 
Q 2881 1984 2565 2268 
Q 2250 2553 1709 2553 
Q 1456 2553 1204 2497 
Q 953 2441 691 2322 
L 691 4666 
z
" transform="scale(0.015625)"/>
       </defs>
       <use xlink:href="#DejaVuSans-35"/>
      </g>
     </g>
    </g>
    <g id="ytick_5">
     <g id="line2d_8">
      <g>
       <use xlink:href="#mbc113fc3c6" x="20.5625" y="148.046352" style="stroke: #000000; stroke-width: 0.8"/>
      </g>
     </g>
     <g id="text_9">
      <!-- 6 -->
      <g transform="translate(7.2 151.845571) scale(0.1 -0.1)">
       <defs>
        <path id="DejaVuSans-36" d="M 2113 2584 
Q 1688 2584 1439 2293 
Q 1191 2003 1191 1497 
Q 1191 994 1439 701 
Q 1688 409 2113 409 
Q 2538 409 2786 701 
Q 3034 994 3034 1497 
Q 3034 2003 2786 2293 
Q 2538 2584 2113 2584 
z
M 3366 4563 
L 3366 3988 
Q 3128 4100 2886 4159 
Q 2644 4219 2406 4219 
Q 1781 4219 1451 3797 
Q 1122 3375 1075 2522 
Q 1259 2794 1537 2939 
Q 1816 3084 2150 3084 
Q 2853 3084 3261 2657 
Q 3669 2231 3669 1497 
Q 3669 778 3244 343 
Q 2819 -91 2113 -91 
Q 1303 -91 875 529 
Q 447 1150 447 2328 
Q 447 3434 972 4092 
Q 1497 4750 2381 4750 
Q 2619 4750 2861 4703 
Q 3103 4656 3366 4563 
z
" transform="scale(0.015625)"/>
       </defs>
       <use xlink:href="#DejaVuSans-36"/>
      </g>
     </g>
    </g>
    <g id="ytick_6">
     <g id="line2d_9">
      <g>
       <use xlink:href="#mbc113fc3c6" x="20.5625" y="115.95585" style="stroke: #000000; stroke-width: 0.8"/>
      </g>
     </g>
     <g id="text_10">
      <!-- 7 -->
      <g transform="translate(7.2 119.755069) scale(0.1 -0.1)">
       <defs>
        <path id="DejaVuSans-37" d="M 525 4666 
L 3525 4666 
L 3525 4397 
L 1831 0 
L 1172 0 
L 2766 4134 
L 525 4134 
L 525 4666 
z
" transform="scale(0.015625)"/>
       </defs>
       <use xlink:href="#DejaVuSans-37"/>
      </g>
     </g>
    </g>
    <g id="ytick_7">
     <g id="line2d_10">
      <g>
       <use xlink:href="#mbc113fc3c6" x="20.5625" y="83.865349" style="stroke: #000000; stroke-width: 0.8"/>
      </g>
     </g>
     <g id="text_11">
      <!-- 8 -->
      <g transform="translate(7.2 87.664567) scale(0.1 -0.1)">
       <defs>
        <path id="DejaVuSans-38" d="M 2034 2216 
Q 1584 2216 1326 1975 
Q 1069 1734 1069 1313 
Q 1069 891 1326 650 
Q 1584 409 2034 409 
Q 2484 409 2743 651 
Q 3003 894 3003 1313 
Q 3003 1734 2745 1975 
Q 2488 2216 2034 2216 
z
M 1403 2484 
Q 997 2584 770 2862 
Q 544 3141 544 3541 
Q 544 4100 942 4425 
Q 1341 4750 2034 4750 
Q 2731 4750 3128 4425 
Q 3525 4100 3525 3541 
Q 3525 3141 3298 2862 
Q 3072 2584 2669 2484 
Q 3125 2378 3379 2068 
Q 3634 1759 3634 1313 
Q 3634 634 3220 271 
Q 2806 -91 2034 -91 
Q 1263 -91 848 271 
Q 434 634 434 1313 
Q 434 1759 690 2068 
Q 947 2378 1403 2484 
z
M 1172 3481 
Q 1172 3119 1398 2916 
Q 1625 2713 2034 2713 
Q 2441 2713 2670 2916 
Q 2900 3119 2900 3481 
Q 2900 3844 2670 4047 
Q 2441 4250 2034 4250 
Q 1625 4250 1398 4047 
Q 1172 3844 1172 3481 
z
" transform="scale(0.015625)"/>
       </defs>
       <use xlink:href="#DejaVuSans-38"/>
      </g>
     </g>
    </g>
    <g id="ytick_8">
     <g id="line2d_11">
      <g>
       <use xlink:href="#mbc113fc3c6" x="20.5625" y="51.774847" style="stroke: #000000; stroke-width: 0.8"/>
      </g>
     </g>
     <g id="text_12">
      <!-- 9 -->
      <g transform="translate(7.2 55.574066) scale(0.1 -0.1)">
       <defs>
        <path id="DejaVuSans-39" d="M 703 97 
L 703 672 
Q 941 559 1184 500 
Q 1428 441 1663 441 
Q 2288 441 2617 861 
Q 2947 1281 2994 2138 
Q 2813 1869 2534 1725 
Q 2256 1581 1919 1581 
Q 1219 1581 811 2004 
Q 403 2428 403 3163 
Q 403 3881 828 4315 
Q 1253 4750 1959 4750 
Q 2769 4750 3195 4129 
Q 3622 3509 3622 2328 
Q 3622 1225 3098 567 
Q 2575 -91 1691 -91 
Q 1453 -91 1209 -44 
Q 966 3 703 97 
z
M 1959 2075 
Q 2384 2075 2632 2365 
Q 2881 2656 2881 3163 
Q 2881 3666 2632 3958 
Q 2384 4250 1959 4250 
Q 1534 4250 1286 3958 
Q 1038 3666 1038 3163 
Q 1038 2656 1286 2365 
Q 1534 2075 1959 2075 
z
" transform="scale(0.015625)"/>
       </defs>
       <use xlink:href="#DejaVuSans-39"/>
      </g>
     </g>
    </g>
   </g>
   <g id="line2d_12">
    <defs>
     <path id="meedf1e1fb5" d="M 0 3 
C 0.795609 3 1.55874 2.683901 2.12132 2.12132 
C 2.683901 1.55874 3 0.795609 3 0 
C 3 -0.795609 2.683901 -1.55874 2.12132 -2.12132 
C 1.55874 -2.683901 0.795609 -3 0 -3 
C -0.795609 -3 -1.55874 -2.683901 -2.12132 -2.12132 
C -2.683901 -1.55874 -3 -0.795609 -3 0 
C -3 0.795609 -2.683901 1.55874 -2.12132 2.12132 
C -1.55874 2.683901 -0.795609 3 0 3 
z
" style="stroke: #1f77b4"/>
    </defs>
    <g clip-path="url(#p53df1d9c48)">
     <use xlink:href="#meedf1e1fb5" x="27.941012" y="34.056" style="fill: #1f77b4; stroke: #1f77b4"/>
     <use xlink:href="#meedf1e1fb5" x="30.95265" y="47.952508" style="fill: #1f77b4; stroke: #1f77b4"/>
     <use xlink:href="#meedf1e1fb5" x="33.964288" y="58.472942" style="fill: #1f77b4; stroke: #1f77b4"/>
     <use xlink:href="#meedf1e1fb5" x="36.975926" y="62.767068" style="fill: #1f77b4; stroke: #1f77b4"/>
     <use xlink:href="#meedf1e1fb5" x="39.987563" y="70.415596" style="fill: #1f77b4; stroke: #1f77b4"/>
     <use xlink:href="#meedf1e1fb5" x="42.999201" y="74.908085" style="fill: #1f77b4; stroke: #1f77b4"/>
     <use xlink:href="#meedf1e1fb5" x="46.010839" y="84.375068" style="fill: #1f77b4; stroke: #1f77b4"/>
     <use xlink:href="#meedf1e1fb5" x="49.022476" y="89.089357" style="fill: #1f77b4; stroke: #1f77b4"/>
     <use xlink:href="#meedf1e1fb5" x="52.034114" y="93.414734" style="fill: #1f77b4; stroke: #1f77b4"/>
     <use xlink:href="#meedf1e1fb5" x="55.045752" y="97.271529" style="fill: #1f77b4; stroke: #1f77b4"/>
     <use xlink:href="#meedf1e1fb5" x="58.05739" y="102.41793" style="fill: #1f77b4; stroke: #1f77b4"/>
     <use xlink:href="#meedf1e1fb5" x="61.069027" y="107.976886" style="fill: #1f77b4; stroke: #1f77b4"/>
     <use xlink:href="#meedf1e1fb5" x="64.080665" y="113.953295" style="fill: #1f77b4; stroke: #1f77b4"/>
     <use xlink:href="#meedf1e1fb5" x="67.092303" y="119.663546" style="fill: #1f77b4; stroke: #1f77b4"/>
     <use xlink:href="#meedf1e1fb5" x="70.10394" y="126.044362" style="fill: #1f77b4; stroke: #1f77b4"/>
     <use xlink:href="#meedf1e1fb5" x="73.115578" y="130.09708" style="fill: #1f77b4; stroke: #1f77b4"/>
     <use xlink:href="#meedf1e1fb5" x="76.127216" y="131.923075" style="fill: #1f77b4; stroke: #1f77b4"/>
     <use xlink:href="#meedf1e1fb5" x="79.138854" y="138.160355" style="fill: #1f77b4; stroke: #1f77b4"/>
     <use xlink:href="#meedf1e1fb5" x="82.150491" y="140.005325" style="fill: #1f77b4; stroke: #1f77b4"/>
     <use xlink:href="#meedf1e1fb5" x="85.162129" y="149.816715" style="fill: #1f77b4; stroke: #1f77b4"/>
     <use xlink:href="#meedf1e1fb5" x="88.173767" y="150.479281" style="fill: #1f77b4; stroke: #1f77b4"/>
     <use xlink:href="#meedf1e1fb5" x="91.185404" y="152.641553" style="fill: #1f77b4; stroke: #1f77b4"/>
     <use xlink:href="#meedf1e1fb5" x="94.197042" y="157.42476" style="fill: #1f77b4; stroke: #1f77b4"/>
     <use xlink:href="#meedf1e1fb5" x="97.20868" y="167.066662" style="fill: #1f77b4; stroke: #1f77b4"/>
     <use xlink:href="#meedf1e1fb5" x="100.220318" y="169.818958" style="fill: #1f77b4; stroke: #1f77b4"/>
     <use xlink:href="#meedf1e1fb5" x="103.231955" y="176.874653" style="fill: #1f77b4; stroke: #1f77b4"/>
     <use xlink:href="#meedf1e1fb5" x="106.243593" y="177.548333" style="fill: #1f77b4; stroke: #1f77b4"/>
     <use xlink:href="#meedf1e1fb5" x="109.255231" y="179.006746" style="fill: #1f77b4; stroke: #1f77b4"/>
     <use xlink:href="#meedf1e1fb5" x="112.266868" y="190.897424" style="fill: #1f77b4; stroke: #1f77b4"/>
     <use xlink:href="#meedf1e1fb5" x="115.278506" y="192.796677" style="fill: #1f77b4; stroke: #1f77b4"/>
     <use xlink:href="#meedf1e1fb5" x="118.290144" y="197.310599" style="fill: #1f77b4; stroke: #1f77b4"/>
     <use xlink:href="#meedf1e1fb5" x="121.301781" y="200.912422" style="fill: #1f77b4; stroke: #1f77b4"/>
     <use xlink:href="#meedf1e1fb5" x="124.313419" y="203.967712" style="fill: #1f77b4; stroke: #1f77b4"/>
     <use xlink:href="#meedf1e1fb5" x="127.325057" y="209.009307" style="fill: #1f77b4; stroke: #1f77b4"/>
     <use xlink:href="#meedf1e1fb5" x="130.336695" y="210.604468" style="fill: #1f77b4; stroke: #1f77b4"/>
     <use xlink:href="#meedf1e1fb5" x="133.348332" y="214.818373" style="fill: #1f77b4; stroke: #1f77b4"/>
     <use xlink:href="#meedf1e1fb5" x="136.35997" y="217.763241" style="fill: #1f77b4; stroke: #1f77b4"/>
     <use xlink:href="#meedf1e1fb5" x="139.371608" y="220.437898" style="fill: #1f77b4; stroke: #1f77b4"/>
     <use xlink:href="#meedf1e1fb5" x="142.383245" y="224.836202" style="fill: #1f77b4; stroke: #1f77b4"/>
     <use xlink:href="#meedf1e1fb5" x="145.394883" y="229.198923" style="fill: #1f77b4; stroke: #1f77b4"/>
     <use xlink:href="#meedf1e1fb5" x="148.406521" y="233.553126" style="fill: #1f77b4; stroke: #1f77b4"/>
     <use xlink:href="#meedf1e1fb5" x="151.418159" y="241.514121" style="fill: #1f77b4; stroke: #1f77b4"/>
     <use xlink:href="#meedf1e1fb5" x="154.429796" y="245.529126" style="fill: #1f77b4; stroke: #1f77b4"/>
     <use xlink:href="#meedf1e1fb5" x="157.441434" y="248.834314" style="fill: #1f77b4; stroke: #1f77b4"/>
     <use xlink:href="#meedf1e1fb5" x="160.453072" y="255.637931" style="fill: #1f77b4; stroke: #1f77b4"/>
     <use xlink:href="#meedf1e1fb5" x="163.464709" y="260.040767" style="fill: #1f77b4; stroke: #1f77b4"/>
     <use xlink:href="#meedf1e1fb5" x="166.476347" y="263.292457" style="fill: #1f77b4; stroke: #1f77b4"/>
     <use xlink:href="#meedf1e1fb5" x="169.487985" y="268.217003" style="fill: #1f77b4; stroke: #1f77b4"/>
     <use xlink:href="#meedf1e1fb5" x="172.499623" y="273.958499" style="fill: #1f77b4; stroke: #1f77b4"/>
     <use xlink:href="#meedf1e1fb5" x="175.51126" y="275.976" style="fill: #1f77b4; stroke: #1f77b4"/>
    </g>
   </g>
   <g id="patch_3">
    <path d="M 20.5625 288.072 
L 20.5625 21.96 
" style="fill: none; stroke: #000000; stroke-width: 0.8; stroke-linejoin: miter; stroke-linecap: square"/>
   </g>
   <g id="patch_4">
    <path d="M 182.889773 288.072 
L 182.889773 21.96 
" style="fill: none; stroke: #000000; stroke-width: 0.8; stroke-linejoin: miter; stroke-linecap: square"/>
   </g>
   <g id="patch_5">
    <path d="M 20.5625 288.072 
L 182.889773 288.072 
" style="fill: none; stroke: #000000; stroke-width: 0.8; stroke-linejoin: miter; stroke-linecap: square"/>
   </g>
   <g id="patch_6">
    <path d="M 20.5625 21.96 
L 182.889773 21.96 
" style="fill: none; stroke: #000000; stroke-width: 0.8; stroke-linejoin: miter; stroke-linecap: square"/>
   </g>
   <g id="text_13">
    <!-- $\sigma_j$ -->
    <g transform="translate(96.566136 15.96) scale(0.12 -0.12)">
     <defs>
      <path id="DejaVuSans-Oblique-3c3" d="M 2219 3044 
Q 1744 3044 1422 2700 
Q 1081 2341 969 1747 
Q 844 1119 1044 756 
Q 1241 397 1706 397 
Q 2166 397 2503 759 
Q 2844 1122 2966 1747 
Q 3075 2319 2881 2700 
Q 2700 3044 2219 3044 
z
M 2309 3503 
L 4219 3500 
L 4106 2925 
L 3463 2925 
Q 3706 2438 3575 1747 
Q 3406 888 2884 400 
Q 2359 -91 1609 -91 
Q 856 -91 525 400 
Q 194 888 363 1747 
Q 528 2609 1050 3097 
Q 1484 3503 2309 3503 
z
" transform="scale(0.015625)"/>
      <path id="DejaVuSans-Oblique-6a" d="M 928 3500 
L 1503 3500 
L 813 -63 
L 809 -78 
Q 694 -675 544 -897 
Q 403 -1106 132 -1218 
Q -138 -1331 -506 -1331 
L -722 -1331 
L -628 -844 
L -481 -844 
Q -144 -844 -1 -703 
Q 141 -563 238 -63 
L 928 3500 
z
M 1197 4863 
L 1772 4863 
L 1631 4134 
L 1056 4134 
L 1197 4863 
z
" transform="scale(0.015625)"/>
     </defs>
     <use xlink:href="#DejaVuSans-Oblique-3c3" transform="translate(0 0.265625)"/>
     <use xlink:href="#DejaVuSans-Oblique-6a" transform="translate(63.378906 -16.140625) scale(0.7)"/>
    </g>
   </g>
  </g>
  <g id="axes_2">
   <g id="patch_7">
    <path d="M 215.355227 288.072 
L 377.6825 288.072 
L 377.6825 21.96 
L 215.355227 21.96 
z
" style="fill: #ffffff"/>
   </g>
   <g id="matplotlib.axis_3">
    <g id="xtick_4">
     <g id="line2d_13">
      <g>
       <use xlink:href="#me73e964f9d" x="222.73374" y="288.072" style="stroke: #000000; stroke-width: 0.8"/>
      </g>
     </g>
     <g id="text_14">
      <!-- 0 -->
      <g transform="translate(219.55249 302.670437) scale(0.1 -0.1)">
       <use xlink:href="#DejaVuSans-30"/>
      </g>
     </g>
    </g>
    <g id="xtick_5">
     <g id="line2d_14">
      <g>
       <use xlink:href="#me73e964f9d" x="282.966494" y="288.072" style="stroke: #000000; stroke-width: 0.8"/>
      </g>
     </g>
     <g id="text_15">
      <!-- 20 -->
      <g transform="translate(276.603994 302.670437) scale(0.1 -0.1)">
       <use xlink:href="#DejaVuSans-32"/>
       <use xlink:href="#DejaVuSans-30" transform="translate(63.623047 0)"/>
      </g>
     </g>
    </g>
    <g id="xtick_6">
     <g id="line2d_15">
      <g>
       <use xlink:href="#me73e964f9d" x="343.199248" y="288.072" style="stroke: #000000; stroke-width: 0.8"/>
      </g>
     </g>
     <g id="text_16">
      <!-- 40 -->
      <g transform="translate(336.836748 302.670437) scale(0.1 -0.1)">
       <use xlink:href="#DejaVuSans-34"/>
       <use xlink:href="#DejaVuSans-30" transform="translate(63.623047 0)"/>
      </g>
     </g>
    </g>
    <g id="text_17">
     <!-- j -->
     <g transform="translate(295.129801 316.348562) scale(0.1 -0.1)">
      <use xlink:href="#DejaVuSans-6a"/>
     </g>
    </g>
   </g>
   <g id="matplotlib.axis_4">
    <g id="ytick_9">
     <g id="line2d_16">
      <g>
       <use xlink:href="#mbc113fc3c6" x="215.355227" y="279.28269" style="stroke: #000000; stroke-width: 0.8"/>
      </g>
     </g>
     <g id="text_18">
      <!-- 0.2 -->
      <g transform="translate(192.452102 283.081909) scale(0.1 -0.1)">
       <defs>
        <path id="DejaVuSans-2e" d="M 684 794 
L 1344 794 
L 1344 0 
L 684 0 
L 684 794 
z
" transform="scale(0.015625)"/>
       </defs>
       <use xlink:href="#DejaVuSans-30"/>
       <use xlink:href="#DejaVuSans-2e" transform="translate(63.623047 0)"/>
       <use xlink:href="#DejaVuSans-32" transform="translate(95.410156 0)"/>
      </g>
     </g>
    </g>
    <g id="ytick_10">
     <g id="line2d_17">
      <g>
       <use xlink:href="#mbc113fc3c6" x="215.355227" y="248.629354" style="stroke: #000000; stroke-width: 0.8"/>
      </g>
     </g>
     <g id="text_19">
      <!-- 0.3 -->
      <g transform="translate(192.452102 252.428573) scale(0.1 -0.1)">
       <use xlink:href="#DejaVuSans-30"/>
       <use xlink:href="#DejaVuSans-2e" transform="translate(63.623047 0)"/>
       <use xlink:href="#DejaVuSans-33" transform="translate(95.410156 0)"/>
      </g>
     </g>
    </g>
    <g id="ytick_11">
     <g id="line2d_18">
      <g>
       <use xlink:href="#mbc113fc3c6" x="215.355227" y="217.976018" style="stroke: #000000; stroke-width: 0.8"/>
      </g>
     </g>
     <g id="text_20">
      <!-- 0.4 -->
      <g transform="translate(192.452102 221.775236) scale(0.1 -0.1)">
       <use xlink:href="#DejaVuSans-30"/>
       <use xlink:href="#DejaVuSans-2e" transform="translate(63.623047 0)"/>
       <use xlink:href="#DejaVuSans-34" transform="translate(95.410156 0)"/>
      </g>
     </g>
    </g>
    <g id="ytick_12">
     <g id="line2d_19">
      <g>
       <use xlink:href="#mbc113fc3c6" x="215.355227" y="187.322681" style="stroke: #000000; stroke-width: 0.8"/>
      </g>
     </g>
     <g id="text_21">
      <!-- 0.5 -->
      <g transform="translate(192.452102 191.1219) scale(0.1 -0.1)">
       <use xlink:href="#DejaVuSans-30"/>
       <use xlink:href="#DejaVuSans-2e" transform="translate(63.623047 0)"/>
       <use xlink:href="#DejaVuSans-35" transform="translate(95.410156 0)"/>
      </g>
     </g>
    </g>
    <g id="ytick_13">
     <g id="line2d_20">
      <g>
       <use xlink:href="#mbc113fc3c6" x="215.355227" y="156.669345" style="stroke: #000000; stroke-width: 0.8"/>
      </g>
     </g>
     <g id="text_22">
      <!-- 0.6 -->
      <g transform="translate(192.452102 160.468564) scale(0.1 -0.1)">
       <use xlink:href="#DejaVuSans-30"/>
       <use xlink:href="#DejaVuSans-2e" transform="translate(63.623047 0)"/>
       <use xlink:href="#DejaVuSans-36" transform="translate(95.410156 0)"/>
      </g>
     </g>
    </g>
    <g id="ytick_14">
     <g id="line2d_21">
      <g>
       <use xlink:href="#mbc113fc3c6" x="215.355227" y="126.016009" style="stroke: #000000; stroke-width: 0.8"/>
      </g>
     </g>
     <g id="text_23">
      <!-- 0.7 -->
      <g transform="translate(192.452102 129.815228) scale(0.1 -0.1)">
       <use xlink:href="#DejaVuSans-30"/>
       <use xlink:href="#DejaVuSans-2e" transform="translate(63.623047 0)"/>
       <use xlink:href="#DejaVuSans-37" transform="translate(95.410156 0)"/>
      </g>
     </g>
    </g>
    <g id="ytick_15">
     <g id="line2d_22">
      <g>
       <use xlink:href="#mbc113fc3c6" x="215.355227" y="95.362673" style="stroke: #000000; stroke-width: 0.8"/>
      </g>
     </g>
     <g id="text_24">
      <!-- 0.8 -->
      <g transform="translate(192.452102 99.161891) scale(0.1 -0.1)">
       <use xlink:href="#DejaVuSans-30"/>
       <use xlink:href="#DejaVuSans-2e" transform="translate(63.623047 0)"/>
       <use xlink:href="#DejaVuSans-38" transform="translate(95.410156 0)"/>
      </g>
     </g>
    </g>
    <g id="ytick_16">
     <g id="line2d_23">
      <g>
       <use xlink:href="#mbc113fc3c6" x="215.355227" y="64.709336" style="stroke: #000000; stroke-width: 0.8"/>
      </g>
     </g>
     <g id="text_25">
      <!-- 0.9 -->
      <g transform="translate(192.452102 68.508555) scale(0.1 -0.1)">
       <use xlink:href="#DejaVuSans-30"/>
       <use xlink:href="#DejaVuSans-2e" transform="translate(63.623047 0)"/>
       <use xlink:href="#DejaVuSans-39" transform="translate(95.410156 0)"/>
      </g>
     </g>
    </g>
    <g id="ytick_17">
     <g id="line2d_24">
      <g>
       <use xlink:href="#mbc113fc3c6" x="215.355227" y="34.056" style="stroke: #000000; stroke-width: 0.8"/>
      </g>
     </g>
     <g id="text_26">
      <!-- 1.0 -->
      <g transform="translate(192.452102 37.855219) scale(0.1 -0.1)">
       <defs>
        <path id="DejaVuSans-31" d="M 794 531 
L 1825 531 
L 1825 4091 
L 703 3866 
L 703 4441 
L 1819 4666 
L 2450 4666 
L 2450 531 
L 3481 531 
L 3481 0 
L 794 0 
L 794 531 
z
" transform="scale(0.015625)"/>
       </defs>
       <use xlink:href="#DejaVuSans-31"/>
       <use xlink:href="#DejaVuSans-2e" transform="translate(63.623047 0)"/>
       <use xlink:href="#DejaVuSans-30" transform="translate(95.410156 0)"/>
      </g>
     </g>
    </g>
   </g>
   <g id="line2d_25">
    <g clip-path="url(#p45079c4277)">
     <use xlink:href="#meedf1e1fb5" x="222.73374" y="34.056" style="fill: #1f77b4; stroke: #1f77b4"/>
     <use xlink:href="#meedf1e1fb5" x="225.745377" y="47.952508" style="fill: #1f77b4; stroke: #1f77b4"/>
     <use xlink:href="#meedf1e1fb5" x="228.757015" y="58.472942" style="fill: #1f77b4; stroke: #1f77b4"/>
     <use xlink:href="#meedf1e1fb5" x="231.768653" y="62.767068" style="fill: #1f77b4; stroke: #1f77b4"/>
     <use xlink:href="#meedf1e1fb5" x="234.780291" y="70.415596" style="fill: #1f77b4; stroke: #1f77b4"/>
     <use xlink:href="#meedf1e1fb5" x="237.791928" y="74.908085" style="fill: #1f77b4; stroke: #1f77b4"/>
     <use xlink:href="#meedf1e1fb5" x="240.803566" y="84.375068" style="fill: #1f77b4; stroke: #1f77b4"/>
     <use xlink:href="#meedf1e1fb5" x="243.815204" y="89.089357" style="fill: #1f77b4; stroke: #1f77b4"/>
     <use xlink:href="#meedf1e1fb5" x="246.826841" y="93.414734" style="fill: #1f77b4; stroke: #1f77b4"/>
     <use xlink:href="#meedf1e1fb5" x="249.838479" y="97.271529" style="fill: #1f77b4; stroke: #1f77b4"/>
     <use xlink:href="#meedf1e1fb5" x="252.850117" y="102.41793" style="fill: #1f77b4; stroke: #1f77b4"/>
     <use xlink:href="#meedf1e1fb5" x="255.861755" y="107.976886" style="fill: #1f77b4; stroke: #1f77b4"/>
     <use xlink:href="#meedf1e1fb5" x="258.873392" y="113.953295" style="fill: #1f77b4; stroke: #1f77b4"/>
     <use xlink:href="#meedf1e1fb5" x="261.88503" y="119.663546" style="fill: #1f77b4; stroke: #1f77b4"/>
     <use xlink:href="#meedf1e1fb5" x="264.896668" y="126.044362" style="fill: #1f77b4; stroke: #1f77b4"/>
     <use xlink:href="#meedf1e1fb5" x="267.908305" y="130.09708" style="fill: #1f77b4; stroke: #1f77b4"/>
     <use xlink:href="#meedf1e1fb5" x="270.919943" y="131.923075" style="fill: #1f77b4; stroke: #1f77b4"/>
     <use xlink:href="#meedf1e1fb5" x="273.931581" y="138.160355" style="fill: #1f77b4; stroke: #1f77b4"/>
     <use xlink:href="#meedf1e1fb5" x="276.943219" y="140.005325" style="fill: #1f77b4; stroke: #1f77b4"/>
     <use xlink:href="#meedf1e1fb5" x="279.954856" y="149.816715" style="fill: #1f77b4; stroke: #1f77b4"/>
     <use xlink:href="#meedf1e1fb5" x="282.966494" y="150.479281" style="fill: #1f77b4; stroke: #1f77b4"/>
     <use xlink:href="#meedf1e1fb5" x="285.978132" y="152.641553" style="fill: #1f77b4; stroke: #1f77b4"/>
     <use xlink:href="#meedf1e1fb5" x="288.989769" y="157.42476" style="fill: #1f77b4; stroke: #1f77b4"/>
     <use xlink:href="#meedf1e1fb5" x="292.001407" y="167.066662" style="fill: #1f77b4; stroke: #1f77b4"/>
     <use xlink:href="#meedf1e1fb5" x="295.013045" y="169.818958" style="fill: #1f77b4; stroke: #1f77b4"/>
     <use xlink:href="#meedf1e1fb5" x="298.024682" y="176.874653" style="fill: #1f77b4; stroke: #1f77b4"/>
     <use xlink:href="#meedf1e1fb5" x="301.03632" y="177.548333" style="fill: #1f77b4; stroke: #1f77b4"/>
     <use xlink:href="#meedf1e1fb5" x="304.047958" y="179.006746" style="fill: #1f77b4; stroke: #1f77b4"/>
     <use xlink:href="#meedf1e1fb5" x="307.059596" y="190.897424" style="fill: #1f77b4; stroke: #1f77b4"/>
     <use xlink:href="#meedf1e1fb5" x="310.071233" y="192.796677" style="fill: #1f77b4; stroke: #1f77b4"/>
     <use xlink:href="#meedf1e1fb5" x="313.082871" y="197.310599" style="fill: #1f77b4; stroke: #1f77b4"/>
     <use xlink:href="#meedf1e1fb5" x="316.094509" y="200.912422" style="fill: #1f77b4; stroke: #1f77b4"/>
     <use xlink:href="#meedf1e1fb5" x="319.106146" y="203.967712" style="fill: #1f77b4; stroke: #1f77b4"/>
     <use xlink:href="#meedf1e1fb5" x="322.117784" y="209.009307" style="fill: #1f77b4; stroke: #1f77b4"/>
     <use xlink:href="#meedf1e1fb5" x="325.129422" y="210.604468" style="fill: #1f77b4; stroke: #1f77b4"/>
     <use xlink:href="#meedf1e1fb5" x="328.14106" y="214.818373" style="fill: #1f77b4; stroke: #1f77b4"/>
     <use xlink:href="#meedf1e1fb5" x="331.152697" y="217.763241" style="fill: #1f77b4; stroke: #1f77b4"/>
     <use xlink:href="#meedf1e1fb5" x="334.164335" y="220.437898" style="fill: #1f77b4; stroke: #1f77b4"/>
     <use xlink:href="#meedf1e1fb5" x="337.175973" y="224.836202" style="fill: #1f77b4; stroke: #1f77b4"/>
     <use xlink:href="#meedf1e1fb5" x="340.18761" y="229.198923" style="fill: #1f77b4; stroke: #1f77b4"/>
     <use xlink:href="#meedf1e1fb5" x="343.199248" y="233.553126" style="fill: #1f77b4; stroke: #1f77b4"/>
     <use xlink:href="#meedf1e1fb5" x="346.210886" y="241.514121" style="fill: #1f77b4; stroke: #1f77b4"/>
     <use xlink:href="#meedf1e1fb5" x="349.222524" y="245.529126" style="fill: #1f77b4; stroke: #1f77b4"/>
     <use xlink:href="#meedf1e1fb5" x="352.234161" y="248.834314" style="fill: #1f77b4; stroke: #1f77b4"/>
     <use xlink:href="#meedf1e1fb5" x="355.245799" y="255.637931" style="fill: #1f77b4; stroke: #1f77b4"/>
     <use xlink:href="#meedf1e1fb5" x="358.257437" y="260.040767" style="fill: #1f77b4; stroke: #1f77b4"/>
     <use xlink:href="#meedf1e1fb5" x="361.269074" y="263.292457" style="fill: #1f77b4; stroke: #1f77b4"/>
     <use xlink:href="#meedf1e1fb5" x="364.280712" y="268.217003" style="fill: #1f77b4; stroke: #1f77b4"/>
     <use xlink:href="#meedf1e1fb5" x="367.29235" y="273.958499" style="fill: #1f77b4; stroke: #1f77b4"/>
     <use xlink:href="#meedf1e1fb5" x="370.303988" y="275.976" style="fill: #1f77b4; stroke: #1f77b4"/>
    </g>
   </g>
   <g id="patch_8">
    <path d="M 215.355227 288.072 
L 215.355227 21.96 
" style="fill: none; stroke: #000000; stroke-width: 0.8; stroke-linejoin: miter; stroke-linecap: square"/>
   </g>
   <g id="patch_9">
    <path d="M 377.6825 288.072 
L 377.6825 21.96 
" style="fill: none; stroke: #000000; stroke-width: 0.8; stroke-linejoin: miter; stroke-linecap: square"/>
   </g>
   <g id="patch_10">
    <path d="M 215.355227 288.072 
L 377.6825 288.072 
" style="fill: none; stroke: #000000; stroke-width: 0.8; stroke-linejoin: miter; stroke-linecap: square"/>
   </g>
   <g id="patch_11">
    <path d="M 215.355227 21.96 
L 377.6825 21.96 
" style="fill: none; stroke: #000000; stroke-width: 0.8; stroke-linejoin: miter; stroke-linecap: square"/>
   </g>
   <g id="text_27">
    <!-- $\sigma_j/\sigma_1$ -->
    <g transform="translate(282.718864 15.96) scale(0.12 -0.12)">
     <defs>
      <path id="DejaVuSans-2f" d="M 1625 4666 
L 2156 4666 
L 531 -594 
L 0 -594 
L 1625 4666 
z
" transform="scale(0.015625)"/>
     </defs>
     <use xlink:href="#DejaVuSans-Oblique-3c3" transform="translate(0 0.09375)"/>
     <use xlink:href="#DejaVuSans-Oblique-6a" transform="translate(63.378906 -16.3125) scale(0.7)"/>
     <use xlink:href="#DejaVuSans-2f" transform="translate(85.561523 0.09375)"/>
     <use xlink:href="#DejaVuSans-Oblique-3c3" transform="translate(119.25293 0.09375)"/>
     <use xlink:href="#DejaVuSans-31" transform="translate(182.631836 -16.3125) scale(0.7)"/>
    </g>
   </g>
  </g>
 </g>
 <defs>
  <clipPath id="p53df1d9c48">
   <rect x="20.5625" y="21.96" width="162.327273" height="266.112"/>
  </clipPath>
  <clipPath id="p45079c4277">
   <rect x="215.355227" y="21.96" width="162.327273" height="266.112"/>
  </clipPath>
 </defs>
</svg>