<?xml version="1.0" encoding="utf-8" standalone="no"?>
<!DOCTYPE svg PUBLIC "-//W3C//DTD SVG 1.1//EN"
  "http://www.w3.org/Graphics/SVG/1.1/DTD/svg11.dtd">
<svg xmlns:xlink="http://www.w3.org/1999/xlink" width="555.84pt" height="267.84pt" viewBox="0 0 555.84 267.84" xmlns="http://www.w3.org/2000/svg" version="1.1">
 <metadata>
  <rdf:RDF xmlns:dc="http://purl.org/dc/elements/1.1/" xmlns:cc="http://creativecommons.org/ns#" xmlns:rdf="http://www.w3.org/1999/02/22-rdf-syntax-ns#">
   <cc:Work>
    <dc:type rdf:resource="http://purl.org/dc/dcmitype/StillImage"/>
    <dc:date>2025-01-02T14:02:09.413978</dc:date>
    <dc:format>image/svg+xml</dc:format>
    <dc:creator>
     <cc:Agent>
      <dc:title>Matplotlib v3.10.0, https://matplotlib.org/</dc:title>
     </cc:Agent>
    </dc:creator>
   </cc:Work>
  </rdf:RDF>
 </metadata>
 <defs>
  <style type="text/css">*{stroke-linejoin: round; stroke-linecap: butt}</style>
 </defs>
 <g id="figure_1">
  <g id="patch_1">
   <path d="M 0 267.84 
L 555.84 267.84 
L 555.84 0 
L 0 0 
z
" style="fill: #ffffff"/>
  </g>
  <g id="axes_1">
   <g id="patch_2">
    <path d="M 54.2725 218.67 
L 548.64 218.67 
L 548.64 7.2 
L 54.2725 7.2 
z
" style="fill: #ffffff"/>
   </g>
   <g id="patch_3">
    <path d="M 76.74375 218.67 
L 86.25539 218.67 
L 86.25539 17.27 
L 76.74375 17.27 
z
" clip-path="url(#p6512a0bde1)" style="fill: #1f77b4"/>
   </g>
   <g id="patch_4">
    <path d="M 88.6333 218.67 
L 98.14494 218.67 
L 98.14494 23.56375 
L 88.6333 23.56375 
z
" clip-path="url(#p6512a0bde1)" style="fill: #1f77b4"/>
   </g>
   <g id="patch_5">
    <path d="M 100.522851 218.67 
L 110.034491 218.67 
L 110.034491 17.27 
L 100.522851 17.27 
z
" clip-path="url(#p6512a0bde1)" style="fill: #1f77b4"/>
   </g>
   <g id="patch_6">
    <path d="M 112.412401 218.67 
L 121.924041 218.67 
L 121.924041 17.27 
L 112.412401 17.27 
z
" clip-path="url(#p6512a0bde1)" style="fill: #1f77b4"/>
   </g>
   <g id="patch_7">
    <path d="M 124.301951 218.67 
L 133.813591 218.67 
L 133.813591 23.56375 
L 124.301951 23.56375 
z
" clip-path="url(#p6512a0bde1)" style="fill: #1f77b4"/>
   </g>
   <g id="patch_8">
    <path d="M 136.191501 218.67 
L 145.703142 218.67 
L 145.703142 17.27 
L 136.191501 17.27 
z
" clip-path="url(#p6512a0bde1)" style="fill: #1f77b4"/>
   </g>
   <g id="patch_9">
    <path d="M 148.081052 218.67 
L 157.592692 218.67 
L 157.592692 17.27 
L 148.081052 17.27 
z
" clip-path="url(#p6512a0bde1)" style="fill: #1f77b4"/>
   </g>
   <g id="patch_10">
    <path d="M 159.970602 218.67 
L 169.482242 218.67 
L 169.482242 17.27 
L 159.970602 17.27 
z
" clip-path="url(#p6512a0bde1)" style="fill: #1f77b4"/>
   </g>
   <g id="patch_11">
    <path d="M 171.860152 218.67 
L 181.371792 218.67 
L 181.371792 17.27 
L 171.860152 17.27 
z
" clip-path="url(#p6512a0bde1)" style="fill: #1f77b4"/>
   </g>
   <g id="patch_12">
    <path d="M 183.749702 218.67 
L 193.261343 218.67 
L 193.261343 17.27 
L 183.749702 17.27 
z
" clip-path="url(#p6512a0bde1)" style="fill: #1f77b4"/>
   </g>
   <g id="patch_13">
    <path d="M 195.639253 218.67 
L 205.150893 218.67 
L 205.150893 29.8575 
L 195.639253 29.8575 
z
" clip-path="url(#p6512a0bde1)" style="fill: #1f77b4"/>
   </g>
   <g id="patch_14">
    <path d="M 207.528803 218.67 
L 217.040443 218.67 
L 217.040443 33.004375 
L 207.528803 33.004375 
z
" clip-path="url(#p6512a0bde1)" style="fill: #1f77b4"/>
   </g>
   <g id="patch_15">
    <path d="M 219.418353 218.67 
L 228.929993 218.67 
L 228.929993 29.8575 
L 219.418353 29.8575 
z
" clip-path="url(#p6512a0bde1)" style="fill: #1f77b4"/>
   </g>
   <g id="patch_16">
    <path d="M 231.307903 218.67 
L 240.819544 218.67 
L 240.819544 20.416875 
L 231.307903 20.416875 
z
" clip-path="url(#p6512a0bde1)" style="fill: #1f77b4"/>
   </g>
   <g id="patch_17">
    <path d="M 243.197454 218.67 
L 252.709094 218.67 
L 252.709094 23.56375 
L 243.197454 23.56375 
z
" clip-path="url(#p6512a0bde1)" style="fill: #1f77b4"/>
   </g>
   <g id="patch_18">
    <path d="M 255.087004 218.67 
L 264.598644 218.67 
L 264.598644 20.416875 
L 255.087004 20.416875 
z
" clip-path="url(#p6512a0bde1)" style="fill: #1f77b4"/>
   </g>
   <g id="patch_19">
    <path d="M 266.976554 218.67 
L 276.488194 218.67 
L 276.488194 20.416875 
L 266.976554 20.416875 
z
" clip-path="url(#p6512a0bde1)" style="fill: #1f77b4"/>
   </g>
   <g id="patch_20">
    <path d="M 278.866104 218.67 
L 288.377745 218.67 
L 288.377745 17.27 
L 278.866104 17.27 
z
" clip-path="url(#p6512a0bde1)" style="fill: #1f77b4"/>
   </g>
   <g id="patch_21">
    <path d="M 290.755655 218.67 
L 300.267295 218.67 
L 300.267295 17.27 
L 290.755655 17.27 
z
" clip-path="url(#p6512a0bde1)" style="fill: #1f77b4"/>
   </g>
   <g id="patch_22">
    <path d="M 302.645205 218.67 
L 312.156845 218.67 
L 312.156845 17.27 
L 302.645205 17.27 
z
" clip-path="url(#p6512a0bde1)" style="fill: #1f77b4"/>
   </g>
   <g id="patch_23">
    <path d="M 314.534755 218.67 
L 324.046396 218.67 
L 324.046396 17.27 
L 314.534755 17.27 
z
" clip-path="url(#p6512a0bde1)" style="fill: #1f77b4"/>
   </g>
   <g id="patch_24">
    <path d="M 326.424306 218.67 
L 335.935946 218.67 
L 335.935946 17.27 
L 326.424306 17.27 
z
" clip-path="url(#p6512a0bde1)" style="fill: #1f77b4"/>
   </g>
   <g id="patch_25">
    <path d="M 338.313856 218.67 
L 347.825496 218.67 
L 347.825496 17.27 
L 338.313856 17.27 
z
" clip-path="url(#p6512a0bde1)" style="fill: #1f77b4"/>
   </g>
   <g id="patch_26">
    <path d="M 350.203406 218.67 
L 359.715046 218.67 
L 359.715046 17.27 
L 350.203406 17.27 
z
" clip-path="url(#p6512a0bde1)" style="fill: #1f77b4"/>
   </g>
   <g id="patch_27">
    <path d="M 362.092956 218.67 
L 371.604597 218.67 
L 371.604597 17.27 
L 362.092956 17.27 
z
" clip-path="url(#p6512a0bde1)" style="fill: #1f77b4"/>
   </g>
   <g id="patch_28">
    <path d="M 373.982507 218.67 
L 383.494147 218.67 
L 383.494147 17.27 
L 373.982507 17.27 
z
" clip-path="url(#p6512a0bde1)" style="fill: #1f77b4"/>
   </g>
   <g id="patch_29">
    <path d="M 385.872057 218.67 
L 395.383697 218.67 
L 395.383697 17.27 
L 385.872057 17.27 
z
" clip-path="url(#p6512a0bde1)" style="fill: #1f77b4"/>
   </g>
   <g id="patch_30">
    <path d="M 397.761607 218.67 
L 407.273247 218.67 
L 407.273247 17.27 
L 397.761607 17.27 
z
" clip-path="url(#p6512a0bde1)" style="fill: #1f77b4"/>
   </g>
   <g id="patch_31">
    <path d="M 409.651157 218.67 
L 419.162798 218.67 
L 419.162798 17.27 
L 409.651157 17.27 
z
" clip-path="url(#p6512a0bde1)" style="fill: #1f77b4"/>
   </g>
   <g id="patch_32">
    <path d="M 421.540708 218.67 
L 431.052348 218.67 
L 431.052348 17.27 
L 421.540708 17.27 
z
" clip-path="url(#p6512a0bde1)" style="fill: #1f77b4"/>
   </g>
   <g id="patch_33">
    <path d="M 433.430258 218.67 
L 442.941898 218.67 
L 442.941898 17.27 
L 433.430258 17.27 
z
" clip-path="url(#p6512a0bde1)" style="fill: #1f77b4"/>
   </g>
   <g id="patch_34">
    <path d="M 445.319808 218.67 
L 454.831448 218.67 
L 454.831448 17.27 
L 445.319808 17.27 
z
" clip-path="url(#p6512a0bde1)" style="fill: #1f77b4"/>
   </g>
   <g id="patch_35">
    <path d="M 457.209358 218.67 
L 466.720999 218.67 
L 466.720999 17.27 
L 457.209358 17.27 
z
" clip-path="url(#p6512a0bde1)" style="fill: #1f77b4"/>
   </g>
   <g id="patch_36">
    <path d="M 469.098909 218.67 
L 478.610549 218.67 
L 478.610549 17.27 
L 469.098909 17.27 
z
" clip-path="url(#p6512a0bde1)" style="fill: #1f77b4"/>
   </g>
   <g id="patch_37">
    <path d="M 480.988459 218.67 
L 490.500099 218.67 
L 490.500099 17.27 
L 480.988459 17.27 
z
" clip-path="url(#p6512a0bde1)" style="fill: #1f77b4"/>
   </g>
   <g id="patch_38">
    <path d="M 492.878009 218.67 
L 502.389649 218.67 
L 502.389649 17.27 
L 492.878009 17.27 
z
" clip-path="url(#p6512a0bde1)" style="fill: #1f77b4"/>
   </g>
   <g id="patch_39">
    <path d="M 504.76756 218.67 
L 514.2792 218.67 
L 514.2792 17.27 
L 504.76756 17.27 
z
" clip-path="url(#p6512a0bde1)" style="fill: #1f77b4"/>
   </g>
   <g id="patch_40">
    <path d="M 516.65711 218.67 
L 526.16875 218.67 
L 526.16875 17.27 
L 516.65711 17.27 
z
" clip-path="url(#p6512a0bde1)" style="fill: #1f77b4"/>
   </g>
   <g id="matplotlib.axis_1">
    <g id="xtick_1">
     <g id="line2d_1">
      <defs>
       <path id="m2e264e2ebb" d="M 0 0 
L 0 3.5 
" style="stroke: #000000; stroke-width: 0.8"/>
      </defs>
      <g>
       <use xlink:href="#m2e264e2ebb" x="81.49957" y="218.67" style="fill-opacity: 0; stroke: #000000; stroke-width: 0.8"/>
      </g>
     </g>
     <g id="text_1">
      <!-- 0 -->
      <g transform="translate(76.40957 237.8275) scale(0.16 -0.16)">
       <defs>
        <path id="DejaVuSerif-30" d="M 2034 219 
Q 2513 219 2750 744 
Q 2988 1269 2988 2328 
Q 2988 3391 2750 3916 
Q 2513 4441 2034 4441 
Q 1556 4441 1318 3916 
Q 1081 3391 1081 2328 
Q 1081 1269 1318 744 
Q 1556 219 2034 219 
z
M 2034 -91 
Q 1275 -91 848 546 
Q 422 1184 422 2328 
Q 422 3475 848 4112 
Q 1275 4750 2034 4750 
Q 2797 4750 3222 4112 
Q 3647 3475 3647 2328 
Q 3647 1184 3222 546 
Q 2797 -91 2034 -91 
z
" transform="scale(0.015625)"/>
       </defs>
       <use xlink:href="#DejaVuSerif-30"/>
      </g>
     </g>
    </g>
    <g id="xtick_2">
     <g id="line2d_2">
      <g>
       <use xlink:href="#m2e264e2ebb" x="140.947321" y="218.67" style="fill-opacity: 0; stroke: #000000; stroke-width: 0.8"/>
      </g>
     </g>
     <g id="text_2">
      <!-- 5 -->
      <g transform="translate(135.857321 237.8275) scale(0.16 -0.16)">
       <defs>
        <path id="DejaVuSerif-35" d="M 3219 4666 
L 3219 4153 
L 1081 4153 
L 1081 2816 
Q 1244 2928 1461 2984 
Q 1678 3041 1947 3041 
Q 2703 3041 3140 2622 
Q 3578 2203 3578 1478 
Q 3578 738 3136 323 
Q 2694 -91 1894 -91 
Q 1572 -91 1234 -12 
Q 897 66 544 225 
L 544 1131 
L 897 1131 
Q 925 688 1179 453 
Q 1434 219 1894 219 
Q 2388 219 2653 544 
Q 2919 869 2919 1478 
Q 2919 2084 2655 2407 
Q 2391 2731 1894 2731 
Q 1613 2731 1398 2631 
Q 1184 2531 1019 2322 
L 750 2322 
L 750 4666 
L 3219 4666 
z
" transform="scale(0.015625)"/>
       </defs>
       <use xlink:href="#DejaVuSerif-35"/>
      </g>
     </g>
    </g>
    <g id="xtick_3">
     <g id="line2d_3">
      <g>
       <use xlink:href="#m2e264e2ebb" x="200.395073" y="218.67" style="fill-opacity: 0; stroke: #000000; stroke-width: 0.8"/>
      </g>
     </g>
     <g id="text_3">
      <!-- 10 -->
      <g transform="translate(190.215073 237.8275) scale(0.16 -0.16)">
       <defs>
        <path id="DejaVuSerif-31" d="M 909 0 
L 909 331 
L 1722 331 
L 1722 4213 
L 781 3603 
L 781 4013 
L 1919 4750 
L 2350 4750 
L 2350 331 
L 3163 331 
L 3163 0 
L 909 0 
z
" transform="scale(0.015625)"/>
       </defs>
       <use xlink:href="#DejaVuSerif-31"/>
       <use xlink:href="#DejaVuSerif-30" transform="translate(63.623047 0)"/>
      </g>
     </g>
    </g>
    <g id="xtick_4">
     <g id="line2d_4">
      <g>
       <use xlink:href="#m2e264e2ebb" x="259.842824" y="218.67" style="fill-opacity: 0; stroke: #000000; stroke-width: 0.8"/>
      </g>
     </g>
     <g id="text_4">
      <!-- 15 -->
      <g transform="translate(249.662824 237.8275) scale(0.16 -0.16)">
       <use xlink:href="#DejaVuSerif-31"/>
       <use xlink:href="#DejaVuSerif-35" transform="translate(63.623047 0)"/>
      </g>
     </g>
    </g>
    <g id="xtick_5">
     <g id="line2d_5">
      <g>
       <use xlink:href="#m2e264e2ebb" x="319.290575" y="218.67" style="fill-opacity: 0; stroke: #000000; stroke-width: 0.8"/>
      </g>
     </g>
     <g id="text_5">
      <!-- 20 -->
      <g transform="translate(309.110575 237.8275) scale(0.16 -0.16)">
       <defs>
        <path id="DejaVuSerif-32" d="M 819 3553 
L 469 3553 
L 469 4384 
Q 803 4563 1142 4656 
Q 1481 4750 1806 4750 
Q 2534 4750 2956 4397 
Q 3378 4044 3378 3438 
Q 3378 2753 2422 1800 
Q 2347 1728 2309 1691 
L 1131 513 
L 3078 513 
L 3078 1088 
L 3444 1088 
L 3444 0 
L 434 0 
L 434 341 
L 1850 1753 
Q 2319 2222 2519 2614 
Q 2719 3006 2719 3438 
Q 2719 3909 2473 4175 
Q 2228 4441 1797 4441 
Q 1350 4441 1106 4219 
Q 863 3997 819 3553 
z
" transform="scale(0.015625)"/>
       </defs>
       <use xlink:href="#DejaVuSerif-32"/>
       <use xlink:href="#DejaVuSerif-30" transform="translate(63.623047 0)"/>
      </g>
     </g>
    </g>
    <g id="xtick_6">
     <g id="line2d_6">
      <g>
       <use xlink:href="#m2e264e2ebb" x="378.738327" y="218.67" style="fill-opacity: 0; stroke: #000000; stroke-width: 0.8"/>
      </g>
     </g>
     <g id="text_6">
      <!-- 25 -->
      <g transform="translate(368.558327 237.8275) scale(0.16 -0.16)">
       <use xlink:href="#DejaVuSerif-32"/>
       <use xlink:href="#DejaVuSerif-35" transform="translate(63.623047 0)"/>
      </g>
     </g>
    </g>
    <g id="xtick_7">
     <g id="line2d_7">
      <g>
       <use xlink:href="#m2e264e2ebb" x="438.186078" y="218.67" style="fill-opacity: 0; stroke: #000000; stroke-width: 0.8"/>
      </g>
     </g>
     <g id="text_7">
      <!-- 30 -->
      <g transform="translate(428.006078 237.8275) scale(0.16 -0.16)">
       <defs>
        <path id="DejaVuSerif-33" d="M 622 4469 
Q 988 4606 1323 4678 
Q 1659 4750 1953 4750 
Q 2638 4750 3022 4454 
Q 3406 4159 3406 3634 
Q 3406 3213 3140 2930 
Q 2875 2647 2388 2547 
Q 2963 2466 3280 2130 
Q 3597 1794 3597 1259 
Q 3597 606 3158 257 
Q 2719 -91 1894 -91 
Q 1528 -91 1179 -12 
Q 831 66 488 225 
L 488 1131 
L 838 1131 
Q 869 681 1141 450 
Q 1413 219 1906 219 
Q 2384 219 2661 495 
Q 2938 772 2938 1253 
Q 2938 1803 2653 2086 
Q 2369 2369 1819 2369 
L 1522 2369 
L 1522 2688 
L 1678 2688 
Q 2225 2688 2498 2914 
Q 2772 3141 2772 3597 
Q 2772 4006 2547 4223 
Q 2322 4441 1900 4441 
Q 1478 4441 1245 4241 
Q 1013 4041 972 3647 
L 622 3647 
L 622 4469 
z
" transform="scale(0.015625)"/>
       </defs>
       <use xlink:href="#DejaVuSerif-33"/>
       <use xlink:href="#DejaVuSerif-30" transform="translate(63.623047 0)"/>
      </g>
     </g>
    </g>
    <g id="xtick_8">
     <g id="line2d_8">
      <g>
       <use xlink:href="#m2e264e2ebb" x="497.633829" y="218.67" style="fill-opacity: 0; stroke: #000000; stroke-width: 0.8"/>
      </g>
     </g>
     <g id="text_8">
      <!-- 35 -->
      <g transform="translate(487.453829 237.8275) scale(0.16 -0.16)">
       <use xlink:href="#DejaVuSerif-33"/>
       <use xlink:href="#DejaVuSerif-35" transform="translate(63.623047 0)"/>
      </g>
     </g>
    </g>
    <g id="text_9">
     <!-- Person number -->
     <g transform="translate(239.6875 257.3125) scale(0.16 -0.16)">
      <defs>
       <path id="DejaVuSerif-50" d="M 1581 2375 
L 2406 2375 
Q 2872 2375 3115 2626 
Q 3359 2878 3359 3353 
Q 3359 3831 3115 4081 
Q 2872 4331 2406 4331 
L 1581 4331 
L 1581 2375 
z
M 353 0 
L 353 331 
L 947 331 
L 947 4331 
L 353 4331 
L 353 4666 
L 2559 4666 
Q 3259 4666 3668 4311 
Q 4078 3956 4078 3353 
Q 4078 2753 3668 2397 
Q 3259 2041 2559 2041 
L 1581 2041 
L 1581 331 
L 2303 331 
L 2303 0 
L 353 0 
z
" transform="scale(0.015625)"/>
       <path id="DejaVuSerif-65" d="M 3469 1600 
L 991 1600 
L 991 1575 
Q 991 903 1244 561 
Q 1497 219 1991 219 
Q 2369 219 2611 417 
Q 2853 616 2950 1006 
L 3413 1006 
Q 3275 459 2904 184 
Q 2534 -91 1931 -91 
Q 1203 -91 761 389 
Q 319 869 319 1663 
Q 319 2450 753 2931 
Q 1188 3413 1894 3413 
Q 2647 3413 3050 2948 
Q 3453 2484 3469 1600 
z
M 2791 1931 
Q 2772 2513 2545 2808 
Q 2319 3103 1894 3103 
Q 1497 3103 1269 2806 
Q 1041 2509 991 1931 
L 2791 1931 
z
" transform="scale(0.015625)"/>
       <path id="DejaVuSerif-72" d="M 3059 3328 
L 3059 2497 
L 2728 2497 
Q 2713 2744 2591 2866 
Q 2469 2988 2234 2988 
Q 1809 2988 1582 2694 
Q 1356 2400 1356 1850 
L 1356 331 
L 2022 331 
L 2022 0 
L 263 0 
L 263 331 
L 781 331 
L 781 2994 
L 231 2994 
L 231 3322 
L 1356 3322 
L 1356 2731 
Q 1525 3078 1790 3245 
Q 2056 3413 2438 3413 
Q 2578 3413 2733 3391 
Q 2888 3369 3059 3328 
z
" transform="scale(0.015625)"/>
       <path id="DejaVuSerif-73" d="M 359 184 
L 359 959 
L 691 959 
Q 703 588 923 403 
Q 1144 219 1575 219 
Q 1963 219 2166 364 
Q 2369 509 2369 788 
Q 2369 1006 2220 1140 
Q 2072 1275 1594 1428 
L 1178 1569 
Q 750 1706 558 1912 
Q 366 2119 366 2438 
Q 366 2894 700 3153 
Q 1034 3413 1625 3413 
Q 1888 3413 2178 3344 
Q 2469 3275 2778 3144 
L 2778 2419 
L 2447 2419 
Q 2434 2741 2221 2922 
Q 2009 3103 1644 3103 
Q 1281 3103 1095 2975 
Q 909 2847 909 2591 
Q 909 2381 1050 2254 
Q 1191 2128 1613 1997 
L 2069 1856 
Q 2541 1709 2748 1489 
Q 2956 1269 2956 922 
Q 2956 450 2595 179 
Q 2234 -91 1600 -91 
Q 1278 -91 972 -22 
Q 666 47 359 184 
z
" transform="scale(0.015625)"/>
       <path id="DejaVuSerif-6f" d="M 1925 219 
Q 2388 219 2623 584 
Q 2859 950 2859 1663 
Q 2859 2375 2623 2739 
Q 2388 3103 1925 3103 
Q 1463 3103 1227 2739 
Q 991 2375 991 1663 
Q 991 950 1228 584 
Q 1466 219 1925 219 
z
M 1925 -91 
Q 1200 -91 759 389 
Q 319 869 319 1663 
Q 319 2456 758 2934 
Q 1197 3413 1925 3413 
Q 2653 3413 3092 2934 
Q 3531 2456 3531 1663 
Q 3531 869 3092 389 
Q 2653 -91 1925 -91 
z
" transform="scale(0.015625)"/>
       <path id="DejaVuSerif-6e" d="M 263 0 
L 263 331 
L 781 331 
L 781 2988 
L 231 2988 
L 231 3322 
L 1356 3322 
L 1356 2731 
Q 1516 3069 1770 3241 
Q 2025 3413 2363 3413 
Q 2913 3413 3172 3097 
Q 3431 2781 3431 2113 
L 3431 331 
L 3944 331 
L 3944 0 
L 2356 0 
L 2356 331 
L 2853 331 
L 2853 1931 
Q 2853 2541 2703 2767 
Q 2553 2994 2175 2994 
Q 1775 2994 1565 2701 
Q 1356 2409 1356 1850 
L 1356 331 
L 1856 331 
L 1856 0 
L 263 0 
z
" transform="scale(0.015625)"/>
       <path id="DejaVuSerif-20" transform="scale(0.015625)"/>
       <path id="DejaVuSerif-75" d="M 2266 3322 
L 3341 3322 
L 3341 331 
L 3884 331 
L 3884 0 
L 2766 0 
L 2766 588 
Q 2606 256 2353 82 
Q 2100 -91 1766 -91 
Q 1213 -91 952 223 
Q 691 538 691 1209 
L 691 2988 
L 172 2988 
L 172 3322 
L 1269 3322 
L 1269 1388 
Q 1269 781 1417 556 
Q 1566 331 1947 331 
Q 2347 331 2556 625 
Q 2766 919 2766 1478 
L 2766 2988 
L 2266 2988 
L 2266 3322 
z
" transform="scale(0.015625)"/>
       <path id="DejaVuSerif-6d" d="M 3316 2675 
Q 3481 3041 3739 3227 
Q 3997 3413 4341 3413 
Q 4863 3413 5119 3089 
Q 5375 2766 5375 2113 
L 5375 331 
L 5894 331 
L 5894 0 
L 4300 0 
L 4300 331 
L 4800 331 
L 4800 2047 
Q 4800 2556 4650 2772 
Q 4500 2988 4153 2988 
Q 3769 2988 3567 2697 
Q 3366 2406 3366 1850 
L 3366 331 
L 3866 331 
L 3866 0 
L 2291 0 
L 2291 331 
L 2791 331 
L 2791 2069 
Q 2791 2566 2641 2777 
Q 2491 2988 2144 2988 
Q 1759 2988 1557 2697 
Q 1356 2406 1356 1850 
L 1356 331 
L 1856 331 
L 1856 0 
L 263 0 
L 263 331 
L 781 331 
L 781 2994 
L 231 2994 
L 231 3322 
L 1356 3322 
L 1356 2731 
Q 1516 3063 1762 3238 
Q 2009 3413 2322 3413 
Q 2709 3413 2968 3220 
Q 3228 3028 3316 2675 
z
" transform="scale(0.015625)"/>
       <path id="DejaVuSerif-62" d="M 738 331 
L 738 4531 
L 184 4531 
L 184 4863 
L 1313 4863 
L 1313 2803 
Q 1481 3116 1742 3264 
Q 2003 3413 2388 3413 
Q 3000 3413 3387 2928 
Q 3775 2444 3775 1663 
Q 3775 881 3387 395 
Q 3000 -91 2388 -91 
Q 2003 -91 1742 57 
Q 1481 206 1313 519 
L 1313 0 
L 184 0 
L 184 331 
L 738 331 
z
M 1313 1497 
Q 1313 897 1542 583 
Q 1772 269 2209 269 
Q 2650 269 2876 622 
Q 3103 975 3103 1663 
Q 3103 2353 2876 2703 
Q 2650 3053 2209 3053 
Q 1772 3053 1542 2737 
Q 1313 2422 1313 1825 
L 1313 1497 
z
" transform="scale(0.015625)"/>
      </defs>
      <use xlink:href="#DejaVuSerif-50"/>
      <use xlink:href="#DejaVuSerif-65" transform="translate(62.785156 0)"/>
      <use xlink:href="#DejaVuSerif-72" transform="translate(121.964844 0)"/>
      <use xlink:href="#DejaVuSerif-73" transform="translate(169.767578 0)"/>
      <use xlink:href="#DejaVuSerif-6f" transform="translate(221.085938 0)"/>
      <use xlink:href="#DejaVuSerif-6e" transform="translate(281.291016 0)"/>
      <use xlink:href="#DejaVuSerif-20" transform="translate(345.695312 0)"/>
      <use xlink:href="#DejaVuSerif-6e" transform="translate(377.482422 0)"/>
      <use xlink:href="#DejaVuSerif-75" transform="translate(441.886719 0)"/>
      <use xlink:href="#DejaVuSerif-6d" transform="translate(506.291016 0)"/>
      <use xlink:href="#DejaVuSerif-62" transform="translate(601.115234 0)"/>
      <use xlink:href="#DejaVuSerif-65" transform="translate(665.128906 0)"/>
      <use xlink:href="#DejaVuSerif-72" transform="translate(724.308594 0)"/>
     </g>
    </g>
   </g>
   <g id="matplotlib.axis_2">
    <g id="ytick_1">
     <g id="line2d_9">
      <defs>
       <path id="m8d2f765112" d="M 0 0 
L -3.5 0 
" style="stroke: #000000; stroke-width: 0.8"/>
      </defs>
      <g>
       <use xlink:href="#m8d2f765112" x="54.2725" y="218.67" style="fill-opacity: 0; stroke: #000000; stroke-width: 0.8"/>
      </g>
     </g>
     <g id="text_10">
      <!-- 0 -->
      <g transform="translate(37.0925 224.74875) scale(0.16 -0.16)">
       <use xlink:href="#DejaVuSerif-30"/>
      </g>
     </g>
    </g>
    <g id="ytick_2">
     <g id="line2d_10">
      <g>
       <use xlink:href="#m8d2f765112" x="54.2725" y="155.7325" style="fill-opacity: 0; stroke: #000000; stroke-width: 0.8"/>
      </g>
     </g>
     <g id="text_11">
      <!-- 20 -->
      <g transform="translate(26.9125 161.81125) scale(0.16 -0.16)">
       <use xlink:href="#DejaVuSerif-32"/>
       <use xlink:href="#DejaVuSerif-30" transform="translate(63.623047 0)"/>
      </g>
     </g>
    </g>
    <g id="ytick_3">
     <g id="line2d_11">
      <g>
       <use xlink:href="#m8d2f765112" x="54.2725" y="92.795" style="fill-opacity: 0; stroke: #000000; stroke-width: 0.8"/>
      </g>
     </g>
     <g id="text_12">
      <!-- 40 -->
      <g transform="translate(26.9125 98.87375) scale(0.16 -0.16)">
       <defs>
        <path id="DejaVuSerif-34" d="M 2234 1581 
L 2234 4063 
L 641 1581 
L 2234 1581 
z
M 3609 0 
L 1484 0 
L 1484 331 
L 2234 331 
L 2234 1247 
L 197 1247 
L 197 1588 
L 2241 4750 
L 2859 4750 
L 2859 1581 
L 3750 1581 
L 3750 1247 
L 2859 1247 
L 2859 331 
L 3609 331 
L 3609 0 
z
" transform="scale(0.015625)"/>
       </defs>
       <use xlink:href="#DejaVuSerif-34"/>
       <use xlink:href="#DejaVuSerif-30" transform="translate(63.623047 0)"/>
      </g>
     </g>
    </g>
    <g id="ytick_4">
     <g id="line2d_12">
      <g>
       <use xlink:href="#m8d2f765112" x="54.2725" y="29.8575" style="fill-opacity: 0; stroke: #000000; stroke-width: 0.8"/>
      </g>
     </g>
     <g id="text_13">
      <!-- 60 -->
      <g transform="translate(26.9125 35.93625) scale(0.16 -0.16)">
       <defs>
        <path id="DejaVuSerif-36" d="M 2094 219 
Q 2534 219 2771 542 
Q 3009 866 3009 1472 
Q 3009 2078 2771 2401 
Q 2534 2725 2094 2725 
Q 1647 2725 1412 2412 
Q 1178 2100 1178 1509 
Q 1178 888 1415 553 
Q 1653 219 2094 219 
z
M 1075 2569 
Q 1288 2803 1556 2918 
Q 1825 3034 2163 3034 
Q 2859 3034 3264 2615 
Q 3669 2197 3669 1472 
Q 3669 763 3233 336 
Q 2797 -91 2069 -91 
Q 1278 -91 853 498 
Q 428 1088 428 2181 
Q 428 3406 931 4078 
Q 1434 4750 2350 4750 
Q 2597 4750 2869 4703 
Q 3141 4656 3425 4563 
L 3425 3794 
L 3072 3794 
Q 3034 4109 2831 4275 
Q 2628 4441 2284 4441 
Q 1678 4441 1381 3981 
Q 1084 3522 1075 2569 
z
" transform="scale(0.015625)"/>
       </defs>
       <use xlink:href="#DejaVuSerif-36"/>
       <use xlink:href="#DejaVuSerif-30" transform="translate(63.623047 0)"/>
      </g>
     </g>
    </g>
    <g id="text_14">
     <!-- Number of images -->
     <g transform="translate(19.3575 188.0925) rotate(-90) scale(0.16 -0.16)">
      <defs>
       <path id="DejaVuSerif-4e" d="M 313 0 
L 313 331 
L 941 331 
L 941 4331 
L 313 4331 
L 313 4666 
L 1509 4666 
L 4306 984 
L 4306 4331 
L 3681 4331 
L 3681 4666 
L 5319 4666 
L 5319 4331 
L 4691 4331 
L 4691 -91 
L 4313 -91 
L 1325 3841 
L 1325 331 
L 1953 331 
L 1953 0 
L 313 0 
z
" transform="scale(0.015625)"/>
       <path id="DejaVuSerif-66" d="M 2753 4078 
L 2450 4078 
Q 2447 4313 2317 4434 
Q 2188 4556 1941 4556 
Q 1619 4556 1487 4379 
Q 1356 4203 1356 3750 
L 1356 3322 
L 2284 3322 
L 2284 2988 
L 1356 2988 
L 1356 331 
L 2094 331 
L 2094 0 
L 231 0 
L 231 331 
L 781 331 
L 781 2988 
L 231 2988 
L 231 3322 
L 781 3322 
L 781 3738 
Q 781 4294 1070 4578 
Q 1359 4863 1919 4863 
Q 2128 4863 2337 4825 
Q 2547 4788 2753 4709 
L 2753 4078 
z
" transform="scale(0.015625)"/>
       <path id="DejaVuSerif-69" d="M 622 4353 
Q 622 4497 726 4603 
Q 831 4709 978 4709 
Q 1122 4709 1226 4603 
Q 1331 4497 1331 4353 
Q 1331 4206 1228 4103 
Q 1125 4000 978 4000 
Q 831 4000 726 4103 
Q 622 4206 622 4353 
z
M 1356 331 
L 1900 331 
L 1900 0 
L 231 0 
L 231 331 
L 781 331 
L 781 2988 
L 231 2988 
L 231 3322 
L 1356 3322 
L 1356 331 
z
" transform="scale(0.015625)"/>
       <path id="DejaVuSerif-61" d="M 2547 1044 
L 2547 1747 
L 1806 1747 
Q 1378 1747 1168 1562 
Q 959 1378 959 997 
Q 959 650 1171 447 
Q 1384 244 1747 244 
Q 2106 244 2326 466 
Q 2547 688 2547 1044 
z
M 3122 2075 
L 3122 331 
L 3634 331 
L 3634 0 
L 2547 0 
L 2547 359 
Q 2356 128 2106 18 
Q 1856 -91 1522 -91 
Q 969 -91 644 203 
Q 319 497 319 997 
Q 319 1513 691 1797 
Q 1063 2081 1741 2081 
L 2547 2081 
L 2547 2309 
Q 2547 2688 2317 2895 
Q 2088 3103 1672 3103 
Q 1328 3103 1125 2947 
Q 922 2791 872 2484 
L 575 2484 
L 575 3156 
Q 875 3284 1158 3348 
Q 1441 3413 1709 3413 
Q 2400 3413 2761 3070 
Q 3122 2728 3122 2075 
z
" transform="scale(0.015625)"/>
       <path id="DejaVuSerif-67" d="M 3359 2988 
L 3359 72 
Q 3359 -644 2965 -1033 
Q 2572 -1422 1844 -1422 
Q 1516 -1422 1216 -1362 
Q 916 -1303 641 -1184 
L 641 -488 
L 941 -488 
Q 997 -813 1206 -963 
Q 1416 -1113 1806 -1113 
Q 2313 -1113 2548 -827 
Q 2784 -541 2784 72 
L 2784 519 
Q 2616 206 2355 57 
Q 2094 -91 1709 -91 
Q 1097 -91 708 395 
Q 319 881 319 1663 
Q 319 2444 706 2928 
Q 1094 3413 1709 3413 
Q 2094 3413 2355 3264 
Q 2616 3116 2784 2803 
L 2784 3322 
L 3909 3322 
L 3909 2988 
L 3359 2988 
z
M 2784 1825 
Q 2784 2422 2554 2737 
Q 2325 3053 1888 3053 
Q 1444 3053 1217 2703 
Q 991 2353 991 1663 
Q 991 975 1217 622 
Q 1444 269 1888 269 
Q 2325 269 2554 583 
Q 2784 897 2784 1497 
L 2784 1825 
z
" transform="scale(0.015625)"/>
      </defs>
      <use xlink:href="#DejaVuSerif-4e"/>
      <use xlink:href="#DejaVuSerif-75" transform="translate(87.5 0)"/>
      <use xlink:href="#DejaVuSerif-6d" transform="translate(151.904297 0)"/>
      <use xlink:href="#DejaVuSerif-62" transform="translate(246.728516 0)"/>
      <use xlink:href="#DejaVuSerif-65" transform="translate(310.742188 0)"/>
      <use xlink:href="#DejaVuSerif-72" transform="translate(369.921875 0)"/>
      <use xlink:href="#DejaVuSerif-20" transform="translate(417.724609 0)"/>
      <use xlink:href="#DejaVuSerif-6f" transform="translate(449.511719 0)"/>
      <use xlink:href="#DejaVuSerif-66" transform="translate(509.716797 0)"/>
      <use xlink:href="#DejaVuSerif-20" transform="translate(546.728516 0)"/>
      <use xlink:href="#DejaVuSerif-69" transform="translate(578.515625 0)"/>
      <use xlink:href="#DejaVuSerif-6d" transform="translate(610.498047 0)"/>
      <use xlink:href="#DejaVuSerif-61" transform="translate(705.322266 0)"/>
      <use xlink:href="#DejaVuSerif-67" transform="translate(764.941406 0)"/>
      <use xlink:href="#DejaVuSerif-65" transform="translate(828.955078 0)"/>
      <use xlink:href="#DejaVuSerif-73" transform="translate(888.134766 0)"/>
     </g>
    </g>
   </g>
   <g id="patch_41">
    <path d="M 54.2725 218.67 
L 54.2725 7.2 
" style="fill: none; stroke: #000000; stroke-width: 0.8; stroke-linejoin: miter; stroke-linecap: square"/>
   </g>
   <g id="patch_42">
    <path d="M 548.64 218.67 
L 548.64 7.2 
" style="fill: none; stroke: #000000; stroke-width: 0.8; stroke-linejoin: miter; stroke-linecap: square"/>
   </g>
   <g id="patch_43">
    <path d="M 54.2725 218.67 
L 548.64 218.67 
" style="fill: none; stroke: #000000; stroke-width: 0.8; stroke-linejoin: miter; stroke-linecap: square"/>
   </g>
   <g id="patch_44">
    <path d="M 54.2725 7.2 
L 548.64 7.2 
" style="fill: none; stroke: #000000; stroke-width: 0.8; stroke-linejoin: miter; stroke-linecap: square"/>
   </g>
  </g>
 </g>
 <defs>
  <clipPath id="p6512a0bde1">
   <rect x="54.2725" y="7.2" width="494.3675" height="211.47"/>
  </clipPath>
 </defs>
</svg>