<?xml version="1.0" encoding="utf-8" standalone="no"?>
<!DOCTYPE svg PUBLIC "-//W3C//DTD SVG 1.1//EN"
  "http://www.w3.org/Graphics/SVG/1.1/DTD/svg11.dtd">
<svg xmlns:xlink="http://www.w3.org/1999/xlink" width="449.28pt" height="334.08pt" viewBox="0 0 449.28 334.08" xmlns="http://www.w3.org/2000/svg" version="1.1">
 <metadata>
  <rdf:RDF xmlns:dc="http://purl.org/dc/elements/1.1/" xmlns:cc="http://creativecommons.org/ns#" xmlns:rdf="http://www.w3.org/1999/02/22-rdf-syntax-ns#">
   <cc:Work>
    <dc:type rdf:resource="http://purl.org/dc/dcmitype/StillImage"/>
    <dc:date>2025-01-02T14:03:02.965793</dc:date>
    <dc:format>image/svg+xml</dc:format>
    <dc:creator>
     <cc:Agent>
      <dc:title>Matplotlib v3.10.0, https://matplotlib.org/</dc:title>
     </cc:Agent>
    </dc:creator>
   </cc:Work>
  </rdf:RDF>
 </metadata>
 <defs>
  <style type="text/css">*{stroke-linejoin: round; stroke-linecap: butt}</style>
 </defs>
 <g id="figure_1">
  <g id="patch_1">
   <path d="M 0 334.08 
L 449.28 334.08 
L 449.28 0 
L 0 0 
z
" style="fill: #ffffff"/>
  </g>
  <g id="axes_1">
   <g id="patch_2">
    <path d="M 63.29375 292.6525 
L 442.08 292.6525 
L 442.08 24.14175 
L 63.29375 24.14175 
z
" style="fill: #ffffff"/>
   </g>
   <g id="matplotlib.axis_1">
    <g id="xtick_1">
     <g id="line2d_1">
      <defs>
       <path id="m7b4eb09250" d="M 0 0 
L 0 3.5 
" style="stroke: #000000; stroke-width: 0.8"/>
      </defs>
      <g>
       <use xlink:href="#m7b4eb09250" x="63.29375" y="292.6525" style="fill-opacity: 0; stroke: #000000; stroke-width: 0.8"/>
      </g>
     </g>
     <g id="text_1">
      <!-- 0 -->
      <g transform="translate(59.47625 308.770625) scale(0.12 -0.12)">
       <defs>
        <path id="DejaVuSerif-30" d="M 2034 219 
Q 2513 219 2750 744 
Q 2988 1269 2988 2328 
Q 2988 3391 2750 3916 
Q 2513 4441 2034 4441 
Q 1556 4441 1318 3916 
Q 1081 3391 1081 2328 
Q 1081 1269 1318 744 
Q 1556 219 2034 219 
z
M 2034 -91 
Q 1275 -91 848 546 
Q 422 1184 422 2328 
Q 422 3475 848 4112 
Q 1275 4750 2034 4750 
Q 2797 4750 3222 4112 
Q 3647 3475 3647 2328 
Q 3647 1184 3222 546 
Q 2797 -91 2034 -91 
z
" transform="scale(0.015625)"/>
       </defs>
       <use xlink:href="#DejaVuSerif-30"/>
      </g>
     </g>
    </g>
    <g id="xtick_2">
     <g id="line2d_2">
      <g>
       <use xlink:href="#m7b4eb09250" x="143.038224" y="292.6525" style="fill-opacity: 0; stroke: #000000; stroke-width: 0.8"/>
      </g>
     </g>
     <g id="text_2">
      <!-- 20 -->
      <g transform="translate(135.403224 308.770625) scale(0.12 -0.12)">
       <defs>
        <path id="DejaVuSerif-32" d="M 819 3553 
L 469 3553 
L 469 4384 
Q 803 4563 1142 4656 
Q 1481 4750 1806 4750 
Q 2534 4750 2956 4397 
Q 3378 4044 3378 3438 
Q 3378 2753 2422 1800 
Q 2347 1728 2309 1691 
L 1131 513 
L 3078 513 
L 3078 1088 
L 3444 1088 
L 3444 0 
L 434 0 
L 434 341 
L 1850 1753 
Q 2319 2222 2519 2614 
Q 2719 3006 2719 3438 
Q 2719 3909 2473 4175 
Q 2228 4441 1797 4441 
Q 1350 4441 1106 4219 
Q 863 3997 819 3553 
z
" transform="scale(0.015625)"/>
       </defs>
       <use xlink:href="#DejaVuSerif-32"/>
       <use xlink:href="#DejaVuSerif-30" transform="translate(63.623047 0)"/>
      </g>
     </g>
    </g>
    <g id="xtick_3">
     <g id="line2d_3">
      <g>
       <use xlink:href="#m7b4eb09250" x="222.782697" y="292.6525" style="fill-opacity: 0; stroke: #000000; stroke-width: 0.8"/>
      </g>
     </g>
     <g id="text_3">
      <!-- 40 -->
      <g transform="translate(215.147697 308.770625) scale(0.12 -0.12)">
       <defs>
        <path id="DejaVuSerif-34" d="M 2234 1581 
L 2234 4063 
L 641 1581 
L 2234 1581 
z
M 3609 0 
L 1484 0 
L 1484 331 
L 2234 331 
L 2234 1247 
L 197 1247 
L 197 1588 
L 2241 4750 
L 2859 4750 
L 2859 1581 
L 3750 1581 
L 3750 1247 
L 2859 1247 
L 2859 331 
L 3609 331 
L 3609 0 
z
" transform="scale(0.015625)"/>
       </defs>
       <use xlink:href="#DejaVuSerif-34"/>
       <use xlink:href="#DejaVuSerif-30" transform="translate(63.623047 0)"/>
      </g>
     </g>
    </g>
    <g id="xtick_4">
     <g id="line2d_4">
      <g>
       <use xlink:href="#m7b4eb09250" x="302.527171" y="292.6525" style="fill-opacity: 0; stroke: #000000; stroke-width: 0.8"/>
      </g>
     </g>
     <g id="text_4">
      <!-- 60 -->
      <g transform="translate(294.892171 308.770625) scale(0.12 -0.12)">
       <defs>
        <path id="DejaVuSerif-36" d="M 2094 219 
Q 2534 219 2771 542 
Q 3009 866 3009 1472 
Q 3009 2078 2771 2401 
Q 2534 2725 2094 2725 
Q 1647 2725 1412 2412 
Q 1178 2100 1178 1509 
Q 1178 888 1415 553 
Q 1653 219 2094 219 
z
M 1075 2569 
Q 1288 2803 1556 2918 
Q 1825 3034 2163 3034 
Q 2859 3034 3264 2615 
Q 3669 2197 3669 1472 
Q 3669 763 3233 336 
Q 2797 -91 2069 -91 
Q 1278 -91 853 498 
Q 428 1088 428 2181 
Q 428 3406 931 4078 
Q 1434 4750 2350 4750 
Q 2597 4750 2869 4703 
Q 3141 4656 3425 4563 
L 3425 3794 
L 3072 3794 
Q 3034 4109 2831 4275 
Q 2628 4441 2284 4441 
Q 1678 4441 1381 3981 
Q 1084 3522 1075 2569 
z
" transform="scale(0.015625)"/>
       </defs>
       <use xlink:href="#DejaVuSerif-36"/>
       <use xlink:href="#DejaVuSerif-30" transform="translate(63.623047 0)"/>
      </g>
     </g>
    </g>
    <g id="xtick_5">
     <g id="line2d_5">
      <g>
       <use xlink:href="#m7b4eb09250" x="382.271645" y="292.6525" style="fill-opacity: 0; stroke: #000000; stroke-width: 0.8"/>
      </g>
     </g>
     <g id="text_5">
      <!-- 80 -->
      <g transform="translate(374.636645 308.770625) scale(0.12 -0.12)">
       <defs>
        <path id="DejaVuSerif-38" d="M 2981 1275 
Q 2981 1775 2732 2051 
Q 2484 2328 2034 2328 
Q 1584 2328 1336 2051 
Q 1088 1775 1088 1275 
Q 1088 772 1336 495 
Q 1584 219 2034 219 
Q 2484 219 2732 495 
Q 2981 772 2981 1275 
z
M 2853 3541 
Q 2853 3966 2637 4203 
Q 2422 4441 2034 4441 
Q 1650 4441 1433 4203 
Q 1216 3966 1216 3541 
Q 1216 3113 1433 2875 
Q 1650 2638 2034 2638 
Q 2422 2638 2637 2875 
Q 2853 3113 2853 3541 
z
M 2516 2484 
Q 3047 2413 3344 2092 
Q 3641 1772 3641 1275 
Q 3641 619 3225 264 
Q 2809 -91 2034 -91 
Q 1263 -91 845 264 
Q 428 619 428 1275 
Q 428 1772 725 2092 
Q 1022 2413 1556 2484 
Q 1084 2569 832 2842 
Q 581 3116 581 3541 
Q 581 4103 968 4426 
Q 1356 4750 2034 4750 
Q 2713 4750 3100 4426 
Q 3488 4103 3488 3541 
Q 3488 3116 3236 2842 
Q 2984 2569 2516 2484 
z
" transform="scale(0.015625)"/>
       </defs>
       <use xlink:href="#DejaVuSerif-38"/>
       <use xlink:href="#DejaVuSerif-30" transform="translate(63.623047 0)"/>
      </g>
     </g>
    </g>
    <g id="text_6">
     <!-- j -->
     <g transform="translate(250.826875 324.21375) scale(0.12 -0.12)">
      <defs>
       <path id="DejaVuSerif-6a" d="M 641 4353 
Q 641 4497 745 4603 
Q 850 4709 997 4709 
Q 1141 4709 1245 4603 
Q 1350 4497 1350 4353 
Q 1350 4206 1248 4103 
Q 1147 4000 997 4000 
Q 850 4000 745 4103 
Q 641 4206 641 4353 
z
M 781 2988 
L 238 2988 
L 238 3322 
L 1356 3322 
L 1356 -325 
Q 1356 -838 1051 -1130 
Q 747 -1422 213 -1422 
Q -13 -1422 -217 -1370 
Q -422 -1319 -616 -1216 
L -616 -531 
L -319 -531 
Q -297 -831 -164 -972 
Q -31 -1113 225 -1113 
Q 509 -1113 645 -920 
Q 781 -728 781 -325 
L 781 2988 
z
" transform="scale(0.015625)"/>
      </defs>
      <use xlink:href="#DejaVuSerif-6a"/>
     </g>
    </g>
   </g>
   <g id="matplotlib.axis_2">
    <g id="ytick_1">
     <g id="line2d_6">
      <defs>
       <path id="m7c68e8529b" d="M 0 0 
L -3.5 0 
" style="stroke: #000000; stroke-width: 0.8"/>
      </defs>
      <g>
       <use xlink:href="#m7c68e8529b" x="63.29375" y="269.33732" style="fill-opacity: 0; stroke: #000000; stroke-width: 0.8"/>
      </g>
     </g>
     <g id="text_7">
      <!-- $\mathdefault{10^{-23}}$ -->
      <g transform="translate(22.81375 273.896382) scale(0.12 -0.12)">
       <defs>
        <path id="DejaVuSerif-31" d="M 909 0 
L 909 331 
L 1722 331 
L 1722 4213 
L 781 3603 
L 781 4013 
L 1919 4750 
L 2350 4750 
L 2350 331 
L 3163 331 
L 3163 0 
L 909 0 
z
" transform="scale(0.015625)"/>
        <path id="DejaVuSerif-2212" d="M 678 2259 
L 4684 2259 
L 4684 1753 
L 678 1753 
L 678 2259 
z
" transform="scale(0.015625)"/>
        <path id="DejaVuSerif-33" d="M 622 4469 
Q 988 4606 1323 4678 
Q 1659 4750 1953 4750 
Q 2638 4750 3022 4454 
Q 3406 4159 3406 3634 
Q 3406 3213 3140 2930 
Q 2875 2647 2388 2547 
Q 2963 2466 3280 2130 
Q 3597 1794 3597 1259 
Q 3597 606 3158 257 
Q 2719 -91 1894 -91 
Q 1528 -91 1179 -12 
Q 831 66 488 225 
L 488 1131 
L 838 1131 
Q 869 681 1141 450 
Q 1413 219 1906 219 
Q 2384 219 2661 495 
Q 2938 772 2938 1253 
Q 2938 1803 2653 2086 
Q 2369 2369 1819 2369 
L 1522 2369 
L 1522 2688 
L 1678 2688 
Q 2225 2688 2498 2914 
Q 2772 3141 2772 3597 
Q 2772 4006 2547 4223 
Q 2322 4441 1900 4441 
Q 1478 4441 1245 4241 
Q 1013 4041 972 3647 
L 622 3647 
L 622 4469 
z
" transform="scale(0.015625)"/>
       </defs>
       <use xlink:href="#DejaVuSerif-31" transform="translate(0 0.7125)"/>
       <use xlink:href="#DejaVuSerif-30" transform="translate(63.623047 0.7125)"/>
       <use xlink:href="#DejaVuSerif-2212" transform="translate(128.154453 37.046875) scale(0.7)"/>
       <use xlink:href="#DejaVuSerif-32" transform="translate(186.806797 37.046875) scale(0.7)"/>
       <use xlink:href="#DejaVuSerif-33" transform="translate(231.34293 37.046875) scale(0.7)"/>
      </g>
     </g>
    </g>
    <g id="ytick_2">
     <g id="line2d_7">
      <g>
       <use xlink:href="#m7c68e8529b" x="63.29375" y="238.544222" style="fill-opacity: 0; stroke: #000000; stroke-width: 0.8"/>
      </g>
     </g>
     <g id="text_8">
      <!-- $\mathdefault{10^{-20}}$ -->
      <g transform="translate(22.81375 243.103284) scale(0.12 -0.12)">
       <use xlink:href="#DejaVuSerif-31" transform="translate(0 0.7125)"/>
       <use xlink:href="#DejaVuSerif-30" transform="translate(63.623047 0.7125)"/>
       <use xlink:href="#DejaVuSerif-2212" transform="translate(128.154453 37.046875) scale(0.7)"/>
       <use xlink:href="#DejaVuSerif-32" transform="translate(186.806797 37.046875) scale(0.7)"/>
       <use xlink:href="#DejaVuSerif-30" transform="translate(231.34293 37.046875) scale(0.7)"/>
      </g>
     </g>
    </g>
    <g id="ytick_3">
     <g id="line2d_8">
      <g>
       <use xlink:href="#m7c68e8529b" x="63.29375" y="207.751124" style="fill-opacity: 0; stroke: #000000; stroke-width: 0.8"/>
      </g>
     </g>
     <g id="text_9">
      <!-- $\mathdefault{10^{-17}}$ -->
      <g transform="translate(22.81375 212.310186) scale(0.12 -0.12)">
       <defs>
        <path id="DejaVuSerif-37" d="M 3609 4347 
L 1784 0 
L 1319 0 
L 3059 4153 
L 903 4153 
L 903 3578 
L 538 3578 
L 538 4666 
L 3609 4666 
L 3609 4347 
z
" transform="scale(0.015625)"/>
       </defs>
       <use xlink:href="#DejaVuSerif-31" transform="translate(0 0.7125)"/>
       <use xlink:href="#DejaVuSerif-30" transform="translate(63.623047 0.7125)"/>
       <use xlink:href="#DejaVuSerif-2212" transform="translate(128.154453 37.046875) scale(0.7)"/>
       <use xlink:href="#DejaVuSerif-31" transform="translate(186.806797 37.046875) scale(0.7)"/>
       <use xlink:href="#DejaVuSerif-37" transform="translate(231.34293 37.046875) scale(0.7)"/>
      </g>
     </g>
    </g>
    <g id="ytick_4">
     <g id="line2d_9">
      <g>
       <use xlink:href="#m7c68e8529b" x="63.29375" y="176.958026" style="fill-opacity: 0; stroke: #000000; stroke-width: 0.8"/>
      </g>
     </g>
     <g id="text_10">
      <!-- $\mathdefault{10^{-14}}$ -->
      <g transform="translate(22.81375 181.517088) scale(0.12 -0.12)">
       <use xlink:href="#DejaVuSerif-31" transform="translate(0 0.7125)"/>
       <use xlink:href="#DejaVuSerif-30" transform="translate(63.623047 0.7125)"/>
       <use xlink:href="#DejaVuSerif-2212" transform="translate(128.154453 37.046875) scale(0.7)"/>
       <use xlink:href="#DejaVuSerif-31" transform="translate(186.806797 37.046875) scale(0.7)"/>
       <use xlink:href="#DejaVuSerif-34" transform="translate(231.34293 37.046875) scale(0.7)"/>
      </g>
     </g>
    </g>
    <g id="ytick_5">
     <g id="line2d_10">
      <g>
       <use xlink:href="#m7c68e8529b" x="63.29375" y="146.164928" style="fill-opacity: 0; stroke: #000000; stroke-width: 0.8"/>
      </g>
     </g>
     <g id="text_11">
      <!-- $\mathdefault{10^{-11}}$ -->
      <g transform="translate(22.81375 150.72399) scale(0.12 -0.12)">
       <use xlink:href="#DejaVuSerif-31" transform="translate(0 0.7125)"/>
       <use xlink:href="#DejaVuSerif-30" transform="translate(63.623047 0.7125)"/>
       <use xlink:href="#DejaVuSerif-2212" transform="translate(128.154453 37.046875) scale(0.7)"/>
       <use xlink:href="#DejaVuSerif-31" transform="translate(186.806797 37.046875) scale(0.7)"/>
       <use xlink:href="#DejaVuSerif-31" transform="translate(231.34293 37.046875) scale(0.7)"/>
      </g>
     </g>
    </g>
    <g id="ytick_6">
     <g id="line2d_11">
      <g>
       <use xlink:href="#m7c68e8529b" x="63.29375" y="115.37183" style="fill-opacity: 0; stroke: #000000; stroke-width: 0.8"/>
      </g>
     </g>
     <g id="text_12">
      <!-- $\mathdefault{10^{-8}}$ -->
      <g transform="translate(28.21375 119.930892) scale(0.12 -0.12)">
       <use xlink:href="#DejaVuSerif-31" transform="translate(0 0.7125)"/>
       <use xlink:href="#DejaVuSerif-30" transform="translate(63.623047 0.7125)"/>
       <use xlink:href="#DejaVuSerif-2212" transform="translate(128.154453 37.046875) scale(0.7)"/>
       <use xlink:href="#DejaVuSerif-38" transform="translate(186.806797 37.046875) scale(0.7)"/>
      </g>
     </g>
    </g>
    <g id="ytick_7">
     <g id="line2d_12">
      <g>
       <use xlink:href="#m7c68e8529b" x="63.29375" y="84.578732" style="fill-opacity: 0; stroke: #000000; stroke-width: 0.8"/>
      </g>
     </g>
     <g id="text_13">
      <!-- $\mathdefault{10^{-5}}$ -->
      <g transform="translate(28.21375 89.137794) scale(0.12 -0.12)">
       <defs>
        <path id="DejaVuSerif-35" d="M 3219 4666 
L 3219 4153 
L 1081 4153 
L 1081 2816 
Q 1244 2928 1461 2984 
Q 1678 3041 1947 3041 
Q 2703 3041 3140 2622 
Q 3578 2203 3578 1478 
Q 3578 738 3136 323 
Q 2694 -91 1894 -91 
Q 1572 -91 1234 -12 
Q 897 66 544 225 
L 544 1131 
L 897 1131 
Q 925 688 1179 453 
Q 1434 219 1894 219 
Q 2388 219 2653 544 
Q 2919 869 2919 1478 
Q 2919 2084 2655 2407 
Q 2391 2731 1894 2731 
Q 1613 2731 1398 2631 
Q 1184 2531 1019 2322 
L 750 2322 
L 750 4666 
L 3219 4666 
z
" transform="scale(0.015625)"/>
       </defs>
       <use xlink:href="#DejaVuSerif-31" transform="translate(0 0.63125)"/>
       <use xlink:href="#DejaVuSerif-30" transform="translate(63.623047 0.63125)"/>
       <use xlink:href="#DejaVuSerif-2212" transform="translate(128.154453 36.965625) scale(0.7)"/>
       <use xlink:href="#DejaVuSerif-35" transform="translate(186.806797 36.965625) scale(0.7)"/>
      </g>
     </g>
    </g>
    <g id="ytick_8">
     <g id="line2d_13">
      <g>
       <use xlink:href="#m7c68e8529b" x="63.29375" y="53.785634" style="fill-opacity: 0; stroke: #000000; stroke-width: 0.8"/>
      </g>
     </g>
     <g id="text_14">
      <!-- $\mathdefault{10^{-2}}$ -->
      <g transform="translate(28.21375 58.344697) scale(0.12 -0.12)">
       <use xlink:href="#DejaVuSerif-31" transform="translate(0 0.7125)"/>
       <use xlink:href="#DejaVuSerif-30" transform="translate(63.623047 0.7125)"/>
       <use xlink:href="#DejaVuSerif-2212" transform="translate(128.154453 37.046875) scale(0.7)"/>
       <use xlink:href="#DejaVuSerif-32" transform="translate(186.806797 37.046875) scale(0.7)"/>
      </g>
     </g>
    </g>
    <g id="text_15">
     <!-- $r_{jj}$ -->
     <g transform="translate(15.09375 163.377125) rotate(-90) scale(0.12 -0.12)">
      <defs>
       <path id="DejaVuSans-Oblique-72" d="M 2853 2969 
Q 2766 3016 2653 3041 
Q 2541 3066 2413 3066 
Q 1953 3066 1609 2717 
Q 1266 2369 1153 1784 
L 800 0 
L 225 0 
L 909 3500 
L 1484 3500 
L 1375 2956 
Q 1603 3259 1920 3421 
Q 2238 3584 2597 3584 
Q 2691 3584 2781 3573 
Q 2872 3563 2963 3538 
L 2853 2969 
z
" transform="scale(0.015625)"/>
       <path id="DejaVuSans-Oblique-6a" d="M 928 3500 
L 1503 3500 
L 813 -63 
L 809 -78 
Q 694 -675 544 -897 
Q 403 -1106 132 -1218 
Q -138 -1331 -506 -1331 
L -722 -1331 
L -628 -844 
L -481 -844 
Q -144 -844 -1 -703 
Q 141 -563 238 -63 
L 928 3500 
z
M 1197 4863 
L 1772 4863 
L 1631 4134 
L 1056 4134 
L 1197 4863 
z
" transform="scale(0.015625)"/>
      </defs>
      <use xlink:href="#DejaVuSans-Oblique-72"/>
      <use xlink:href="#DejaVuSans-Oblique-6a" transform="translate(41.113281 -16.40625) scale(0.7)"/>
      <use xlink:href="#DejaVuSans-Oblique-6a" transform="translate(60.561523 -16.40625) scale(0.7)"/>
     </g>
    </g>
   </g>
   <g id="line2d_14">
    <defs>
     <path id="md3d10c502c" d="M 0 3 
C 0.795609 3 1.55874 2.683901 2.12132 2.12132 
C 2.683901 1.55874 3 0.795609 3 0 
C 3 -0.795609 2.683901 -1.55874 2.12132 -2.12132 
C 1.55874 -2.683901 0.795609 -3 0 -3 
C -0.795609 -3 -1.55874 -2.683901 -2.12132 -2.12132 
C -2.683901 -1.55874 -3 -0.795609 -3 0 
C -3 0.795609 -2.683901 1.55874 -2.12132 2.12132 
C -1.55874 2.683901 -0.795609 3 0 3 
z
" style="stroke: #1f77b4"/>
    </defs>
    <g clip-path="url(#p2c4f49f63c)">
     <use xlink:href="#md3d10c502c" x="63.29375" y="46.486358" style="fill-opacity: 0; stroke: #1f77b4"/>
     <use xlink:href="#md3d10c502c" x="67.280974" y="50.146779" style="fill-opacity: 0; stroke: #1f77b4"/>
     <use xlink:href="#md3d10c502c" x="71.268197" y="46.375646" style="fill-opacity: 0; stroke: #1f77b4"/>
     <use xlink:href="#md3d10c502c" x="75.255421" y="54.749383" style="fill-opacity: 0; stroke: #1f77b4"/>
     <use xlink:href="#md3d10c502c" x="79.242645" y="51.858337" style="fill-opacity: 0; stroke: #1f77b4"/>
     <use xlink:href="#md3d10c502c" x="83.229868" y="58.726752" style="fill-opacity: 0; stroke: #1f77b4"/>
     <use xlink:href="#md3d10c502c" x="87.217092" y="65.136644" style="fill-opacity: 0; stroke: #1f77b4"/>
     <use xlink:href="#md3d10c502c" x="91.204316" y="58.592652" style="fill-opacity: 0; stroke: #1f77b4"/>
     <use xlink:href="#md3d10c502c" x="95.191539" y="65.100454" style="fill-opacity: 0; stroke: #1f77b4"/>
     <use xlink:href="#md3d10c502c" x="99.178763" y="64.973787" style="fill-opacity: 0; stroke: #1f77b4"/>
     <use xlink:href="#md3d10c502c" x="103.165987" y="76.972458" style="fill-opacity: 0; stroke: #1f77b4"/>
     <use xlink:href="#md3d10c502c" x="107.153211" y="74.901095" style="fill-opacity: 0; stroke: #1f77b4"/>
     <use xlink:href="#md3d10c502c" x="111.140434" y="75.423061" style="fill-opacity: 0; stroke: #1f77b4"/>
     <use xlink:href="#md3d10c502c" x="115.127658" y="80.34595" style="fill-opacity: 0; stroke: #1f77b4"/>
     <use xlink:href="#md3d10c502c" x="119.114882" y="85.570026" style="fill-opacity: 0; stroke: #1f77b4"/>
     <use xlink:href="#md3d10c502c" x="123.102105" y="85.457756" style="fill-opacity: 0; stroke: #1f77b4"/>
     <use xlink:href="#md3d10c502c" x="127.089329" y="88.491484" style="fill-opacity: 0; stroke: #1f77b4"/>
     <use xlink:href="#md3d10c502c" x="131.076553" y="92.363104" style="fill-opacity: 0; stroke: #1f77b4"/>
     <use xlink:href="#md3d10c502c" x="135.063776" y="100.113391" style="fill-opacity: 0; stroke: #1f77b4"/>
     <use xlink:href="#md3d10c502c" x="139.051" y="94.684338" style="fill-opacity: 0; stroke: #1f77b4"/>
     <use xlink:href="#md3d10c502c" x="143.038224" y="97.676455" style="fill-opacity: 0; stroke: #1f77b4"/>
     <use xlink:href="#md3d10c502c" x="147.025447" y="100.969841" style="fill-opacity: 0; stroke: #1f77b4"/>
     <use xlink:href="#md3d10c502c" x="151.012671" y="111.212878" style="fill-opacity: 0; stroke: #1f77b4"/>
     <use xlink:href="#md3d10c502c" x="154.999895" y="104.648647" style="fill-opacity: 0; stroke: #1f77b4"/>
     <use xlink:href="#md3d10c502c" x="158.987118" y="112.38799" style="fill-opacity: 0; stroke: #1f77b4"/>
     <use xlink:href="#md3d10c502c" x="162.974342" y="115.858282" style="fill-opacity: 0; stroke: #1f77b4"/>
     <use xlink:href="#md3d10c502c" x="166.961566" y="113.579989" style="fill-opacity: 0; stroke: #1f77b4"/>
     <use xlink:href="#md3d10c502c" x="170.948789" y="107.411937" style="fill-opacity: 0; stroke: #1f77b4"/>
     <use xlink:href="#md3d10c502c" x="174.936013" y="106.330907" style="fill-opacity: 0; stroke: #1f77b4"/>
     <use xlink:href="#md3d10c502c" x="178.923237" y="105.758837" style="fill-opacity: 0; stroke: #1f77b4"/>
     <use xlink:href="#md3d10c502c" x="182.910461" y="99.642349" style="fill-opacity: 0; stroke: #1f77b4"/>
     <use xlink:href="#md3d10c502c" x="186.897684" y="114.658154" style="fill-opacity: 0; stroke: #1f77b4"/>
     <use xlink:href="#md3d10c502c" x="190.884908" y="100.778566" style="fill-opacity: 0; stroke: #1f77b4"/>
     <use xlink:href="#md3d10c502c" x="194.872132" y="102.970898" style="fill-opacity: 0; stroke: #1f77b4"/>
     <use xlink:href="#md3d10c502c" x="198.859355" y="105.26021" style="fill-opacity: 0; stroke: #1f77b4"/>
     <use xlink:href="#md3d10c502c" x="202.846579" y="101.530363" style="fill-opacity: 0; stroke: #1f77b4"/>
     <use xlink:href="#md3d10c502c" x="206.833803" y="101.197425" style="fill-opacity: 0; stroke: #1f77b4"/>
     <use xlink:href="#md3d10c502c" x="210.821026" y="96.25648" style="fill-opacity: 0; stroke: #1f77b4"/>
     <use xlink:href="#md3d10c502c" x="214.80825" y="96.940408" style="fill-opacity: 0; stroke: #1f77b4"/>
     <use xlink:href="#md3d10c502c" x="218.795474" y="107.151263" style="fill-opacity: 0; stroke: #1f77b4"/>
     <use xlink:href="#md3d10c502c" x="222.782697" y="101.39709" style="fill-opacity: 0; stroke: #1f77b4"/>
     <use xlink:href="#md3d10c502c" x="226.769921" y="94.297885" style="fill-opacity: 0; stroke: #1f77b4"/>
     <use xlink:href="#md3d10c502c" x="230.757145" y="114.482431" style="fill-opacity: 0; stroke: #1f77b4"/>
     <use xlink:href="#md3d10c502c" x="234.744368" y="102.79852" style="fill-opacity: 0; stroke: #1f77b4"/>
     <use xlink:href="#md3d10c502c" x="238.731592" y="96.184433" style="fill-opacity: 0; stroke: #1f77b4"/>
     <use xlink:href="#md3d10c502c" x="242.718816" y="98.53058" style="fill-opacity: 0; stroke: #1f77b4"/>
     <use xlink:href="#md3d10c502c" x="246.706039" y="106.568034" style="fill-opacity: 0; stroke: #1f77b4"/>
     <use xlink:href="#md3d10c502c" x="250.693263" y="94.567865" style="fill-opacity: 0; stroke: #1f77b4"/>
     <use xlink:href="#md3d10c502c" x="254.680487" y="97.275857" style="fill-opacity: 0; stroke: #1f77b4"/>
     <use xlink:href="#md3d10c502c" x="258.667711" y="101.609466" style="fill-opacity: 0; stroke: #1f77b4"/>
     <use xlink:href="#md3d10c502c" x="262.654934" y="95.968821" style="fill-opacity: 0; stroke: #1f77b4"/>
     <use xlink:href="#md3d10c502c" x="266.642158" y="89.748324" style="fill-opacity: 0; stroke: #1f77b4"/>
     <use xlink:href="#md3d10c502c" x="270.629382" y="98.776788" style="fill-opacity: 0; stroke: #1f77b4"/>
     <use xlink:href="#md3d10c502c" x="274.616605" y="91.374515" style="fill-opacity: 0; stroke: #1f77b4"/>
     <use xlink:href="#md3d10c502c" x="278.603829" y="104.212314" style="fill-opacity: 0; stroke: #1f77b4"/>
     <use xlink:href="#md3d10c502c" x="282.591053" y="97.1691" style="fill-opacity: 0; stroke: #1f77b4"/>
     <use xlink:href="#md3d10c502c" x="286.578276" y="90.749334" style="fill-opacity: 0; stroke: #1f77b4"/>
     <use xlink:href="#md3d10c502c" x="290.5655" y="92.093397" style="fill-opacity: 0; stroke: #1f77b4"/>
     <use xlink:href="#md3d10c502c" x="294.552724" y="104.101218" style="fill-opacity: 0; stroke: #1f77b4"/>
     <use xlink:href="#md3d10c502c" x="298.539947" y="90.436734" style="fill-opacity: 0; stroke: #1f77b4"/>
     <use xlink:href="#md3d10c502c" x="302.527171" y="92.889149" style="fill-opacity: 0; stroke: #1f77b4"/>
     <use xlink:href="#md3d10c502c" x="306.514395" y="94.426839" style="fill-opacity: 0; stroke: #1f77b4"/>
     <use xlink:href="#md3d10c502c" x="310.501618" y="90.799625" style="fill-opacity: 0; stroke: #1f77b4"/>
     <use xlink:href="#md3d10c502c" x="314.488842" y="92.478722" style="fill-opacity: 0; stroke: #1f77b4"/>
     <use xlink:href="#md3d10c502c" x="318.476066" y="100.746157" style="fill-opacity: 0; stroke: #1f77b4"/>
     <use xlink:href="#md3d10c502c" x="322.463289" y="91.314797" style="fill-opacity: 0; stroke: #1f77b4"/>
     <use xlink:href="#md3d10c502c" x="326.450513" y="91.073416" style="fill-opacity: 0; stroke: #1f77b4"/>
     <use xlink:href="#md3d10c502c" x="330.437737" y="92.920408" style="fill-opacity: 0; stroke: #1f77b4"/>
     <use xlink:href="#md3d10c502c" x="334.424961" y="96.375617" style="fill-opacity: 0; stroke: #1f77b4"/>
     <use xlink:href="#md3d10c502c" x="338.412184" y="89.789319" style="fill-opacity: 0; stroke: #1f77b4"/>
     <use xlink:href="#md3d10c502c" x="342.399408" y="97.694283" style="fill-opacity: 0; stroke: #1f77b4"/>
     <use xlink:href="#md3d10c502c" x="346.386632" y="99.71889" style="fill-opacity: 0; stroke: #1f77b4"/>
     <use xlink:href="#md3d10c502c" x="350.373855" y="91.481432" style="fill-opacity: 0; stroke: #1f77b4"/>
     <use xlink:href="#md3d10c502c" x="354.361079" y="87.615222" style="fill-opacity: 0; stroke: #1f77b4"/>
     <use xlink:href="#md3d10c502c" x="358.348303" y="92.201364" style="fill-opacity: 0; stroke: #1f77b4"/>
     <use xlink:href="#md3d10c502c" x="362.335526" y="89.755492" style="fill-opacity: 0; stroke: #1f77b4"/>
     <use xlink:href="#md3d10c502c" x="366.32275" y="88.172619" style="fill-opacity: 0; stroke: #1f77b4"/>
     <use xlink:href="#md3d10c502c" x="370.309974" y="87.789234" style="fill-opacity: 0; stroke: #1f77b4"/>
     <use xlink:href="#md3d10c502c" x="374.297197" y="90.645863" style="fill-opacity: 0; stroke: #1f77b4"/>
     <use xlink:href="#md3d10c502c" x="378.284421" y="97.569749" style="fill-opacity: 0; stroke: #1f77b4"/>
    </g>
   </g>
   <g id="line2d_15">
    <defs>
     <path id="mf5f1254e9c" d="M 0 -3 
L -0.673542 -0.927051 
L -2.85317 -0.927051 
L -1.089814 0.354102 
L -1.763356 2.427051 
L -0 1.145898 
L 1.763356 2.427051 
L 1.089814 0.354102 
L 2.85317 -0.927051 
L 0.673542 -0.927051 
z
" style="stroke: #ff7f0e; stroke-linejoin: bevel"/>
    </defs>
    <g clip-path="url(#p2c4f49f63c)">
     <use xlink:href="#mf5f1254e9c" x="63.29375" y="46.486358" style="fill-opacity: 0; stroke: #ff7f0e; stroke-linejoin: bevel"/>
     <use xlink:href="#mf5f1254e9c" x="67.280974" y="50.146779" style="fill-opacity: 0; stroke: #ff7f0e; stroke-linejoin: bevel"/>
     <use xlink:href="#mf5f1254e9c" x="71.268197" y="46.375646" style="fill-opacity: 0; stroke: #ff7f0e; stroke-linejoin: bevel"/>
     <use xlink:href="#mf5f1254e9c" x="75.255421" y="54.749383" style="fill-opacity: 0; stroke: #ff7f0e; stroke-linejoin: bevel"/>
     <use xlink:href="#mf5f1254e9c" x="79.242645" y="51.858337" style="fill-opacity: 0; stroke: #ff7f0e; stroke-linejoin: bevel"/>
     <use xlink:href="#mf5f1254e9c" x="83.229868" y="58.726752" style="fill-opacity: 0; stroke: #ff7f0e; stroke-linejoin: bevel"/>
     <use xlink:href="#mf5f1254e9c" x="87.217092" y="65.136644" style="fill-opacity: 0; stroke: #ff7f0e; stroke-linejoin: bevel"/>
     <use xlink:href="#mf5f1254e9c" x="91.204316" y="58.592652" style="fill-opacity: 0; stroke: #ff7f0e; stroke-linejoin: bevel"/>
     <use xlink:href="#mf5f1254e9c" x="95.191539" y="65.100454" style="fill-opacity: 0; stroke: #ff7f0e; stroke-linejoin: bevel"/>
     <use xlink:href="#mf5f1254e9c" x="99.178763" y="64.973787" style="fill-opacity: 0; stroke: #ff7f0e; stroke-linejoin: bevel"/>
     <use xlink:href="#mf5f1254e9c" x="103.165987" y="76.972458" style="fill-opacity: 0; stroke: #ff7f0e; stroke-linejoin: bevel"/>
     <use xlink:href="#mf5f1254e9c" x="107.153211" y="74.901095" style="fill-opacity: 0; stroke: #ff7f0e; stroke-linejoin: bevel"/>
     <use xlink:href="#mf5f1254e9c" x="111.140434" y="75.423061" style="fill-opacity: 0; stroke: #ff7f0e; stroke-linejoin: bevel"/>
     <use xlink:href="#mf5f1254e9c" x="115.127658" y="80.34595" style="fill-opacity: 0; stroke: #ff7f0e; stroke-linejoin: bevel"/>
     <use xlink:href="#mf5f1254e9c" x="119.114882" y="85.570026" style="fill-opacity: 0; stroke: #ff7f0e; stroke-linejoin: bevel"/>
     <use xlink:href="#mf5f1254e9c" x="123.102105" y="85.457756" style="fill-opacity: 0; stroke: #ff7f0e; stroke-linejoin: bevel"/>
     <use xlink:href="#mf5f1254e9c" x="127.089329" y="88.491484" style="fill-opacity: 0; stroke: #ff7f0e; stroke-linejoin: bevel"/>
     <use xlink:href="#mf5f1254e9c" x="131.076553" y="92.363104" style="fill-opacity: 0; stroke: #ff7f0e; stroke-linejoin: bevel"/>
     <use xlink:href="#mf5f1254e9c" x="135.063776" y="100.113391" style="fill-opacity: 0; stroke: #ff7f0e; stroke-linejoin: bevel"/>
     <use xlink:href="#mf5f1254e9c" x="139.051" y="94.684338" style="fill-opacity: 0; stroke: #ff7f0e; stroke-linejoin: bevel"/>
     <use xlink:href="#mf5f1254e9c" x="143.038224" y="97.676455" style="fill-opacity: 0; stroke: #ff7f0e; stroke-linejoin: bevel"/>
     <use xlink:href="#mf5f1254e9c" x="147.025447" y="100.969841" style="fill-opacity: 0; stroke: #ff7f0e; stroke-linejoin: bevel"/>
     <use xlink:href="#mf5f1254e9c" x="151.012671" y="111.21293" style="fill-opacity: 0; stroke: #ff7f0e; stroke-linejoin: bevel"/>
     <use xlink:href="#mf5f1254e9c" x="154.999895" y="104.6498" style="fill-opacity: 0; stroke: #ff7f0e; stroke-linejoin: bevel"/>
     <use xlink:href="#mf5f1254e9c" x="158.987118" y="112.49964" style="fill-opacity: 0; stroke: #ff7f0e; stroke-linejoin: bevel"/>
     <use xlink:href="#mf5f1254e9c" x="162.974342" y="117.724301" style="fill-opacity: 0; stroke: #ff7f0e; stroke-linejoin: bevel"/>
     <use xlink:href="#mf5f1254e9c" x="166.961566" y="116.942464" style="fill-opacity: 0; stroke: #ff7f0e; stroke-linejoin: bevel"/>
     <use xlink:href="#mf5f1254e9c" x="170.948789" y="115.836903" style="fill-opacity: 0; stroke: #ff7f0e; stroke-linejoin: bevel"/>
     <use xlink:href="#mf5f1254e9c" x="174.936013" y="128.612714" style="fill-opacity: 0; stroke: #ff7f0e; stroke-linejoin: bevel"/>
     <use xlink:href="#mf5f1254e9c" x="178.923237" y="122.870533" style="fill-opacity: 0; stroke: #ff7f0e; stroke-linejoin: bevel"/>
     <use xlink:href="#mf5f1254e9c" x="182.910461" y="129.230805" style="fill-opacity: 0; stroke: #ff7f0e; stroke-linejoin: bevel"/>
     <use xlink:href="#mf5f1254e9c" x="186.897684" y="132.630658" style="fill-opacity: 0; stroke: #ff7f0e; stroke-linejoin: bevel"/>
     <use xlink:href="#mf5f1254e9c" x="190.884908" y="137.860501" style="fill-opacity: 0; stroke: #ff7f0e; stroke-linejoin: bevel"/>
     <use xlink:href="#mf5f1254e9c" x="194.872132" y="140.812476" style="fill-opacity: 0; stroke: #ff7f0e; stroke-linejoin: bevel"/>
     <use xlink:href="#mf5f1254e9c" x="198.859355" y="146.627731" style="fill-opacity: 0; stroke: #ff7f0e; stroke-linejoin: bevel"/>
     <use xlink:href="#mf5f1254e9c" x="202.846579" y="144.957" style="fill-opacity: 0; stroke: #ff7f0e; stroke-linejoin: bevel"/>
     <use xlink:href="#mf5f1254e9c" x="206.833803" y="153.129377" style="fill-opacity: 0; stroke: #ff7f0e; stroke-linejoin: bevel"/>
     <use xlink:href="#mf5f1254e9c" x="210.821026" y="148.82905" style="fill-opacity: 0; stroke: #ff7f0e; stroke-linejoin: bevel"/>
     <use xlink:href="#mf5f1254e9c" x="214.80825" y="148.356998" style="fill-opacity: 0; stroke: #ff7f0e; stroke-linejoin: bevel"/>
     <use xlink:href="#mf5f1254e9c" x="218.795474" y="164.60202" style="fill-opacity: 0; stroke: #ff7f0e; stroke-linejoin: bevel"/>
     <use xlink:href="#mf5f1254e9c" x="222.782697" y="156.427003" style="fill-opacity: 0; stroke: #ff7f0e; stroke-linejoin: bevel"/>
     <use xlink:href="#mf5f1254e9c" x="226.769921" y="159.506824" style="fill-opacity: 0; stroke: #ff7f0e; stroke-linejoin: bevel"/>
     <use xlink:href="#mf5f1254e9c" x="230.757145" y="164.203934" style="fill-opacity: 0; stroke: #ff7f0e; stroke-linejoin: bevel"/>
     <use xlink:href="#mf5f1254e9c" x="234.744368" y="169.486202" style="fill-opacity: 0; stroke: #ff7f0e; stroke-linejoin: bevel"/>
     <use xlink:href="#mf5f1254e9c" x="238.731592" y="175.456551" style="fill-opacity: 0; stroke: #ff7f0e; stroke-linejoin: bevel"/>
     <use xlink:href="#mf5f1254e9c" x="242.718816" y="172.984473" style="fill-opacity: 0; stroke: #ff7f0e; stroke-linejoin: bevel"/>
     <use xlink:href="#mf5f1254e9c" x="246.706039" y="177.839965" style="fill-opacity: 0; stroke: #ff7f0e; stroke-linejoin: bevel"/>
     <use xlink:href="#mf5f1254e9c" x="250.693263" y="182.945185" style="fill-opacity: 0; stroke: #ff7f0e; stroke-linejoin: bevel"/>
     <use xlink:href="#mf5f1254e9c" x="254.680487" y="180.127994" style="fill-opacity: 0; stroke: #ff7f0e; stroke-linejoin: bevel"/>
     <use xlink:href="#mf5f1254e9c" x="258.667711" y="187.946411" style="fill-opacity: 0; stroke: #ff7f0e; stroke-linejoin: bevel"/>
     <use xlink:href="#mf5f1254e9c" x="262.654934" y="184.659938" style="fill-opacity: 0; stroke: #ff7f0e; stroke-linejoin: bevel"/>
     <use xlink:href="#mf5f1254e9c" x="266.642158" y="193.22323" style="fill-opacity: 0; stroke: #ff7f0e; stroke-linejoin: bevel"/>
     <use xlink:href="#mf5f1254e9c" x="270.629382" y="197.497311" style="fill-opacity: 0; stroke: #ff7f0e; stroke-linejoin: bevel"/>
     <use xlink:href="#mf5f1254e9c" x="274.616605" y="194.620904" style="fill-opacity: 0; stroke: #ff7f0e; stroke-linejoin: bevel"/>
     <use xlink:href="#mf5f1254e9c" x="278.603829" y="199.898353" style="fill-opacity: 0; stroke: #ff7f0e; stroke-linejoin: bevel"/>
     <use xlink:href="#mf5f1254e9c" x="282.591053" y="199.871143" style="fill-opacity: 0; stroke: #ff7f0e; stroke-linejoin: bevel"/>
     <use xlink:href="#mf5f1254e9c" x="286.578276" y="198.496389" style="fill-opacity: 0; stroke: #ff7f0e; stroke-linejoin: bevel"/>
     <use xlink:href="#mf5f1254e9c" x="290.5655" y="199.235441" style="fill-opacity: 0; stroke: #ff7f0e; stroke-linejoin: bevel"/>
     <use xlink:href="#mf5f1254e9c" x="294.552724" y="201.969182" style="fill-opacity: 0; stroke: #ff7f0e; stroke-linejoin: bevel"/>
     <use xlink:href="#mf5f1254e9c" x="298.539947" y="200.464911" style="fill-opacity: 0; stroke: #ff7f0e; stroke-linejoin: bevel"/>
     <use xlink:href="#mf5f1254e9c" x="302.527171" y="203.071343" style="fill-opacity: 0; stroke: #ff7f0e; stroke-linejoin: bevel"/>
     <use xlink:href="#mf5f1254e9c" x="306.514395" y="201.565977" style="fill-opacity: 0; stroke: #ff7f0e; stroke-linejoin: bevel"/>
     <use xlink:href="#mf5f1254e9c" x="310.501618" y="201.1874" style="fill-opacity: 0; stroke: #ff7f0e; stroke-linejoin: bevel"/>
     <use xlink:href="#mf5f1254e9c" x="314.488842" y="202.370821" style="fill-opacity: 0; stroke: #ff7f0e; stroke-linejoin: bevel"/>
     <use xlink:href="#mf5f1254e9c" x="318.476066" y="203.000437" style="fill-opacity: 0; stroke: #ff7f0e; stroke-linejoin: bevel"/>
     <use xlink:href="#mf5f1254e9c" x="322.463289" y="203.365574" style="fill-opacity: 0; stroke: #ff7f0e; stroke-linejoin: bevel"/>
     <use xlink:href="#mf5f1254e9c" x="326.450513" y="203.497162" style="fill-opacity: 0; stroke: #ff7f0e; stroke-linejoin: bevel"/>
     <use xlink:href="#mf5f1254e9c" x="330.437737" y="202.941729" style="fill-opacity: 0; stroke: #ff7f0e; stroke-linejoin: bevel"/>
     <use xlink:href="#mf5f1254e9c" x="334.424961" y="202.320532" style="fill-opacity: 0; stroke: #ff7f0e; stroke-linejoin: bevel"/>
     <use xlink:href="#mf5f1254e9c" x="338.412184" y="202.310148" style="fill-opacity: 0; stroke: #ff7f0e; stroke-linejoin: bevel"/>
     <use xlink:href="#mf5f1254e9c" x="342.399408" y="205.760599" style="fill-opacity: 0; stroke: #ff7f0e; stroke-linejoin: bevel"/>
     <use xlink:href="#mf5f1254e9c" x="346.386632" y="206.35257" style="fill-opacity: 0; stroke: #ff7f0e; stroke-linejoin: bevel"/>
     <use xlink:href="#mf5f1254e9c" x="350.373855" y="205.112808" style="fill-opacity: 0; stroke: #ff7f0e; stroke-linejoin: bevel"/>
     <use xlink:href="#mf5f1254e9c" x="354.361079" y="206.079771" style="fill-opacity: 0; stroke: #ff7f0e; stroke-linejoin: bevel"/>
     <use xlink:href="#mf5f1254e9c" x="358.348303" y="206.277249" style="fill-opacity: 0; stroke: #ff7f0e; stroke-linejoin: bevel"/>
     <use xlink:href="#mf5f1254e9c" x="362.335526" y="204.860567" style="fill-opacity: 0; stroke: #ff7f0e; stroke-linejoin: bevel"/>
     <use xlink:href="#mf5f1254e9c" x="366.32275" y="207.848488" style="fill-opacity: 0; stroke: #ff7f0e; stroke-linejoin: bevel"/>
     <use xlink:href="#mf5f1254e9c" x="370.309974" y="207.613138" style="fill-opacity: 0; stroke: #ff7f0e; stroke-linejoin: bevel"/>
     <use xlink:href="#mf5f1254e9c" x="374.297197" y="208.883281" style="fill-opacity: 0; stroke: #ff7f0e; stroke-linejoin: bevel"/>
     <use xlink:href="#mf5f1254e9c" x="378.284421" y="206.901175" style="fill-opacity: 0; stroke: #ff7f0e; stroke-linejoin: bevel"/>
    </g>
   </g>
   <g id="line2d_16">
    <path d="M 63.29375 36.346784 
L 67.280974 39.436666 
L 71.268197 42.526548 
L 75.255421 45.61643 
L 79.242645 48.706312 
L 83.229868 51.796194 
L 87.217092 54.886076 
L 91.204316 57.975958 
L 95.191539 61.06584 
L 99.178763 64.155723 
L 103.165987 67.245605 
L 107.153211 70.335487 
L 111.140434 73.425369 
L 115.127658 76.515251 
L 119.114882 79.605133 
L 123.102105 82.695015 
L 127.089329 85.784897 
L 131.076553 88.874779 
L 135.063776 91.964661 
L 139.051 95.054543 
L 143.038224 98.144425 
L 147.025447 101.234307 
L 151.012671 104.324189 
L 154.999895 107.414071 
L 158.987118 110.503953 
L 162.974342 113.593835 
L 166.961566 116.683717 
L 170.948789 119.773599 
L 174.936013 122.863481 
L 178.923237 125.953363 
L 182.910461 129.043246 
L 186.897684 132.133128 
L 190.884908 135.22301 
L 194.872132 138.312892 
L 198.859355 141.402774 
L 202.846579 144.492656 
L 206.833803 147.582538 
L 210.821026 150.67242 
L 214.80825 153.762302 
L 218.795474 156.852184 
L 222.782697 159.942066 
L 226.769921 163.031948 
L 230.757145 166.12183 
L 234.744368 169.211712 
L 238.731592 172.301594 
L 242.718816 175.391476 
L 246.706039 178.481358 
L 250.693263 181.57124 
L 254.680487 184.661122 
L 258.667711 187.751004 
L 262.654934 190.840887 
L 266.642158 193.930769 
L 270.629382 197.020651 
L 274.616605 200.110533 
L 278.603829 203.200415 
L 282.591053 206.290297 
L 286.578276 209.380179 
L 290.5655 212.470061 
L 294.552724 215.559943 
L 298.539947 218.649825 
L 302.527171 221.739707 
L 306.514395 224.829589 
L 310.501618 227.919471 
L 314.488842 231.009353 
L 318.476066 234.099235 
L 322.463289 237.189117 
L 326.450513 240.278999 
L 330.437737 243.368881 
L 334.424961 246.458763 
L 338.412184 249.548645 
L 342.399408 252.638527 
L 346.386632 255.72841 
L 350.373855 258.818292 
L 354.361079 261.908174 
L 358.348303 264.998056 
L 362.335526 268.087938 
L 366.32275 271.17782 
L 370.309974 274.267702 
L 374.297197 277.357584 
L 378.284421 280.447466 
" clip-path="url(#p2c4f49f63c)" style="fill: none; stroke-dasharray: 5.55,2.4; stroke-dashoffset: 0; stroke: #2ca02c; stroke-width: 1.5"/>
   </g>
   <g id="line2d_17">
    <path d="M 63.29375 115.138776 
L 382.271645 115.138776 
" clip-path="url(#p2c4f49f63c)" style="fill: none; stroke-dasharray: 5.55,2.4; stroke-dashoffset: 0; stroke: #d62728; stroke-width: 1.5"/>
   </g>
   <g id="line2d_18">
    <path d="M 63.29375 197.020651 
L 382.271645 197.020651 
" clip-path="url(#p2c4f49f63c)" style="fill: none; stroke-dasharray: 5.55,2.4; stroke-dashoffset: 0; stroke: #9467bd; stroke-width: 1.5"/>
   </g>
   <g id="patch_3">
    <path d="M 63.29375 292.6525 
L 63.29375 24.14175 
" style="fill: none; stroke: #000000; stroke-width: 0.8; stroke-linejoin: miter; stroke-linecap: square"/>
   </g>
   <g id="patch_4">
    <path d="M 442.08 292.6525 
L 442.08 24.14175 
" style="fill: none; stroke: #000000; stroke-width: 0.8; stroke-linejoin: miter; stroke-linecap: square"/>
   </g>
   <g id="patch_5">
    <path d="M 63.29375 292.6525 
L 442.08 292.6525 
" style="fill: none; stroke: #000000; stroke-width: 0.8; stroke-linejoin: miter; stroke-linecap: square"/>
   </g>
   <g id="patch_6">
    <path d="M 63.29375 24.14175 
L 442.08 24.14175 
" style="fill: none; stroke: #000000; stroke-width: 0.8; stroke-linejoin: miter; stroke-linecap: square"/>
   </g>
   <g id="text_16">
    <!-- $\sqrt{\varepsilon_{mach}}$ -->
    <g transform="translate(390.246092 118.228658) scale(0.12 -0.12)">
     <defs>
      <path id="STIXSizeOneSym-Regular-221a" d="M 6970 9933 
L 3373 -1888 
L 3104 -1888 
L 1626 2918 
Q 1555 3149 1465 3251 
Q 1376 3354 1229 3354 
Q 1011 3354 794 3181 
L 717 3309 
L 1766 4115 
L 1926 4115 
L 3379 -602 
L 3405 -602 
L 6605 9933 
L 6970 9933 
z
" transform="scale(0.015625)"/>
      <path id="DejaVuSans-Oblique-3b5" d="M 1263 1888 
Q 925 1963 778 2166 
Q 669 2309 669 2503 
Q 669 3034 1175 3344 
Q 1575 3588 2188 3588 
Q 2425 3588 2684 3550 
Q 2944 3513 3234 3438 
L 3134 2916 
Q 2847 3006 2606 3047 
Q 2359 3088 2138 3088 
Q 1766 3088 1522 2944 
Q 1228 2772 1228 2522 
Q 1228 2356 1381 2241 
Q 1563 2103 1925 2103 
L 2409 2103 
L 2319 1628 
L 1856 1628 
Q 1425 1628 1172 1469 
Q 828 1253 828 916 
Q 828 703 1013 563 
Q 1244 388 1716 388 
Q 2006 388 2284 444 
Q 2563 503 2806 619 
L 2700 84 
Q 2403 -3 2131 -47 
Q 1859 -91 1609 -91 
Q 866 -91 516 194 
Q 250 413 250 781 
Q 250 1278 600 1584 
Q 859 1813 1263 1888 
z
" transform="scale(0.015625)"/>
      <path id="DejaVuSans-Oblique-6d" d="M 5747 2113 
L 5338 0 
L 4763 0 
L 5166 2094 
Q 5191 2228 5203 2325 
Q 5216 2422 5216 2491 
Q 5216 2772 5059 2928 
Q 4903 3084 4622 3084 
Q 4203 3084 3875 2770 
Q 3547 2456 3450 1953 
L 3066 0 
L 2491 0 
L 2900 2094 
Q 2925 2209 2937 2307 
Q 2950 2406 2950 2484 
Q 2950 2769 2794 2926 
Q 2638 3084 2363 3084 
Q 1938 3084 1609 2770 
Q 1281 2456 1184 1953 
L 800 0 
L 225 0 
L 909 3500 
L 1484 3500 
L 1375 2956 
Q 1609 3263 1923 3423 
Q 2238 3584 2597 3584 
Q 2978 3584 3223 3384 
Q 3469 3184 3519 2828 
Q 3781 3197 4126 3390 
Q 4472 3584 4856 3584 
Q 5306 3584 5551 3325 
Q 5797 3066 5797 2591 
Q 5797 2488 5784 2364 
Q 5772 2241 5747 2113 
z
" transform="scale(0.015625)"/>
      <path id="DejaVuSans-Oblique-61" d="M 3438 1997 
L 3047 0 
L 2472 0 
L 2578 531 
Q 2325 219 2001 64 
Q 1678 -91 1281 -91 
Q 834 -91 548 182 
Q 263 456 263 884 
Q 263 1497 752 1853 
Q 1241 2209 2100 2209 
L 2900 2209 
L 2931 2363 
Q 2938 2388 2941 2417 
Q 2944 2447 2944 2509 
Q 2944 2788 2717 2942 
Q 2491 3097 2081 3097 
Q 1800 3097 1504 3025 
Q 1209 2953 897 2809 
L 997 3341 
Q 1322 3463 1633 3523 
Q 1944 3584 2234 3584 
Q 2853 3584 3176 3315 
Q 3500 3047 3500 2534 
Q 3500 2431 3484 2292 
Q 3469 2153 3438 1997 
z
M 2816 1759 
L 2241 1759 
Q 1534 1759 1195 1570 
Q 856 1381 856 984 
Q 856 709 1029 553 
Q 1203 397 1509 397 
Q 1978 397 2328 733 
Q 2678 1069 2791 1631 
L 2816 1759 
z
" transform="scale(0.015625)"/>
      <path id="DejaVuSans-Oblique-63" d="M 3431 3366 
L 3316 2797 
Q 3109 2947 2876 3022 
Q 2644 3097 2394 3097 
Q 2119 3097 1870 3000 
Q 1622 2903 1453 2725 
Q 1184 2453 1037 2087 
Q 891 1722 891 1331 
Q 891 859 1127 628 
Q 1363 397 1844 397 
Q 2081 397 2348 469 
Q 2616 541 2906 684 
L 2797 116 
Q 2547 13 2283 -39 
Q 2019 -91 1741 -91 
Q 1044 -91 669 257 
Q 294 606 294 1253 
Q 294 1797 489 2255 
Q 684 2713 1069 3078 
Q 1331 3328 1684 3456 
Q 2038 3584 2456 3584 
Q 2700 3584 2940 3529 
Q 3181 3475 3431 3366 
z
" transform="scale(0.015625)"/>
      <path id="DejaVuSans-Oblique-68" d="M 3566 2113 
L 3156 0 
L 2578 0 
L 2988 2091 
Q 3016 2238 3031 2350 
Q 3047 2463 3047 2528 
Q 3047 2791 2881 2937 
Q 2716 3084 2419 3084 
Q 1956 3084 1617 2771 
Q 1278 2459 1178 1941 
L 800 0 
L 225 0 
L 1172 4863 
L 1747 4863 
L 1375 2950 
Q 1594 3244 1934 3414 
Q 2275 3584 2650 3584 
Q 3113 3584 3367 3334 
Q 3622 3084 3622 2631 
Q 3622 2519 3608 2391 
Q 3594 2263 3566 2113 
z
" transform="scale(0.015625)"/>
     </defs>
     <use xlink:href="#STIXSizeOneSym-Regular-221a" transform="translate(0 0.015625) scale(0.566932)"/>
     <use xlink:href="#DejaVuSans-Oblique-3b5" transform="translate(72.418686 0.6875)"/>
     <use xlink:href="#DejaVuSans-Oblique-6d" transform="translate(126.47142 -15.71875) scale(0.7)"/>
     <use xlink:href="#DejaVuSans-Oblique-61" transform="translate(194.659897 -15.71875) scale(0.7)"/>
     <use xlink:href="#DejaVuSans-Oblique-63" transform="translate(237.555405 -15.71875) scale(0.7)"/>
     <use xlink:href="#DejaVuSans-Oblique-68" transform="translate(276.041733 -15.71875) scale(0.7)"/>
     <path d="M 59.918686 81.5 
L 59.918686 87.75 
L 335.641342 87.75 
L 335.641342 81.5 
L 59.918686 81.5 
z
"/>
    </g>
   </g>
   <g id="text_17">
    <!-- $\varepsilon_{mach}$ -->
    <g transform="translate(390.246092 200.110533) scale(0.12 -0.12)">
     <use xlink:href="#DejaVuSans-Oblique-3b5" transform="translate(0 0.9375)"/>
     <use xlink:href="#DejaVuSans-Oblique-6d" transform="translate(54.052734 -15.46875) scale(0.7)"/>
     <use xlink:href="#DejaVuSans-Oblique-61" transform="translate(122.241211 -15.46875) scale(0.7)"/>
     <use xlink:href="#DejaVuSans-Oblique-63" transform="translate(165.136719 -15.46875) scale(0.7)"/>
     <use xlink:href="#DejaVuSans-Oblique-68" transform="translate(203.623047 -15.46875) scale(0.7)"/>
    </g>
   </g>
   <g id="text_18">
    <!-- Diagonal entries of R -->
    <g transform="translate(175.363375 18.14175) scale(0.144 -0.144)">
     <defs>
      <path id="DejaVuSerif-44" d="M 1581 331 
L 2163 331 
Q 3072 331 3558 850 
Q 4044 1369 4044 2338 
Q 4044 3306 3559 3818 
Q 3075 4331 2163 4331 
L 1581 4331 
L 1581 331 
z
M 353 0 
L 353 331 
L 947 331 
L 947 4331 
L 353 4331 
L 353 4666 
L 2209 4666 
Q 3416 4666 4089 4050 
Q 4763 3434 4763 2338 
Q 4763 1238 4088 619 
Q 3413 0 2209 0 
L 353 0 
z
" transform="scale(0.015625)"/>
      <path id="DejaVuSerif-69" d="M 622 4353 
Q 622 4497 726 4603 
Q 831 4709 978 4709 
Q 1122 4709 1226 4603 
Q 1331 4497 1331 4353 
Q 1331 4206 1228 4103 
Q 1125 4000 978 4000 
Q 831 4000 726 4103 
Q 622 4206 622 4353 
z
M 1356 331 
L 1900 331 
L 1900 0 
L 231 0 
L 231 331 
L 781 331 
L 781 2988 
L 231 2988 
L 231 3322 
L 1356 3322 
L 1356 331 
z
" transform="scale(0.015625)"/>
      <path id="DejaVuSerif-61" d="M 2547 1044 
L 2547 1747 
L 1806 1747 
Q 1378 1747 1168 1562 
Q 959 1378 959 997 
Q 959 650 1171 447 
Q 1384 244 1747 244 
Q 2106 244 2326 466 
Q 2547 688 2547 1044 
z
M 3122 2075 
L 3122 331 
L 3634 331 
L 3634 0 
L 2547 0 
L 2547 359 
Q 2356 128 2106 18 
Q 1856 -91 1522 -91 
Q 969 -91 644 203 
Q 319 497 319 997 
Q 319 1513 691 1797 
Q 1063 2081 1741 2081 
L 2547 2081 
L 2547 2309 
Q 2547 2688 2317 2895 
Q 2088 3103 1672 3103 
Q 1328 3103 1125 2947 
Q 922 2791 872 2484 
L 575 2484 
L 575 3156 
Q 875 3284 1158 3348 
Q 1441 3413 1709 3413 
Q 2400 3413 2761 3070 
Q 3122 2728 3122 2075 
z
" transform="scale(0.015625)"/>
      <path id="DejaVuSerif-67" d="M 3359 2988 
L 3359 72 
Q 3359 -644 2965 -1033 
Q 2572 -1422 1844 -1422 
Q 1516 -1422 1216 -1362 
Q 916 -1303 641 -1184 
L 641 -488 
L 941 -488 
Q 997 -813 1206 -963 
Q 1416 -1113 1806 -1113 
Q 2313 -1113 2548 -827 
Q 2784 -541 2784 72 
L 2784 519 
Q 2616 206 2355 57 
Q 2094 -91 1709 -91 
Q 1097 -91 708 395 
Q 319 881 319 1663 
Q 319 2444 706 2928 
Q 1094 3413 1709 3413 
Q 2094 3413 2355 3264 
Q 2616 3116 2784 2803 
L 2784 3322 
L 3909 3322 
L 3909 2988 
L 3359 2988 
z
M 2784 1825 
Q 2784 2422 2554 2737 
Q 2325 3053 1888 3053 
Q 1444 3053 1217 2703 
Q 991 2353 991 1663 
Q 991 975 1217 622 
Q 1444 269 1888 269 
Q 2325 269 2554 583 
Q 2784 897 2784 1497 
L 2784 1825 
z
" transform="scale(0.015625)"/>
      <path id="DejaVuSerif-6f" d="M 1925 219 
Q 2388 219 2623 584 
Q 2859 950 2859 1663 
Q 2859 2375 2623 2739 
Q 2388 3103 1925 3103 
Q 1463 3103 1227 2739 
Q 991 2375 991 1663 
Q 991 950 1228 584 
Q 1466 219 1925 219 
z
M 1925 -91 
Q 1200 -91 759 389 
Q 319 869 319 1663 
Q 319 2456 758 2934 
Q 1197 3413 1925 3413 
Q 2653 3413 3092 2934 
Q 3531 2456 3531 1663 
Q 3531 869 3092 389 
Q 2653 -91 1925 -91 
z
" transform="scale(0.015625)"/>
      <path id="DejaVuSerif-6e" d="M 263 0 
L 263 331 
L 781 331 
L 781 2988 
L 231 2988 
L 231 3322 
L 1356 3322 
L 1356 2731 
Q 1516 3069 1770 3241 
Q 2025 3413 2363 3413 
Q 2913 3413 3172 3097 
Q 3431 2781 3431 2113 
L 3431 331 
L 3944 331 
L 3944 0 
L 2356 0 
L 2356 331 
L 2853 331 
L 2853 1931 
Q 2853 2541 2703 2767 
Q 2553 2994 2175 2994 
Q 1775 2994 1565 2701 
Q 1356 2409 1356 1850 
L 1356 331 
L 1856 331 
L 1856 0 
L 263 0 
z
" transform="scale(0.015625)"/>
      <path id="DejaVuSerif-6c" d="M 1313 331 
L 1856 331 
L 1856 0 
L 184 0 
L 184 331 
L 738 331 
L 738 4531 
L 184 4531 
L 184 4863 
L 1313 4863 
L 1313 331 
z
" transform="scale(0.015625)"/>
      <path id="DejaVuSerif-20" transform="scale(0.015625)"/>
      <path id="DejaVuSerif-65" d="M 3469 1600 
L 991 1600 
L 991 1575 
Q 991 903 1244 561 
Q 1497 219 1991 219 
Q 2369 219 2611 417 
Q 2853 616 2950 1006 
L 3413 1006 
Q 3275 459 2904 184 
Q 2534 -91 1931 -91 
Q 1203 -91 761 389 
Q 319 869 319 1663 
Q 319 2450 753 2931 
Q 1188 3413 1894 3413 
Q 2647 3413 3050 2948 
Q 3453 2484 3469 1600 
z
M 2791 1931 
Q 2772 2513 2545 2808 
Q 2319 3103 1894 3103 
Q 1497 3103 1269 2806 
Q 1041 2509 991 1931 
L 2791 1931 
z
" transform="scale(0.015625)"/>
      <path id="DejaVuSerif-74" d="M 691 2988 
L 184 2988 
L 184 3322 
L 691 3322 
L 691 4353 
L 1269 4353 
L 1269 3322 
L 2350 3322 
L 2350 2988 
L 1269 2988 
L 1269 878 
Q 1269 456 1350 337 
Q 1431 219 1650 219 
Q 1875 219 1978 351 
Q 2081 484 2088 781 
L 2522 781 
Q 2497 328 2275 118 
Q 2053 -91 1600 -91 
Q 1103 -91 897 129 
Q 691 350 691 878 
L 691 2988 
z
" transform="scale(0.015625)"/>
      <path id="DejaVuSerif-72" d="M 3059 3328 
L 3059 2497 
L 2728 2497 
Q 2713 2744 2591 2866 
Q 2469 2988 2234 2988 
Q 1809 2988 1582 2694 
Q 1356 2400 1356 1850 
L 1356 331 
L 2022 331 
L 2022 0 
L 263 0 
L 263 331 
L 781 331 
L 781 2994 
L 231 2994 
L 231 3322 
L 1356 3322 
L 1356 2731 
Q 1525 3078 1790 3245 
Q 2056 3413 2438 3413 
Q 2578 3413 2733 3391 
Q 2888 3369 3059 3328 
z
" transform="scale(0.015625)"/>
      <path id="DejaVuSerif-73" d="M 359 184 
L 359 959 
L 691 959 
Q 703 588 923 403 
Q 1144 219 1575 219 
Q 1963 219 2166 364 
Q 2369 509 2369 788 
Q 2369 1006 2220 1140 
Q 2072 1275 1594 1428 
L 1178 1569 
Q 750 1706 558 1912 
Q 366 2119 366 2438 
Q 366 2894 700 3153 
Q 1034 3413 1625 3413 
Q 1888 3413 2178 3344 
Q 2469 3275 2778 3144 
L 2778 2419 
L 2447 2419 
Q 2434 2741 2221 2922 
Q 2009 3103 1644 3103 
Q 1281 3103 1095 2975 
Q 909 2847 909 2591 
Q 909 2381 1050 2254 
Q 1191 2128 1613 1997 
L 2069 1856 
Q 2541 1709 2748 1489 
Q 2956 1269 2956 922 
Q 2956 450 2595 179 
Q 2234 -91 1600 -91 
Q 1278 -91 972 -22 
Q 666 47 359 184 
z
" transform="scale(0.015625)"/>
      <path id="DejaVuSerif-66" d="M 2753 4078 
L 2450 4078 
Q 2447 4313 2317 4434 
Q 2188 4556 1941 4556 
Q 1619 4556 1487 4379 
Q 1356 4203 1356 3750 
L 1356 3322 
L 2284 3322 
L 2284 2988 
L 1356 2988 
L 1356 331 
L 2094 331 
L 2094 0 
L 231 0 
L 231 331 
L 781 331 
L 781 2988 
L 231 2988 
L 231 3322 
L 781 3322 
L 781 3738 
Q 781 4294 1070 4578 
Q 1359 4863 1919 4863 
Q 2128 4863 2337 4825 
Q 2547 4788 2753 4709 
L 2753 4078 
z
" transform="scale(0.015625)"/>
      <path id="DejaVuSerif-52" d="M 3066 2316 
Q 3284 2256 3442 2114 
Q 3600 1972 3725 1716 
L 4403 331 
L 4972 331 
L 4972 0 
L 3872 0 
L 3144 1484 
Q 2934 1916 2759 2042 
Q 2584 2169 2278 2169 
L 1581 2169 
L 1581 331 
L 2241 331 
L 2241 0 
L 353 0 
L 353 331 
L 947 331 
L 947 4331 
L 353 4331 
L 353 4666 
L 2719 4666 
Q 3400 4666 3770 4341 
Q 4141 4016 4141 3419 
Q 4141 2938 3870 2661 
Q 3600 2384 3066 2316 
z
M 1581 2503 
L 2503 2503 
Q 2975 2503 3200 2726 
Q 3425 2950 3425 3419 
Q 3425 3888 3200 4109 
Q 2975 4331 2503 4331 
L 1581 4331 
L 1581 2503 
z
" transform="scale(0.015625)"/>
     </defs>
     <use xlink:href="#DejaVuSerif-44"/>
     <use xlink:href="#DejaVuSerif-69" transform="translate(80.175781 0)"/>
     <use xlink:href="#DejaVuSerif-61" transform="translate(112.158203 0)"/>
     <use xlink:href="#DejaVuSerif-67" transform="translate(171.777344 0)"/>
     <use xlink:href="#DejaVuSerif-6f" transform="translate(235.791016 0)"/>
     <use xlink:href="#DejaVuSerif-6e" transform="translate(295.996094 0)"/>
     <use xlink:href="#DejaVuSerif-61" transform="translate(360.400391 0)"/>
     <use xlink:href="#DejaVuSerif-6c" transform="translate(420.019531 0)"/>
     <use xlink:href="#DejaVuSerif-20" transform="translate(452.001953 0)"/>
     <use xlink:href="#DejaVuSerif-65" transform="translate(483.789062 0)"/>
     <use xlink:href="#DejaVuSerif-6e" transform="translate(542.96875 0)"/>
     <use xlink:href="#DejaVuSerif-74" transform="translate(607.373047 0)"/>
     <use xlink:href="#DejaVuSerif-72" transform="translate(647.558594 0)"/>
     <use xlink:href="#DejaVuSerif-69" transform="translate(695.361328 0)"/>
     <use xlink:href="#DejaVuSerif-65" transform="translate(727.34375 0)"/>
     <use xlink:href="#DejaVuSerif-73" transform="translate(786.523438 0)"/>
     <use xlink:href="#DejaVuSerif-20" transform="translate(837.841797 0)"/>
     <use xlink:href="#DejaVuSerif-6f" transform="translate(869.628906 0)"/>
     <use xlink:href="#DejaVuSerif-66" transform="translate(929.833984 0)"/>
     <use xlink:href="#DejaVuSerif-20" transform="translate(966.845703 0)"/>
     <use xlink:href="#DejaVuSerif-52" transform="translate(998.632812 0)"/>
    </g>
   </g>
   <g id="legend_1">
    <g id="patch_7">
     <path d="M 319.56375 86.583 
L 433.68 86.583 
Q 436.08 86.583 436.08 84.183 
L 436.08 32.54175 
Q 436.08 30.14175 433.68 30.14175 
L 319.56375 30.14175 
Q 317.16375 30.14175 317.16375 32.54175 
L 317.16375 84.183 
Q 317.16375 86.583 319.56375 86.583 
z
" style="fill: #ffffff; opacity: 0.8; stroke: #cccccc; stroke-linejoin: miter"/>
    </g>
    <g id="line2d_19">
     <g>
      <use xlink:href="#md3d10c502c" x="333.96375" y="39.859875" style="fill-opacity: 0; stroke: #1f77b4"/>
     </g>
    </g>
    <g id="text_19">
     <!-- Classical GS -->
     <g transform="translate(355.56375 44.059875) scale(0.12 -0.12)">
      <defs>
       <path id="DejaVuSerif-43" d="M 4513 1234 
Q 4306 581 3820 245 
Q 3334 -91 2591 -91 
Q 2134 -91 1743 65 
Q 1353 222 1050 525 
Q 700 875 529 1320 
Q 359 1766 359 2328 
Q 359 3416 987 4083 
Q 1616 4750 2644 4750 
Q 3025 4750 3456 4650 
Q 3888 4550 4384 4347 
L 4384 3272 
L 4031 3272 
Q 3916 3859 3567 4137 
Q 3219 4416 2591 4416 
Q 1844 4416 1459 3886 
Q 1075 3356 1075 2328 
Q 1075 1303 1459 773 
Q 1844 244 2591 244 
Q 3113 244 3450 492 
Q 3788 741 3938 1234 
L 4513 1234 
z
" transform="scale(0.015625)"/>
       <path id="DejaVuSerif-63" d="M 3291 997 
Q 3169 466 2822 187 
Q 2475 -91 1925 -91 
Q 1200 -91 759 389 
Q 319 869 319 1663 
Q 319 2459 759 2936 
Q 1200 3413 1925 3413 
Q 2241 3413 2553 3339 
Q 2866 3266 3181 3116 
L 3181 2266 
L 2847 2266 
Q 2781 2703 2561 2903 
Q 2341 3103 1931 3103 
Q 1466 3103 1228 2742 
Q 991 2381 991 1663 
Q 991 944 1227 581 
Q 1463 219 1931 219 
Q 2303 219 2525 412 
Q 2747 606 2828 997 
L 3291 997 
z
" transform="scale(0.015625)"/>
       <path id="DejaVuSerif-47" d="M 4097 3272 
Q 3988 3856 3641 4136 
Q 3294 4416 2675 4416 
Q 1869 4416 1472 3897 
Q 1075 3378 1075 2328 
Q 1075 1300 1484 772 
Q 1894 244 2688 244 
Q 3041 244 3362 331 
Q 3684 419 3975 594 
L 3975 1797 
L 3097 1797 
L 3097 2131 
L 4609 2131 
L 4609 391 
Q 4194 150 3714 29 
Q 3234 -91 2688 -91 
Q 1631 -91 995 570 
Q 359 1231 359 2328 
Q 359 3434 996 4092 
Q 1634 4750 2713 4750 
Q 3113 4750 3539 4658 
Q 3966 4566 4447 4378 
L 4447 3272 
L 4097 3272 
z
" transform="scale(0.015625)"/>
       <path id="DejaVuSerif-53" d="M 594 225 
L 594 1288 
L 953 1284 
Q 969 753 1261 498 
Q 1553 244 2150 244 
Q 2706 244 2998 464 
Q 3291 684 3291 1106 
Q 3291 1444 3114 1625 
Q 2938 1806 2369 1978 
L 1753 2163 
Q 1084 2366 811 2669 
Q 538 2972 538 3500 
Q 538 4094 959 4422 
Q 1381 4750 2144 4750 
Q 2469 4750 2856 4679 
Q 3244 4609 3681 4475 
L 3681 3481 
L 3328 3481 
Q 3275 3975 2998 4195 
Q 2722 4416 2156 4416 
Q 1663 4416 1405 4214 
Q 1147 4013 1147 3628 
Q 1147 3294 1340 3103 
Q 1534 2913 2163 2725 
L 2741 2553 
Q 3375 2363 3645 2067 
Q 3916 1772 3916 1275 
Q 3916 597 3481 253 
Q 3047 -91 2188 -91 
Q 1803 -91 1404 -12 
Q 1006 66 594 225 
z
" transform="scale(0.015625)"/>
      </defs>
      <use xlink:href="#DejaVuSerif-43"/>
      <use xlink:href="#DejaVuSerif-6c" transform="translate(76.513672 0)"/>
      <use xlink:href="#DejaVuSerif-61" transform="translate(108.496094 0)"/>
      <use xlink:href="#DejaVuSerif-73" transform="translate(168.115234 0)"/>
      <use xlink:href="#DejaVuSerif-73" transform="translate(219.433594 0)"/>
      <use xlink:href="#DejaVuSerif-69" transform="translate(270.751953 0)"/>
      <use xlink:href="#DejaVuSerif-63" transform="translate(302.734375 0)"/>
      <use xlink:href="#DejaVuSerif-61" transform="translate(358.740234 0)"/>
      <use xlink:href="#DejaVuSerif-6c" transform="translate(418.359375 0)"/>
      <use xlink:href="#DejaVuSerif-20" transform="translate(450.341797 0)"/>
      <use xlink:href="#DejaVuSerif-47" transform="translate(482.128906 0)"/>
      <use xlink:href="#DejaVuSerif-53" transform="translate(562.011719 0)"/>
     </g>
    </g>
    <g id="line2d_20">
     <g>
      <use xlink:href="#mf5f1254e9c" x="333.96375" y="57.473625" style="fill-opacity: 0; stroke: #ff7f0e; stroke-linejoin: bevel"/>
     </g>
    </g>
    <g id="text_20">
     <!-- Modified GS -->
     <g transform="translate(355.56375 61.673625) scale(0.12 -0.12)">
      <defs>
       <path id="DejaVuSerif-4d" d="M 353 0 
L 353 331 
L 947 331 
L 947 4331 
L 319 4331 
L 319 4666 
L 1678 4666 
L 3316 1344 
L 4953 4666 
L 6228 4666 
L 6228 4331 
L 5606 4331 
L 5606 331 
L 6203 331 
L 6203 0 
L 4378 0 
L 4378 331 
L 4972 331 
L 4972 3938 
L 3372 684 
L 2931 684 
L 1331 3938 
L 1331 331 
L 1925 331 
L 1925 0 
L 353 0 
z
" transform="scale(0.015625)"/>
       <path id="DejaVuSerif-64" d="M 3359 331 
L 3909 331 
L 3909 0 
L 2784 0 
L 2784 519 
Q 2616 206 2355 57 
Q 2094 -91 1709 -91 
Q 1097 -91 708 395 
Q 319 881 319 1663 
Q 319 2444 706 2928 
Q 1094 3413 1709 3413 
Q 2094 3413 2355 3264 
Q 2616 3116 2784 2803 
L 2784 4531 
L 2241 4531 
L 2241 4863 
L 3359 4863 
L 3359 331 
z
M 2784 1497 
L 2784 1825 
Q 2784 2422 2554 2737 
Q 2325 3053 1888 3053 
Q 1444 3053 1217 2703 
Q 991 2353 991 1663 
Q 991 975 1217 622 
Q 1444 269 1888 269 
Q 2325 269 2554 583 
Q 2784 897 2784 1497 
z
" transform="scale(0.015625)"/>
      </defs>
      <use xlink:href="#DejaVuSerif-4d"/>
      <use xlink:href="#DejaVuSerif-6f" transform="translate(102.392578 0)"/>
      <use xlink:href="#DejaVuSerif-64" transform="translate(162.597656 0)"/>
      <use xlink:href="#DejaVuSerif-69" transform="translate(226.611328 0)"/>
      <use xlink:href="#DejaVuSerif-66" transform="translate(258.59375 0)"/>
      <use xlink:href="#DejaVuSerif-69" transform="translate(295.605469 0)"/>
      <use xlink:href="#DejaVuSerif-65" transform="translate(327.587891 0)"/>
      <use xlink:href="#DejaVuSerif-64" transform="translate(386.767578 0)"/>
      <use xlink:href="#DejaVuSerif-20" transform="translate(450.78125 0)"/>
      <use xlink:href="#DejaVuSerif-47" transform="translate(482.568359 0)"/>
      <use xlink:href="#DejaVuSerif-53" transform="translate(562.451172 0)"/>
     </g>
    </g>
    <g id="line2d_21">
     <path d="M 321.96375 75.087375 
L 333.96375 75.087375 
L 345.96375 75.087375 
" style="fill: none; stroke-dasharray: 5.55,2.4; stroke-dashoffset: 0; stroke: #2ca02c; stroke-width: 1.5"/>
    </g>
    <g id="text_21">
     <!-- $2^{-j}$ -->
     <g transform="translate(355.56375 79.287375) scale(0.12 -0.12)">
      <defs>
       <path id="DejaVuSans-32" d="M 1228 531 
L 3431 531 
L 3431 0 
L 469 0 
L 469 531 
Q 828 903 1448 1529 
Q 2069 2156 2228 2338 
Q 2531 2678 2651 2914 
Q 2772 3150 2772 3378 
Q 2772 3750 2511 3984 
Q 2250 4219 1831 4219 
Q 1534 4219 1204 4116 
Q 875 4013 500 3803 
L 500 4441 
Q 881 4594 1212 4672 
Q 1544 4750 1819 4750 
Q 2544 4750 2975 4387 
Q 3406 4025 3406 3419 
Q 3406 3131 3298 2873 
Q 3191 2616 2906 2266 
Q 2828 2175 2409 1742 
Q 1991 1309 1228 531 
z
" transform="scale(0.015625)"/>
       <path id="DejaVuSans-2212" d="M 678 2272 
L 4684 2272 
L 4684 1741 
L 678 1741 
L 678 2272 
z
" transform="scale(0.015625)"/>
      </defs>
      <use xlink:href="#DejaVuSans-32" transform="translate(0 0.529687)"/>
      <use xlink:href="#DejaVuSans-2212" transform="translate(64.580078 38.810937) scale(0.7)"/>
      <use xlink:href="#DejaVuSans-Oblique-6a" transform="translate(123.232422 38.810937) scale(0.7)"/>
     </g>
    </g>
   </g>
  </g>
 </g>
 <defs>
  <clipPath id="p2c4f49f63c">
   <rect x="63.29375" y="24.14175" width="378.78625" height="268.51075"/>
  </clipPath>
 </defs>
</svg>