<?xml version="1.0" encoding="utf-8" standalone="no"?>
<!DOCTYPE svg PUBLIC "-//W3C//DTD SVG 1.1//EN"
  "http://www.w3.org/Graphics/SVG/1.1/DTD/svg11.dtd">
<svg xmlns:xlink="http://www.w3.org/1999/xlink" width="449.28pt" height="334.08pt" viewBox="0 0 449.28 334.08" xmlns="http://www.w3.org/2000/svg" version="1.1">
 <metadata>
  <rdf:RDF xmlns:dc="http://purl.org/dc/elements/1.1/" xmlns:cc="http://creativecommons.org/ns#" xmlns:rdf="http://www.w3.org/1999/02/22-rdf-syntax-ns#">
   <cc:Work>
    <dc:type rdf:resource="http://purl.org/dc/dcmitype/StillImage"/>
    <dc:date>2025-04-14T12:06:52.465368</dc:date>
    <dc:format>image/svg+xml</dc:format>
    <dc:creator>
     <cc:Agent>
      <dc:title>Matplotlib v3.10.1, https://matplotlib.org/</dc:title>
     </cc:Agent>
    </dc:creator>
   </cc:Work>
  </rdf:RDF>
 </metadata>
 <defs>
  <style type="text/css">*{stroke-linejoin: round; stroke-linecap: butt}</style>
 </defs>
 <g id="figure_1">
  <g id="patch_1">
   <path d="M 0 334.08 
L 449.28 334.08 
L 449.28 0 
L 0 0 
z
" style="fill: #ffffff"/>
  </g>
  <g id="axes_1">
   <g id="patch_2">
    <path d="M 50.974375 308.26625 
L 442.08 308.26625 
L 442.08 7.2 
L 50.974375 7.2 
z
" style="fill: #ffffff"/>
   </g>
   <g id="matplotlib.axis_1">
    <g id="xtick_1">
     <g id="line2d_1">
      <defs>
       <path id="m9469bb4687" d="M 0 0 
L 0 3.5 
" style="stroke: #000000; stroke-width: 0.8"/>
      </defs>
      <g>
       <use xlink:href="#m9469bb4687" x="68.751903" y="308.26625" style="fill-opacity: 0; stroke: #000000; stroke-width: 0.8"/>
      </g>
     </g>
     <g id="text_1">
      <!-- 0 -->
      <g transform="translate(64.934403 324.384375) scale(0.12 -0.12)">
       <defs>
        <path id="DejaVuSerif-30" d="M 2034 219 
Q 2513 219 2750 744 
Q 2988 1269 2988 2328 
Q 2988 3391 2750 3916 
Q 2513 4441 2034 4441 
Q 1556 4441 1318 3916 
Q 1081 3391 1081 2328 
Q 1081 1269 1318 744 
Q 1556 219 2034 219 
z
M 2034 -91 
Q 1275 -91 848 546 
Q 422 1184 422 2328 
Q 422 3475 848 4112 
Q 1275 4750 2034 4750 
Q 2797 4750 3222 4112 
Q 3647 3475 3647 2328 
Q 3647 1184 3222 546 
Q 2797 -91 2034 -91 
z
" transform="scale(0.015625)"/>
       </defs>
       <use xlink:href="#DejaVuSerif-30"/>
      </g>
     </g>
    </g>
    <g id="xtick_2">
     <g id="line2d_2">
      <g>
       <use xlink:href="#m9469bb4687" x="138.195374" y="308.26625" style="fill-opacity: 0; stroke: #000000; stroke-width: 0.8"/>
      </g>
     </g>
     <g id="text_2">
      <!-- 50 -->
      <g transform="translate(130.560374 324.384375) scale(0.12 -0.12)">
       <defs>
        <path id="DejaVuSerif-35" d="M 3219 4666 
L 3219 4153 
L 1081 4153 
L 1081 2816 
Q 1244 2928 1461 2984 
Q 1678 3041 1947 3041 
Q 2703 3041 3140 2622 
Q 3578 2203 3578 1478 
Q 3578 738 3136 323 
Q 2694 -91 1894 -91 
Q 1572 -91 1234 -12 
Q 897 66 544 225 
L 544 1131 
L 897 1131 
Q 925 688 1179 453 
Q 1434 219 1894 219 
Q 2388 219 2653 544 
Q 2919 869 2919 1478 
Q 2919 2084 2655 2407 
Q 2391 2731 1894 2731 
Q 1613 2731 1398 2631 
Q 1184 2531 1019 2322 
L 750 2322 
L 750 4666 
L 3219 4666 
z
" transform="scale(0.015625)"/>
       </defs>
       <use xlink:href="#DejaVuSerif-35"/>
       <use xlink:href="#DejaVuSerif-30" transform="translate(63.623047 0)"/>
      </g>
     </g>
    </g>
    <g id="xtick_3">
     <g id="line2d_3">
      <g>
       <use xlink:href="#m9469bb4687" x="207.638844" y="308.26625" style="fill-opacity: 0; stroke: #000000; stroke-width: 0.8"/>
      </g>
     </g>
     <g id="text_3">
      <!-- 100 -->
      <g transform="translate(196.186344 324.384375) scale(0.12 -0.12)">
       <defs>
        <path id="DejaVuSerif-31" d="M 909 0 
L 909 331 
L 1722 331 
L 1722 4213 
L 781 3603 
L 781 4013 
L 1919 4750 
L 2350 4750 
L 2350 331 
L 3163 331 
L 3163 0 
L 909 0 
z
" transform="scale(0.015625)"/>
       </defs>
       <use xlink:href="#DejaVuSerif-31"/>
       <use xlink:href="#DejaVuSerif-30" transform="translate(63.623047 0)"/>
       <use xlink:href="#DejaVuSerif-30" transform="translate(127.246094 0)"/>
      </g>
     </g>
    </g>
    <g id="xtick_4">
     <g id="line2d_4">
      <g>
       <use xlink:href="#m9469bb4687" x="277.082314" y="308.26625" style="fill-opacity: 0; stroke: #000000; stroke-width: 0.8"/>
      </g>
     </g>
     <g id="text_4">
      <!-- 150 -->
      <g transform="translate(265.629814 324.384375) scale(0.12 -0.12)">
       <use xlink:href="#DejaVuSerif-31"/>
       <use xlink:href="#DejaVuSerif-35" transform="translate(63.623047 0)"/>
       <use xlink:href="#DejaVuSerif-30" transform="translate(127.246094 0)"/>
      </g>
     </g>
    </g>
    <g id="xtick_5">
     <g id="line2d_5">
      <g>
       <use xlink:href="#m9469bb4687" x="346.525785" y="308.26625" style="fill-opacity: 0; stroke: #000000; stroke-width: 0.8"/>
      </g>
     </g>
     <g id="text_5">
      <!-- 200 -->
      <g transform="translate(335.073285 324.384375) scale(0.12 -0.12)">
       <defs>
        <path id="DejaVuSerif-32" d="M 819 3553 
L 469 3553 
L 469 4384 
Q 803 4563 1142 4656 
Q 1481 4750 1806 4750 
Q 2534 4750 2956 4397 
Q 3378 4044 3378 3438 
Q 3378 2753 2422 1800 
Q 2347 1728 2309 1691 
L 1131 513 
L 3078 513 
L 3078 1088 
L 3444 1088 
L 3444 0 
L 434 0 
L 434 341 
L 1850 1753 
Q 2319 2222 2519 2614 
Q 2719 3006 2719 3438 
Q 2719 3909 2473 4175 
Q 2228 4441 1797 4441 
Q 1350 4441 1106 4219 
Q 863 3997 819 3553 
z
" transform="scale(0.015625)"/>
       </defs>
       <use xlink:href="#DejaVuSerif-32"/>
       <use xlink:href="#DejaVuSerif-30" transform="translate(63.623047 0)"/>
       <use xlink:href="#DejaVuSerif-30" transform="translate(127.246094 0)"/>
      </g>
     </g>
    </g>
    <g id="xtick_6">
     <g id="line2d_6">
      <g>
       <use xlink:href="#m9469bb4687" x="415.969255" y="308.26625" style="fill-opacity: 0; stroke: #000000; stroke-width: 0.8"/>
      </g>
     </g>
     <g id="text_6">
      <!-- 250 -->
      <g transform="translate(404.516755 324.384375) scale(0.12 -0.12)">
       <use xlink:href="#DejaVuSerif-32"/>
       <use xlink:href="#DejaVuSerif-35" transform="translate(63.623047 0)"/>
       <use xlink:href="#DejaVuSerif-30" transform="translate(127.246094 0)"/>
      </g>
     </g>
    </g>
   </g>
   <g id="matplotlib.axis_2">
    <g id="ytick_1">
     <g id="line2d_7">
      <defs>
       <path id="mbac5b6fa5b" d="M 0 0 
L -3.5 0 
" style="stroke: #000000; stroke-width: 0.8"/>
      </defs>
      <g>
       <use xlink:href="#mbac5b6fa5b" x="50.974375" y="294.58142" style="fill-opacity: 0; stroke: #000000; stroke-width: 0.8"/>
      </g>
     </g>
     <g id="text_7">
      <!-- −1.00 -->
      <g transform="translate(7.2 299.140483) scale(0.12 -0.12)">
       <defs>
        <path id="DejaVuSerif-2212" d="M 678 2259 
L 4684 2259 
L 4684 1753 
L 678 1753 
L 678 2259 
z
" transform="scale(0.015625)"/>
        <path id="DejaVuSerif-2e" d="M 603 325 
Q 603 500 722 622 
Q 841 744 1019 744 
Q 1191 744 1312 622 
Q 1434 500 1434 325 
Q 1434 153 1312 31 
Q 1191 -91 1019 -91 
Q 841 -91 722 29 
Q 603 150 603 325 
z
" transform="scale(0.015625)"/>
       </defs>
       <use xlink:href="#DejaVuSerif-2212"/>
       <use xlink:href="#DejaVuSerif-31" transform="translate(83.789062 0)"/>
       <use xlink:href="#DejaVuSerif-2e" transform="translate(147.412109 0)"/>
       <use xlink:href="#DejaVuSerif-30" transform="translate(179.199219 0)"/>
       <use xlink:href="#DejaVuSerif-30" transform="translate(242.822266 0)"/>
      </g>
     </g>
    </g>
    <g id="ytick_2">
     <g id="line2d_8">
      <g>
       <use xlink:href="#mbac5b6fa5b" x="50.974375" y="260.369347" style="fill-opacity: 0; stroke: #000000; stroke-width: 0.8"/>
      </g>
     </g>
     <g id="text_8">
      <!-- −0.75 -->
      <g transform="translate(7.2 264.928409) scale(0.12 -0.12)">
       <defs>
        <path id="DejaVuSerif-37" d="M 3609 4347 
L 1784 0 
L 1319 0 
L 3059 4153 
L 903 4153 
L 903 3578 
L 538 3578 
L 538 4666 
L 3609 4666 
L 3609 4347 
z
" transform="scale(0.015625)"/>
       </defs>
       <use xlink:href="#DejaVuSerif-2212"/>
       <use xlink:href="#DejaVuSerif-30" transform="translate(83.789062 0)"/>
       <use xlink:href="#DejaVuSerif-2e" transform="translate(147.412109 0)"/>
       <use xlink:href="#DejaVuSerif-37" transform="translate(179.199219 0)"/>
       <use xlink:href="#DejaVuSerif-35" transform="translate(242.822266 0)"/>
      </g>
     </g>
    </g>
    <g id="ytick_3">
     <g id="line2d_9">
      <g>
       <use xlink:href="#mbac5b6fa5b" x="50.974375" y="226.157273" style="fill-opacity: 0; stroke: #000000; stroke-width: 0.8"/>
      </g>
     </g>
     <g id="text_9">
      <!-- −0.50 -->
      <g transform="translate(7.2 230.716335) scale(0.12 -0.12)">
       <use xlink:href="#DejaVuSerif-2212"/>
       <use xlink:href="#DejaVuSerif-30" transform="translate(83.789062 0)"/>
       <use xlink:href="#DejaVuSerif-2e" transform="translate(147.412109 0)"/>
       <use xlink:href="#DejaVuSerif-35" transform="translate(179.199219 0)"/>
       <use xlink:href="#DejaVuSerif-30" transform="translate(242.822266 0)"/>
      </g>
     </g>
    </g>
    <g id="ytick_4">
     <g id="line2d_10">
      <g>
       <use xlink:href="#mbac5b6fa5b" x="50.974375" y="191.945199" style="fill-opacity: 0; stroke: #000000; stroke-width: 0.8"/>
      </g>
     </g>
     <g id="text_10">
      <!-- −0.25 -->
      <g transform="translate(7.2 196.504261) scale(0.12 -0.12)">
       <use xlink:href="#DejaVuSerif-2212"/>
       <use xlink:href="#DejaVuSerif-30" transform="translate(83.789062 0)"/>
       <use xlink:href="#DejaVuSerif-2e" transform="translate(147.412109 0)"/>
       <use xlink:href="#DejaVuSerif-32" transform="translate(179.199219 0)"/>
       <use xlink:href="#DejaVuSerif-35" transform="translate(242.822266 0)"/>
      </g>
     </g>
    </g>
    <g id="ytick_5">
     <g id="line2d_11">
      <g>
       <use xlink:href="#mbac5b6fa5b" x="50.974375" y="157.733125" style="fill-opacity: 0; stroke: #000000; stroke-width: 0.8"/>
      </g>
     </g>
     <g id="text_11">
      <!-- 0.00 -->
      <g transform="translate(17.255625 162.292187) scale(0.12 -0.12)">
       <use xlink:href="#DejaVuSerif-30"/>
       <use xlink:href="#DejaVuSerif-2e" transform="translate(63.623047 0)"/>
       <use xlink:href="#DejaVuSerif-30" transform="translate(95.410156 0)"/>
       <use xlink:href="#DejaVuSerif-30" transform="translate(159.033203 0)"/>
      </g>
     </g>
    </g>
    <g id="ytick_6">
     <g id="line2d_12">
      <g>
       <use xlink:href="#mbac5b6fa5b" x="50.974375" y="123.521051" style="fill-opacity: 0; stroke: #000000; stroke-width: 0.8"/>
      </g>
     </g>
     <g id="text_12">
      <!-- 0.25 -->
      <g transform="translate(17.255625 128.080114) scale(0.12 -0.12)">
       <use xlink:href="#DejaVuSerif-30"/>
       <use xlink:href="#DejaVuSerif-2e" transform="translate(63.623047 0)"/>
       <use xlink:href="#DejaVuSerif-32" transform="translate(95.410156 0)"/>
       <use xlink:href="#DejaVuSerif-35" transform="translate(159.033203 0)"/>
      </g>
     </g>
    </g>
    <g id="ytick_7">
     <g id="line2d_13">
      <g>
       <use xlink:href="#mbac5b6fa5b" x="50.974375" y="89.308977" style="fill-opacity: 0; stroke: #000000; stroke-width: 0.8"/>
      </g>
     </g>
     <g id="text_13">
      <!-- 0.50 -->
      <g transform="translate(17.255625 93.86804) scale(0.12 -0.12)">
       <use xlink:href="#DejaVuSerif-30"/>
       <use xlink:href="#DejaVuSerif-2e" transform="translate(63.623047 0)"/>
       <use xlink:href="#DejaVuSerif-35" transform="translate(95.410156 0)"/>
       <use xlink:href="#DejaVuSerif-30" transform="translate(159.033203 0)"/>
      </g>
     </g>
    </g>
    <g id="ytick_8">
     <g id="line2d_14">
      <g>
       <use xlink:href="#mbac5b6fa5b" x="50.974375" y="55.096903" style="fill-opacity: 0; stroke: #000000; stroke-width: 0.8"/>
      </g>
     </g>
     <g id="text_14">
      <!-- 0.75 -->
      <g transform="translate(17.255625 59.655966) scale(0.12 -0.12)">
       <use xlink:href="#DejaVuSerif-30"/>
       <use xlink:href="#DejaVuSerif-2e" transform="translate(63.623047 0)"/>
       <use xlink:href="#DejaVuSerif-37" transform="translate(95.410156 0)"/>
       <use xlink:href="#DejaVuSerif-35" transform="translate(159.033203 0)"/>
      </g>
     </g>
    </g>
    <g id="ytick_9">
     <g id="line2d_15">
      <g>
       <use xlink:href="#mbac5b6fa5b" x="50.974375" y="20.88483" style="fill-opacity: 0; stroke: #000000; stroke-width: 0.8"/>
      </g>
     </g>
     <g id="text_15">
      <!-- 1.00 -->
      <g transform="translate(17.255625 25.443892) scale(0.12 -0.12)">
       <use xlink:href="#DejaVuSerif-31"/>
       <use xlink:href="#DejaVuSerif-2e" transform="translate(63.623047 0)"/>
       <use xlink:href="#DejaVuSerif-30" transform="translate(95.410156 0)"/>
       <use xlink:href="#DejaVuSerif-30" transform="translate(159.033203 0)"/>
      </g>
     </g>
    </g>
   </g>
   <g id="line2d_16">
    <path d="M 68.751903 20.88483 
L 424.302472 20.88483 
L 424.302472 20.88483 
" clip-path="url(#p7a9b17d2b0)" style="fill: none; stroke: #1f77b4; stroke-width: 1.5; stroke-linecap: square"/>
   </g>
   <g id="line2d_17">
    <path d="M 68.751903 294.58142 
L 424.302472 20.88483 
L 424.302472 20.88483 
" clip-path="url(#p7a9b17d2b0)" style="fill: none; stroke: #ff7f0e; stroke-width: 1.5; stroke-linecap: square"/>
   </g>
   <g id="line2d_18">
    <path d="M 68.751903 20.88483 
L 75.69625 36.67018 
L 82.640597 51.826632 
L 89.584945 66.354185 
L 96.529292 80.25284 
L 102.084769 90.918957 
L 107.640247 101.182579 
L 113.195724 111.043707 
L 118.751202 120.502339 
L 124.30668 129.558476 
L 129.862157 138.212118 
L 135.417635 146.463265 
L 140.973113 154.311918 
L 146.52859 161.758075 
L 152.084068 168.801737 
L 157.639545 175.442904 
L 163.195023 181.681577 
L 168.750501 187.517754 
L 174.305978 192.951436 
L 179.861456 197.982624 
L 184.028064 201.491877 
L 188.194672 204.774727 
L 192.361281 207.831173 
L 196.527889 210.661216 
L 200.694497 213.264855 
L 204.861105 215.642091 
L 209.027714 217.792924 
L 213.194322 219.717353 
L 217.36093 221.415379 
L 221.527538 222.887001 
L 225.694146 224.13222 
L 229.860755 225.151035 
L 234.027363 225.943447 
L 238.193971 226.509456 
L 242.360579 226.849061 
L 246.527187 226.962263 
L 250.693796 226.849061 
L 254.860404 226.509456 
L 259.027012 225.943447 
L 263.19362 225.151035 
L 267.360229 224.13222 
L 271.526837 222.887001 
L 275.693445 221.415379 
L 279.860053 219.717353 
L 284.026661 217.792924 
L 288.19327 215.642091 
L 292.359878 213.264855 
L 296.526486 210.661216 
L 300.693094 207.831173 
L 304.859703 204.774727 
L 309.026311 201.491877 
L 313.192919 197.982624 
L 317.359527 194.246967 
L 322.915005 188.913908 
L 328.470483 183.178355 
L 334.02596 177.040306 
L 339.581438 170.499763 
L 345.136915 163.556724 
L 350.692393 156.211191 
L 356.247871 148.463162 
L 361.803348 140.312639 
L 367.358826 131.75962 
L 372.914304 122.804107 
L 378.469781 113.446099 
L 384.025259 103.685595 
L 389.580736 93.522597 
L 395.136214 82.957103 
L 400.691692 71.989115 
L 406.247169 60.618632 
L 413.191516 45.839519 
L 420.135863 30.431508 
L 424.302472 20.88483 
L 424.302472 20.88483 
" clip-path="url(#p7a9b17d2b0)" style="fill: none; stroke: #2ca02c; stroke-width: 1.5; stroke-linecap: square"/>
   </g>
   <g id="line2d_19">
    <path d="M 68.751903 294.58142 
L 72.918512 275.713478 
L 77.08512 257.959725 
L 81.251728 241.293422 
L 85.418336 225.687827 
L 89.584945 211.116201 
L 93.751553 197.551803 
L 97.918161 184.967893 
L 102.084769 173.337729 
L 106.251377 162.634571 
L 109.029116 156.000931 
L 111.806855 149.759485 
L 114.584594 143.902312 
L 117.362333 138.421487 
L 120.140071 133.309087 
L 122.91781 128.55719 
L 125.695549 124.157873 
L 128.473288 120.103211 
L 131.251027 116.385282 
L 134.028766 112.996164 
L 136.806504 109.927932 
L 139.584243 107.172663 
L 142.361982 104.722436 
L 145.139721 102.569325 
L 147.91746 100.705409 
L 150.695198 99.122764 
L 153.472937 97.813467 
L 156.250676 96.769594 
L 159.028415 95.983224 
L 161.806154 95.446432 
L 164.583892 95.151295 
L 167.361631 95.089891 
L 170.13937 95.254296 
L 172.917109 95.636587 
L 175.694848 96.228841 
L 178.472587 97.023134 
L 181.250325 98.011545 
L 184.028064 99.186149 
L 186.805803 100.539023 
L 190.972411 102.88526 
L 195.139019 105.588038 
L 199.305628 108.620615 
L 203.472236 111.956253 
L 207.638844 115.56821 
L 211.805452 119.429745 
L 217.36093 124.920474 
L 222.916408 130.743974 
L 229.860755 138.394746 
L 238.193971 147.956973 
L 264.58249 178.629389 
L 271.526837 186.205882 
L 277.082314 191.952132 
L 282.637792 197.349764 
L 286.8044 201.131077 
L 290.971009 204.653899 
L 295.137617 207.891488 
L 299.304225 210.817103 
L 303.470833 213.404005 
L 307.637441 215.625453 
L 310.41518 216.890182 
L 313.192919 217.97268 
L 315.970658 218.865022 
L 318.748397 219.559287 
L 321.526135 220.047549 
L 324.303874 220.321888 
L 327.081613 220.374378 
L 329.859352 220.197098 
L 332.637091 219.782125 
L 335.41483 219.121534 
L 338.192568 218.207403 
L 340.970307 217.031808 
L 343.748046 215.586827 
L 346.525785 213.864537 
L 349.303524 211.857014 
L 352.081262 209.556335 
L 354.859001 206.954578 
L 357.63674 204.043818 
L 360.414479 200.816133 
L 363.192218 197.2636 
L 365.969956 193.378295 
L 368.747695 189.152296 
L 371.525434 184.577679 
L 374.303173 179.646521 
L 377.080912 174.350899 
L 379.858651 168.68289 
L 382.636389 162.634571 
L 385.414128 156.198019 
L 388.191867 149.36531 
L 390.969606 142.128521 
L 395.136214 130.498357 
L 399.302822 117.914447 
L 403.46943 104.350049 
L 407.636039 89.778423 
L 411.802647 74.172828 
L 415.969255 57.506525 
L 420.135863 39.752772 
L 424.302472 20.88483 
L 424.302472 20.88483 
" clip-path="url(#p7a9b17d2b0)" style="fill: none; stroke: #d62728; stroke-width: 1.5; stroke-linecap: square"/>
   </g>
   <g id="patch_3">
    <path d="M 50.974375 308.26625 
L 50.974375 7.2 
" style="fill: none; stroke: #000000; stroke-width: 0.8; stroke-linejoin: miter; stroke-linecap: square"/>
   </g>
   <g id="patch_4">
    <path d="M 442.08 308.26625 
L 442.08 7.2 
" style="fill: none; stroke: #000000; stroke-width: 0.8; stroke-linejoin: miter; stroke-linecap: square"/>
   </g>
   <g id="patch_5">
    <path d="M 50.974375 308.26625 
L 442.08 308.26625 
" style="fill: none; stroke: #000000; stroke-width: 0.8; stroke-linejoin: miter; stroke-linecap: square"/>
   </g>
   <g id="patch_6">
    <path d="M 50.974375 7.2 
L 442.08 7.2 
" style="fill: none; stroke: #000000; stroke-width: 0.8; stroke-linejoin: miter; stroke-linecap: square"/>
   </g>
  </g>
 </g>
 <defs>
  <clipPath id="p7a9b17d2b0">
   <rect x="50.974375" y="7.2" width="391.105625" height="301.06625"/>
  </clipPath>
 </defs>
</svg>